SplineFontDB: 3.0
FontName: DistinguishMono-ExtraBold
FullName: Distinguish Mono ExtraBold
FamilyName: Distinguish Mono
Weight: ExtraBold
Copyright: Copyright 2015 Google Inc. All Rights Reserved.
Version: 2.000;GOOG;noto-source:20170915:90ef993387c0; ttfautohint (v1.7)
ItalicAngle: 0
UnderlinePosition: -125
UnderlineWidth: 50
Ascent: 800
Descent: 200
InvalidEm: 0
sfntRevision: 0x00020000
LayerCount: 2
Layer: 0 1 "Back" 1
Layer: 1 1 "Fore" 0
XUID: [1021 269 1684064080 921179]
StyleMap: 0x0000
FSType: 0
OS2Version: 4
OS2_WeightWidthSlopeOnly: 1
OS2_UseTypoMetrics: 0
CreationTime: 1435678095
ModificationTime: 1515872754
PfmFamily: 17
TTFWeight: 800
TTFWidth: 5
LineGap: 0
VLineGap: 0
Panose: 2 11 9 9 4 5 4 2 2 4
OS2TypoAscent: 1069
OS2TypoAOffset: 0
OS2TypoDescent: -293
OS2TypoDOffset: 0
OS2TypoLinegap: 0
OS2WinAscent: 1069
OS2WinAOffset: 0
OS2WinDescent: 293
OS2WinDOffset: 0
HheadAscent: 1069
HheadAOffset: 0
HheadDescent: -293
HheadDOffset: 0
OS2SubXSize: 650
OS2SubYSize: 600
OS2SubXOff: 0
OS2SubYOff: 75
OS2SupXSize: 650
OS2SupYSize: 600
OS2SupXOff: 0
OS2SupYOff: 350
OS2StrikeYSize: 50
OS2StrikeYPos: 322
OS2CapHeight: 714
OS2XHeight: 536
OS2Vendor: 'GOOG'
OS2CodePages: 00000000.00000000
OS2UnicodeRanges: e00002ff.400038df.08000029.00100000
Lookup: 1 0 0 "'aalt' Access All Alternates lookup 0" { "'aalt' Access All Alternates lookup 0 subtable"  } ['aalt' ('DFLT' <'dflt' > 'cyrl' <'SRB ' 'dflt' > 'grek' <'dflt' > 'latn' <'CAT ' 'MAH ' 'MOL ' 'NAV ' 'ROM ' 'dflt' > ) ]
Lookup: 3 0 0 "'aalt' Access All Alternates lookup 1" { "'aalt' Access All Alternates lookup 1 subtable"  } ['aalt' ('DFLT' <'dflt' > 'cyrl' <'SRB ' 'dflt' > 'grek' <'dflt' > 'latn' <'CAT ' 'MAH ' 'MOL ' 'NAV ' 'ROM ' 'dflt' > ) ]
Lookup: 4 0 0 "'ccmp' Glyph Composition/Decomposition lookup 2" { "'ccmp' Glyph Composition/Decomposition lookup 2 subtable"  } ['ccmp' ('DFLT' <'dflt' > 'cyrl' <'SRB ' 'dflt' > 'grek' <'dflt' > 'latn' <'CAT ' 'MAH ' 'MOL ' 'NAV ' 'ROM ' 'dflt' > ) ]

StartChar: .notdef
Encoding: 65536 -1 0
Width: 600
Flags: W
LayerCount: 2
Fore
SplineSet
94 0 m 1,0,-1
 94 714 l 1,1,-1
 505 714 l 1,2,-1
 505 0 l 1,3,-1
 94 0 l 1,0,-1
145 51 m 1,4,-1
 454 51 l 1,5,-1
 454 663 l 1,6,-1
 145 663 l 1,7,-1
 145 51 l 1,4,-1
EndSplineSet
EndChar

StartChar: exclam
Encoding: 33 33 4
Width: 600
Flags: W
LayerCount: 2
Fore
SplineSet
231 244 m 1,0,-1
 208 714 l 1,1,-1
 397 714 l 1,2,-1
 374 244 l 1,3,-1
 231 244 l 1,0,-1
302 -11 m 0,4,5
 259 -11 259 -11 232 11.5 c 128,-1,6
 205 34 205 34 205 79 c 0,7,8
 205 126 205 126 231.5 148 c 128,-1,9
 258 170 258 170 302 170 c 0,10,11
 344 170 344 170 370.5 148 c 128,-1,12
 397 126 397 126 397 79 c 0,13,14
 397 35 397 35 370 12 c 128,-1,15
 343 -11 343 -11 302 -11 c 0,4,5
EndSplineSet
Substitution2: "'smcp' Lowercase to Small Capitals lookup 33 subtable" exclam.sc
Substitution2: "'c2sc' Capitals to Small Capitals lookup 32 subtable" exclam.sc
Substitution2: "'aalt' Access All Alternates lookup 0 subtable" exclam.sc
EndChar

StartChar: quotedbl
Encoding: 34 34 5
Width: 600
Flags: W
LayerCount: 2
Fore
SplineSet
348 456 m 1,0,-1
 329 714 l 1,1,-1
 484 714 l 1,2,-1
 464 456 l 1,3,-1
 348 456 l 1,0,-1
136 456 m 1,4,-1
 116 714 l 1,5,-1
 271 714 l 1,6,-1
 252 456 l 1,7,-1
 136 456 l 1,4,-1
EndSplineSet
EndChar

StartChar: numbersign
Encoding: 35 35 6
Width: 600
Flags: W
LayerCount: 2
Fore
SplineSet
91 0 m 1,0,-1
 122 196 l 1,1,-1
 13 196 l 1,2,-1
 13 304 l 1,3,-1
 140 304 l 1,4,-1
 158 411 l 1,5,-1
 41 411 l 1,6,-1
 41 520 l 1,7,-1
 175 520 l 1,8,-1
 207 714 l 1,9,-1
 319 714 l 1,10,-1
 286 520 l 1,11,-1
 366 520 l 1,12,-1
 397 714 l 1,13,-1
 508 714 l 1,14,-1
 476 520 l 1,15,-1
 587 520 l 1,16,-1
 587 411 l 1,17,-1
 459 411 l 1,18,-1
 441 304 l 1,19,-1
 559 304 l 1,20,-1
 559 196 l 1,21,-1
 424 196 l 1,22,-1
 392 0 l 1,23,-1
 280 0 l 1,24,-1
 312 196 l 1,25,-1
 233 196 l 1,26,-1
 202 0 l 1,27,-1
 91 0 l 1,0,-1
251 304 m 1,28,-1
 330 304 l 1,29,-1
 348 411 l 1,30,-1
 269 411 l 1,31,-1
 251 304 l 1,28,-1
EndSplineSet
EndChar

StartChar: dollar
Encoding: 36 36 7
Width: 600
Flags: W
LayerCount: 2
Fore
SplineSet
267 -58 m 1,0,-1
 267 29 l 1,1,2
 155 34 155 34 76 70 c 1,3,-1
 76 205 l 1,4,5
 115 184 115 184 167.5 167 c 128,-1,6
 220 150 220 150 267 148 c 1,7,-1
 267 307 l 1,8,9
 172 342 172 342 124 386 c 128,-1,10
 76 430 76 430 76 507 c 0,11,12
 76 592 76 592 129 638 c 128,-1,13
 182 684 182 684 267 693 c 1,14,-1
 267 759 l 1,15,-1
 339 759 l 1,16,-1
 339 694 l 1,17,18
 388 691 388 691 431.5 679.5 c 128,-1,19
 475 668 475 668 517 649 c 1,20,-1
 478 533 l 1,21,22
 445 549 445 549 408.5 558.5 c 128,-1,23
 372 568 372 568 339 571 c 1,24,-1
 339 421 l 1,25,26
 396 400 396 400 438 376 c 128,-1,27
 480 352 480 352 502.5 317 c 128,-1,28
 525 282 525 282 525 229 c 0,29,30
 525 152 525 152 478 98.5 c 128,-1,31
 431 45 431 45 339 32 c 1,32,-1
 339 -58 l 1,33,-1
 267 -58 l 1,0,-1
267 449 m 1,34,-1
 267 570 l 1,35,36
 211 561 211 561 211 510 c 0,37,38
 211 488 211 488 224.5 474.5 c 128,-1,39
 238 461 238 461 267 449 c 1,34,-1
339 154 m 1,40,41
 392 166 392 166 392 218 c 0,42,43
 392 241 392 241 379 254 c 128,-1,44
 366 267 366 267 339 280 c 1,45,-1
 339 154 l 1,40,41
EndSplineSet
EndChar

StartChar: percent
Encoding: 37 37 8
Width: 600
Flags: W
LayerCount: 2
Fore
SplineSet
142 384 m 0,0,1
 76 384 76 384 38 427.5 c 128,-1,2
 0 471 0 471 0 552 c 0,3,4
 0 634 0 634 38 678.5 c 128,-1,5
 76 723 76 723 142 723 c 0,6,7
 212 723 212 723 249 678.5 c 128,-1,8
 286 634 286 634 286 552 c 0,9,10
 286 472 286 472 249 428 c 128,-1,11
 212 384 212 384 142 384 c 0,0,1
53 -5 m 1,12,-1
 422 719 l 1,13,-1
 540 719 l 1,14,-1
 173 -5 l 1,15,-1
 53 -5 l 1,12,-1
144 478 m 0,16,17
 160 478 160 478 168.5 495.5 c 128,-1,18
 177 513 177 513 177 552 c 0,19,20
 177 593 177 593 168.5 611 c 128,-1,21
 160 629 160 629 144 629 c 0,22,23
 125 629 125 629 117 611 c 128,-1,24
 109 593 109 593 109 552 c 0,25,26
 109 513 109 513 117 495.5 c 128,-1,27
 125 478 125 478 144 478 c 0,16,17
456 -9 m 0,28,29
 390 -9 390 -9 352 34.5 c 128,-1,30
 314 78 314 78 314 158 c 0,31,32
 314 241 314 241 352 285.5 c 128,-1,33
 390 330 390 330 456 330 c 0,34,35
 526 330 526 330 563 285 c 128,-1,36
 600 240 600 240 600 158 c 0,37,38
 600 78 600 78 563 34.5 c 128,-1,39
 526 -9 526 -9 456 -9 c 0,28,29
458 84 m 0,40,41
 491 84 491 84 491 158 c 0,42,43
 491 199 491 199 482.5 217.5 c 128,-1,44
 474 236 474 236 458 236 c 0,45,46
 439 236 439 236 431 217.5 c 128,-1,47
 423 199 423 199 423 158 c 0,48,49
 423 84 423 84 458 84 c 0,40,41
EndSplineSet
EndChar

StartChar: ampersand
Encoding: 38 38 9
Width: 600
Flags: W
LayerCount: 2
Fore
SplineSet
217 -10 m 0,0,1
 153 -10 153 -10 110.5 15.5 c 128,-1,2
 68 41 68 41 46.5 84 c 128,-1,3
 25 127 25 127 25 181 c 0,4,5
 25 247 25 247 57 296.5 c 128,-1,6
 89 346 89 346 140 390 c 1,7,8
 120 421 120 421 102.5 462 c 128,-1,9
 85 503 85 503 85 554 c 0,10,11
 85 632 85 632 130.5 677.5 c 128,-1,12
 176 723 176 723 254 723 c 0,13,14
 335 723 335 723 379 678.5 c 128,-1,15
 423 634 423 634 423 561 c 0,16,17
 423 505 423 505 392 461 c 128,-1,18
 361 417 361 417 311 374 c 1,19,-1
 395 261 l 1,20,21
 410 294 410 294 419 327.5 c 128,-1,22
 428 361 428 361 431 388 c 1,23,-1
 562 388 l 1,24,25
 556 329 556 329 535 265.5 c 128,-1,26
 514 202 514 202 478 147 c 1,27,-1
 587 0 l 1,28,-1
 423 0 l 1,29,-1
 388 48 l 1,30,31
 352 21 352 21 309 5.5 c 128,-1,32
 266 -10 266 -10 217 -10 c 0,0,1
213 559 m 0,33,34
 213 532 213 532 221.5 509.5 c 128,-1,35
 230 487 230 487 242 469 c 1,36,37
 265 489 265 489 282 512.5 c 128,-1,38
 299 536 299 536 299 565 c 0,39,40
 299 616 299 616 258 616 c 0,41,42
 238 616 238 616 225.5 602 c 128,-1,43
 213 588 213 588 213 559 c 0,33,34
164 196 m 0,44,45
 164 165 164 165 182.5 142 c 128,-1,46
 201 119 201 119 237 119 c 0,47,48
 259 119 259 119 278.5 127 c 128,-1,49
 298 135 298 135 315 148 c 1,50,-1
 212 290 l 1,51,52
 188 267 188 267 176 245.5 c 128,-1,53
 164 224 164 224 164 196 c 0,44,45
EndSplineSet
Substitution2: "'smcp' Lowercase to Small Capitals lookup 33 subtable" ampersand.sc
Substitution2: "'c2sc' Capitals to Small Capitals lookup 32 subtable" ampersand.sc
Substitution2: "'aalt' Access All Alternates lookup 0 subtable" ampersand.sc
EndChar

StartChar: quotesingle
Encoding: 39 39 10
Width: 600
Flags: W
LayerCount: 2
Fore
SplineSet
242 456 m 1,0,-1
 222 714 l 1,1,-1
 377 714 l 1,2,-1
 358 456 l 1,3,-1
 242 456 l 1,0,-1
EndSplineSet
EndChar

StartChar: parenleft
Encoding: 40 40 11
Width: 600
Flags: W
LayerCount: 2
Fore
SplineSet
324 -171 m 1,0,1
 185 6 185 6 185 268 c 0,2,3
 185 398 185 398 220.5 512 c 128,-1,4
 256 626 256 626 324 714 c 1,5,-1
 459 714 l 1,6,7
 393 619 393 619 360.5 505.5 c 128,-1,8
 328 392 328 392 328 269 c 0,9,10
 328 26 328 26 459 -171 c 1,11,-1
 324 -171 l 1,0,1
EndSplineSet
Substitution2: "'smcp' Lowercase to Small Capitals lookup 33 subtable" parenleft.sc
Substitution2: "'c2sc' Capitals to Small Capitals lookup 32 subtable" parenleft.sc
Substitution2: "'sups' Superscript lookup 21 subtable" uni207D
Substitution2: "'subs' Subscript lookup 20 subtable" uni208D
AlternateSubs2: "'aalt' Access All Alternates lookup 1 subtable" uni208D uni207D parenleft.sc
EndChar

StartChar: asterisk
Encoding: 42 42 13
Width: 600
Flags: W
LayerCount: 2
Fore
SplineSet
377 311 m 1,0,-1
 299 450 l 1,1,-1
 225 313 l 1,2,-1
 121 375 l 1,3,-1
 218 502 l 1,4,-1
 70 523 l 1,5,-1
 97 638 l 1,6,-1
 250 596 l 1,7,-1
 235 758 l 1,8,-1
 365 758 l 1,9,-1
 349 595 l 1,10,-1
 505 640 l 1,11,-1
 530 523 l 1,12,-1
 381 502 l 1,13,-1
 480 377 l 1,14,-1
 377 311 l 1,0,-1
EndSplineSet
EndChar

StartChar: plus
Encoding: 43 43 14
Width: 600
Flags: W
LayerCount: 2
Fore
SplineSet
241 114 m 1,0,-1
 241 294 l 1,1,-1
 70 294 l 1,2,-1
 70 412 l 1,3,-1
 241 412 l 1,4,-1
 241 594 l 1,5,-1
 360 594 l 1,6,-1
 360 412 l 1,7,-1
 530 412 l 1,8,-1
 530 294 l 1,9,-1
 360 294 l 1,10,-1
 360 114 l 1,11,-1
 241 114 l 1,0,-1
EndSplineSet
Substitution2: "'sups' Superscript lookup 21 subtable" uni207A
Substitution2: "'subs' Subscript lookup 20 subtable" uni208A
AlternateSubs2: "'aalt' Access All Alternates lookup 1 subtable" uni208A uni207A
EndChar

StartChar: comma
Encoding: 44 44 15
Width: 600
Flags: W
LayerCount: 2
Fore
SplineSet
189 -158 m 1,0,1
 200 -114 200 -114 209.5 -58.5 c 128,-1,2
 219 -3 219 -3 227.5 50.5 c 128,-1,3
 236 104 236 104 241 144 c 1,4,-1
 393 144 l 1,5,-1
 400 132 l 1,6,7
 391 98 391 98 377 45.5 c 128,-1,8
 363 -7 363 -7 346.5 -62 c 128,-1,9
 330 -117 330 -117 311 -158 c 1,10,-1
 189 -158 l 1,0,1
EndSplineSet
EndChar

StartChar: hyphen
Encoding: 45 45 16
Width: 600
Flags: W
LayerCount: 2
Fore
SplineSet
150 200 m 1,0,-1
 150 337 l 1,1,-1
 450 337 l 1,2,-1
 450 200 l 1,3,-1
 150 200 l 1,0,-1
EndSplineSet
EndChar

StartChar: period
Encoding: 46 46 17
Width: 600
Flags: W
LayerCount: 2
Fore
SplineSet
301 -9 m 0,0,1
 258 -9 258 -9 231.5 13.5 c 128,-1,2
 205 36 205 36 205 81 c 0,3,4
 205 128 205 128 231.5 149.5 c 128,-1,5
 258 171 258 171 301 171 c 0,6,7
 342 171 342 171 368.5 149 c 128,-1,8
 395 127 395 127 395 81 c 0,9,10
 395 37 395 37 368.5 14 c 128,-1,11
 342 -9 342 -9 301 -9 c 0,0,1
EndSplineSet
EndChar

StartChar: slash
Encoding: 47 47 18
Width: 600
Flags: W
LayerCount: 2
Fore
SplineSet
91 -7 m 1,0,-1
 370 721 l 1,1,-1
 509 721 l 1,2,-1
 230 -7 l 1,3,-1
 91 -7 l 1,0,-1
EndSplineSet
Substitution2: "'frac' Diagonal Fractions lookup 24 subtable" fraction
Substitution2: "'aalt' Access All Alternates lookup 0 subtable" fraction
EndChar

StartChar: zero
Encoding: 48 48 19
Width: 600
Flags: W
LayerCount: 2
Fore
SplineSet
301 -10 m 0,0,1
 170 -10 170 -10 107.5 85 c 128,-1,2
 45 180 45 180 45 359 c 0,3,4
 45 539 45 539 105.5 631.5 c 128,-1,5
 166 724 166 724 298 724 c 0,6,7
 428 724 428 724 491.5 628.5 c 128,-1,8
 555 533 555 533 555 354 c 0,9,10
 555 246 555 246 531.5 164 c 128,-1,11
 508 82 508 82 452.5 36 c 128,-1,12
 397 -10 397 -10 301 -10 c 0,0,1
191 354 m 0,13,14
 191 317 191 317 193 287 c 1,15,-1
 361 566 l 1,16,17
 338 591 338 591 299 591 c 0,18,19
 238 591 238 591 214.5 530.5 c 128,-1,20
 191 470 191 470 191 354 c 0,13,14
299 121 m 0,21,22
 361 121 361 121 383.5 178.5 c 128,-1,23
 406 236 406 236 406 353 c 0,24,25
 406 397 406 397 403 431 c 1,26,-1
 231 151 l 1,27,28
 255 121 255 121 299 121 c 0,21,22
EndSplineSet
Substitution2: "'zero' Slashed Zero lookup 36 subtable" zero.slash
Substitution2: "'onum' Oldstyle Figures lookup 31 subtable" zero.osf
Substitution2: "'frac' Diagonal Fractions lookup 25 subtable" zero.numr
Substitution2: "'dnom' Denominators lookup 23 subtable" zero.dnom
Substitution2: "'numr' Numerators lookup 22 subtable" zero.numr
Substitution2: "'sups' Superscript lookup 21 subtable" uni2070
Substitution2: "'subs' Subscript lookup 20 subtable" uni2080
AlternateSubs2: "'aalt' Access All Alternates lookup 1 subtable" uni2070 zero.osf zero.dnom zero.numr uni2080
EndChar

StartChar: one
Encoding: 49 49 20
Width: 600
Flags: W
LayerCount: 2
Fore
SplineSet
104 0 m 1,0,-1
 104 114 l 1,1,-1
 241 128 l 1,2,-1
 241 391 l 2,3,4
 241 423 241 423 241.5 466.5 c 128,-1,5
 242 510 242 510 244 545 c 1,6,7
 228 534 228 534 214 525 c 128,-1,8
 200 516 200 516 187 510 c 2,9,-1
 122 474 l 1,10,-1
 55 599 l 1,11,-1
 264 714 l 1,12,-1
 400 714 l 1,13,-1
 400 128 l 1,14,-1
 535 114 l 1,15,-1
 535 0 l 1,16,-1
 104 0 l 1,0,-1
EndSplineSet
Substitution2: "'onum' Oldstyle Figures lookup 31 subtable" one.osf
Substitution2: "'frac' Diagonal Fractions lookup 25 subtable" one.numr
Substitution2: "'dnom' Denominators lookup 23 subtable" one.dnom
Substitution2: "'numr' Numerators lookup 22 subtable" one.numr
Substitution2: "'sups' Superscript lookup 21 subtable" uni00B9
Substitution2: "'subs' Subscript lookup 20 subtable" uni2081
AlternateSubs2: "'aalt' Access All Alternates lookup 1 subtable" uni00B9 one.osf one.dnom one.numr uni2081
EndChar

StartChar: two
Encoding: 50 50 21
Width: 600
Flags: W
LayerCount: 2
Fore
SplineSet
52 0 m 1,0,-1
 52 113 l 1,1,-1
 215 273 l 2,2,3
 268 324 268 324 305 362 c 128,-1,4
 342 400 342 400 362 433.5 c 128,-1,5
 382 467 382 467 382 504 c 0,6,7
 382 545 382 545 357 566.5 c 128,-1,8
 332 588 332 588 292 588 c 0,9,10
 250 588 250 588 214 568.5 c 128,-1,11
 178 549 178 549 135 510 c 1,12,-1
 48 616 l 1,13,14
 107 671 107 671 165 697.5 c 128,-1,15
 223 724 223 724 304 724 c 0,16,17
 376 724 376 724 431.5 699 c 128,-1,18
 487 674 487 674 518 628 c 128,-1,19
 549 582 549 582 549 518 c 0,20,21
 549 464 549 464 527 417.5 c 128,-1,22
 505 371 505 371 462.5 325.5 c 128,-1,23
 420 280 420 280 361 228 c 2,24,-1
 265 144 l 1,25,-1
 265 136 l 1,26,-1
 560 136 l 1,27,-1
 560 0 l 1,28,-1
 52 0 l 1,0,-1
EndSplineSet
Substitution2: "'onum' Oldstyle Figures lookup 31 subtable" two.osf
Substitution2: "'frac' Diagonal Fractions lookup 25 subtable" two.numr
Substitution2: "'dnom' Denominators lookup 23 subtable" two.dnom
Substitution2: "'numr' Numerators lookup 22 subtable" two.numr
Substitution2: "'sups' Superscript lookup 21 subtable" uni00B2
Substitution2: "'subs' Subscript lookup 20 subtable" uni2082
AlternateSubs2: "'aalt' Access All Alternates lookup 1 subtable" uni00B2 two.osf two.dnom two.numr uni2082
EndChar

StartChar: three
Encoding: 51 51 22
Width: 600
Flags: W
LayerCount: 2
Fore
SplineSet
265 -10 m 0,0,1
 218 -10 218 -10 167 0 c 128,-1,2
 116 10 116 10 67 29 c 1,3,-1
 67 166 l 1,4,5
 112 144 112 144 164 132 c 128,-1,6
 216 120 216 120 257 120 c 0,7,8
 317 120 317 120 346.5 144.5 c 128,-1,9
 376 169 376 169 376 215 c 0,10,11
 376 260 376 260 340.5 280 c 128,-1,12
 305 300 305 300 212 300 c 2,13,-1
 165 300 l 1,14,-1
 165 428 l 1,15,-1
 213 428 l 2,16,17
 297 428 297 428 332 450 c 128,-1,18
 367 472 367 472 367 516 c 0,19,20
 367 590 367 590 284 590 c 0,21,22
 250 590 250 590 212 578 c 128,-1,23
 174 566 174 566 133 543 c 1,24,-1
 65 654 l 1,25,26
 114 688 114 688 173 706 c 128,-1,27
 232 724 232 724 296 724 c 0,28,29
 359 724 359 724 408.5 705.5 c 128,-1,30
 458 687 458 687 487 648.5 c 128,-1,31
 516 610 516 610 516 551 c 0,32,33
 516 484 516 484 479 438 c 128,-1,34
 442 392 442 392 384 373 c 1,35,-1
 384 370 l 1,36,37
 457 359 457 359 497 319 c 128,-1,38
 537 279 537 279 537 208 c 256,39,40
 537 137 537 137 501.5 88.5 c 128,-1,41
 466 40 466 40 404.5 15 c 128,-1,42
 343 -10 343 -10 265 -10 c 0,0,1
EndSplineSet
Substitution2: "'onum' Oldstyle Figures lookup 31 subtable" three.osf
Substitution2: "'frac' Diagonal Fractions lookup 25 subtable" three.numr
Substitution2: "'dnom' Denominators lookup 23 subtable" three.dnom
Substitution2: "'numr' Numerators lookup 22 subtable" three.numr
Substitution2: "'sups' Superscript lookup 21 subtable" uni00B3
Substitution2: "'subs' Subscript lookup 20 subtable" uni2083
AlternateSubs2: "'aalt' Access All Alternates lookup 1 subtable" uni00B3 three.osf three.dnom three.numr uni2083
EndChar

StartChar: four
Encoding: 52 52 23
Width: 600
Flags: W
LayerCount: 2
Fore
SplineSet
323 0 m 1,0,-1
 323 145 l 1,1,-1
 35 145 l 1,2,-1
 35 264 l 1,3,-1
 326 714 l 1,4,-1
 474 714 l 1,5,-1
 474 271 l 1,6,-1
 565 271 l 1,7,-1
 565 145 l 1,8,-1
 474 145 l 1,9,-1
 474 0 l 1,10,-1
 323 0 l 1,0,-1
176 271 m 1,11,-1
 323 271 l 1,12,-1
 323 381 l 2,13,14
 323 394 323 394 324 421 c 128,-1,15
 325 448 325 448 325.5 475 c 128,-1,16
 326 502 326 502 327 515 c 1,17,-1
 323 515 l 1,18,19
 312 495 312 495 300 475.5 c 128,-1,20
 288 456 288 456 278 437 c 2,21,-1
 176 271 l 1,11,-1
EndSplineSet
Substitution2: "'onum' Oldstyle Figures lookup 31 subtable" four.osf
Substitution2: "'frac' Diagonal Fractions lookup 25 subtable" four.numr
Substitution2: "'dnom' Denominators lookup 23 subtable" four.dnom
Substitution2: "'numr' Numerators lookup 22 subtable" four.numr
Substitution2: "'sups' Superscript lookup 21 subtable" uni2074
Substitution2: "'subs' Subscript lookup 20 subtable" uni2084
AlternateSubs2: "'aalt' Access All Alternates lookup 1 subtable" uni2074 four.osf four.dnom four.numr uni2084
EndChar

StartChar: five
Encoding: 53 53 24
Width: 600
Flags: W
LayerCount: 2
Fore
SplineSet
252 -10 m 0,0,1
 203 -10 203 -10 154.5 0 c 128,-1,2
 106 10 106 10 66 29 c 1,3,-1
 66 170 l 1,4,5
 108 150 108 150 155.5 138 c 128,-1,6
 203 126 203 126 251 126 c 0,7,8
 306 126 306 126 336.5 151.5 c 128,-1,9
 367 177 367 177 367 227 c 0,10,11
 367 281 367 281 333 306 c 128,-1,12
 299 331 299 331 248 331 c 0,13,14
 220 331 220 331 190.5 326.5 c 128,-1,15
 161 322 161 322 139 314 c 1,16,-1
 78 346 l 1,17,-1
 104 714 l 1,18,-1
 493 714 l 1,19,-1
 493 578 l 1,20,-1
 253 578 l 1,21,-1
 244 452 l 1,22,23
 268 456 268 456 287.5 458 c 128,-1,24
 307 460 307 460 323 460 c 0,25,26
 419 460 419 460 476.5 401 c 128,-1,27
 534 342 534 342 534 238 c 0,28,29
 534 156 534 156 498 100.5 c 128,-1,30
 462 45 462 45 398.5 17.5 c 128,-1,31
 335 -10 335 -10 252 -10 c 0,0,1
EndSplineSet
Substitution2: "'onum' Oldstyle Figures lookup 31 subtable" five.osf
Substitution2: "'frac' Diagonal Fractions lookup 25 subtable" five.numr
Substitution2: "'dnom' Denominators lookup 23 subtable" five.dnom
Substitution2: "'numr' Numerators lookup 22 subtable" five.numr
Substitution2: "'sups' Superscript lookup 21 subtable" uni2075
Substitution2: "'subs' Subscript lookup 20 subtable" uni2085
AlternateSubs2: "'aalt' Access All Alternates lookup 1 subtable" uni2075 five.osf five.dnom five.numr uni2085
EndChar

StartChar: six
Encoding: 54 54 25
Width: 600
Flags: W
LayerCount: 2
Fore
SplineSet
309 -11 m 0,0,1
 193 -11 193 -11 121.5 71.5 c 128,-1,2
 50 154 50 154 50 315 c 0,3,4
 50 404 50 404 68.5 478.5 c 128,-1,5
 87 553 87 553 128.5 608 c 128,-1,6
 170 663 170 663 237 693 c 128,-1,7
 304 723 304 723 401 723 c 0,8,9
 425 723 425 723 452 721 c 128,-1,10
 479 719 479 719 501 715 c 1,11,-1
 501 583 l 1,12,13
 454 592 454 592 407 592 c 0,14,15
 216 592 216 592 203 387 c 1,16,-1
 208 387 l 1,17,18
 230 427 230 427 267 448.5 c 128,-1,19
 304 470 304 470 357 470 c 0,20,21
 448 470 448 470 498.5 409 c 128,-1,22
 549 348 549 348 549 241 c 0,23,24
 549 125 549 125 484.5 57 c 128,-1,25
 420 -11 420 -11 309 -11 c 0,0,1
306 127 m 0,26,27
 344 127 344 127 366 153.5 c 128,-1,28
 388 180 388 180 388 236 c 0,29,30
 388 286 388 286 369 313.5 c 128,-1,31
 350 341 350 341 308 341 c 0,32,33
 267 341 267 341 241 310.5 c 128,-1,34
 215 280 215 280 215 231 c 0,35,36
 215 184 215 184 239.5 155.5 c 128,-1,37
 264 127 264 127 306 127 c 0,26,27
EndSplineSet
Substitution2: "'onum' Oldstyle Figures lookup 31 subtable" six.osf
Substitution2: "'frac' Diagonal Fractions lookup 25 subtable" six.numr
Substitution2: "'dnom' Denominators lookup 23 subtable" six.dnom
Substitution2: "'numr' Numerators lookup 22 subtable" six.numr
Substitution2: "'sups' Superscript lookup 21 subtable" uni2076
Substitution2: "'subs' Subscript lookup 20 subtable" uni2086
AlternateSubs2: "'aalt' Access All Alternates lookup 1 subtable" uni2076 six.osf six.dnom six.numr uni2086
EndChar

StartChar: seven
Encoding: 55 55 26
Width: 600
Flags: W
LayerCount: 2
Fore
SplineSet
121 0 m 1,0,-1
 382 578 l 1,1,-1
 45 578 l 1,2,-1
 45 713 l 1,3,-1
 555 713 l 1,4,-1
 555 609 l 1,5,-1
 292 0 l 1,6,-1
 121 0 l 1,0,-1
EndSplineSet
Substitution2: "'onum' Oldstyle Figures lookup 31 subtable" seven.osf
Substitution2: "'frac' Diagonal Fractions lookup 25 subtable" seven.numr
Substitution2: "'dnom' Denominators lookup 23 subtable" seven.dnom
Substitution2: "'numr' Numerators lookup 22 subtable" seven.numr
Substitution2: "'sups' Superscript lookup 21 subtable" uni2077
Substitution2: "'subs' Subscript lookup 20 subtable" uni2087
AlternateSubs2: "'aalt' Access All Alternates lookup 1 subtable" uni2077 seven.osf seven.dnom seven.numr uni2087
EndChar

StartChar: eight
Encoding: 56 56 27
Width: 600
Flags: W
LayerCount: 2
Fore
SplineSet
297 -10 m 0,0,1
 184 -10 184 -10 119 39.5 c 128,-1,2
 54 89 54 89 54 184 c 0,3,4
 54 248 54 248 86 293 c 128,-1,5
 118 338 118 338 180 373 c 1,6,7
 128 410 128 410 102.5 453.5 c 128,-1,8
 77 497 77 497 77 552 c 0,9,10
 77 608 77 608 105.5 646 c 128,-1,11
 134 684 134 684 184.5 703.5 c 128,-1,12
 235 723 235 723 300 723 c 0,13,14
 366 723 366 723 417 703.5 c 128,-1,15
 468 684 468 684 497 646 c 128,-1,16
 526 608 526 608 526 551 c 0,17,18
 526 439 526 439 402 376 c 1,19,20
 473 336 473 336 509 290.5 c 128,-1,21
 545 245 545 245 545 184 c 256,22,23
 545 123 545 123 514 80 c 128,-1,24
 483 37 483 37 427.5 13.5 c 128,-1,25
 372 -10 372 -10 297 -10 c 0,0,1
300 448 m 1,26,27
 337 468 337 468 354.5 489 c 128,-1,28
 372 510 372 510 372 538 c 0,29,30
 372 567 372 567 351 582.5 c 128,-1,31
 330 598 330 598 301 598 c 0,32,33
 270 598 270 598 250 581.5 c 128,-1,34
 230 565 230 565 230 538 c 0,35,36
 230 507 230 507 249 487 c 128,-1,37
 268 467 268 467 300 448 c 1,26,27
298 116 m 0,38,39
 343 116 343 116 368 136 c 128,-1,40
 393 156 393 156 393 189 c 0,41,42
 393 223 393 223 366.5 248.5 c 128,-1,43
 340 274 340 274 293 302 c 1,44,45
 252 280 252 280 229.5 253 c 128,-1,46
 207 226 207 226 207 192 c 0,47,48
 207 155 207 155 230.5 135.5 c 128,-1,49
 254 116 254 116 298 116 c 0,38,39
EndSplineSet
Substitution2: "'onum' Oldstyle Figures lookup 31 subtable" eight.osf
Substitution2: "'frac' Diagonal Fractions lookup 25 subtable" eight.numr
Substitution2: "'dnom' Denominators lookup 23 subtable" eight.dnom
Substitution2: "'numr' Numerators lookup 22 subtable" eight.numr
Substitution2: "'sups' Superscript lookup 21 subtable" uni2078
Substitution2: "'subs' Subscript lookup 20 subtable" uni2088
AlternateSubs2: "'aalt' Access All Alternates lookup 1 subtable" uni2078 eight.osf eight.dnom eight.numr uni2088
EndChar

StartChar: nine
Encoding: 57 57 28
Width: 600
Flags: W
LayerCount: 2
Fore
SplineSet
197 -10 m 0,0,1
 173 -10 173 -10 146 -8.5 c 128,-1,2
 119 -7 119 -7 97 -3 c 1,3,-1
 97 130 l 1,4,5
 120 125 120 125 144 122.5 c 128,-1,6
 168 120 168 120 191 120 c 0,7,8
 292 120 292 120 341 173 c 128,-1,9
 390 226 390 226 397 326 c 1,10,-1
 391 326 l 1,11,12
 370 287 370 287 332.5 265.5 c 128,-1,13
 295 244 295 244 243 244 c 0,14,15
 152 244 152 244 101 305 c 128,-1,16
 50 366 50 366 50 472 c 0,17,18
 50 589 50 589 114.5 657 c 128,-1,19
 179 725 179 725 291 725 c 0,20,21
 368 725 368 725 426.5 688 c 128,-1,22
 485 651 485 651 517.5 579 c 128,-1,23
 550 507 550 507 550 402 c 0,24,25
 550 282 550 282 516 189 c 128,-1,26
 482 96 482 96 405 43 c 128,-1,27
 328 -10 328 -10 197 -10 c 0,0,1
292 373 m 256,28,29
 333 373 333 373 358.5 403 c 128,-1,30
 384 433 384 433 384 480 c 0,31,32
 384 528 384 528 360 557.5 c 128,-1,33
 336 587 336 587 294 587 c 0,34,35
 256 587 256 587 233.5 560 c 128,-1,36
 211 533 211 533 211 477 c 0,37,38
 211 428 211 428 231 400.5 c 128,-1,39
 251 373 251 373 292 373 c 256,28,29
EndSplineSet
Substitution2: "'onum' Oldstyle Figures lookup 31 subtable" nine.osf
Substitution2: "'frac' Diagonal Fractions lookup 25 subtable" nine.numr
Substitution2: "'dnom' Denominators lookup 23 subtable" nine.dnom
Substitution2: "'numr' Numerators lookup 22 subtable" nine.numr
Substitution2: "'sups' Superscript lookup 21 subtable" uni2079
Substitution2: "'subs' Subscript lookup 20 subtable" uni2089
AlternateSubs2: "'aalt' Access All Alternates lookup 1 subtable" uni2079 nine.osf nine.dnom nine.numr uni2089
EndChar

StartChar: colon
Encoding: 58 58 29
Width: 600
Flags: W
LayerCount: 2
Fore
SplineSet
301 378 m 0,0,1
 258 378 258 378 231.5 400 c 128,-1,2
 205 422 205 422 205 468 c 256,3,4
 205 514 205 514 231.5 535.5 c 128,-1,5
 258 557 258 557 301 557 c 0,6,7
 342 557 342 557 368.5 535.5 c 128,-1,8
 395 514 395 514 395 468 c 0,9,10
 395 423 395 423 368.5 400.5 c 128,-1,11
 342 378 342 378 301 378 c 0,0,1
301 -9 m 0,12,13
 258 -9 258 -9 231.5 13.5 c 128,-1,14
 205 36 205 36 205 81 c 0,15,16
 205 128 205 128 231.5 149.5 c 128,-1,17
 258 171 258 171 301 171 c 0,18,19
 342 171 342 171 368.5 149 c 128,-1,20
 395 127 395 127 395 81 c 0,21,22
 395 37 395 37 368.5 14 c 128,-1,23
 342 -9 342 -9 301 -9 c 0,12,13
EndSplineSet
EndChar

StartChar: semicolon
Encoding: 59 59 30
Width: 600
Flags: W
LayerCount: 2
Fore
SplineSet
321 378 m 0,0,1
 278 378 278 378 251 400 c 128,-1,2
 224 422 224 422 224 468 c 0,3,4
 224 515 224 515 251 537 c 128,-1,5
 278 559 278 559 321 559 c 0,6,7
 362 559 362 559 388.5 536.5 c 128,-1,8
 415 514 415 514 415 468 c 0,9,10
 415 423 415 423 388.5 400.5 c 128,-1,11
 362 378 362 378 321 378 c 0,0,1
186 -158 m 1,12,13
 196 -114 196 -114 206 -58.5 c 128,-1,14
 216 -3 216 -3 224 50.5 c 128,-1,15
 232 104 232 104 237 143 c 1,16,-1
 389 143 l 1,17,-1
 396 132 l 1,18,19
 388 98 388 98 374 45.5 c 128,-1,20
 360 -7 360 -7 343 -62 c 128,-1,21
 326 -117 326 -117 307 -158 c 1,22,-1
 186 -158 l 1,12,13
EndSplineSet
EndChar

StartChar: equal
Encoding: 61 61 32
Width: 600
Flags: W
LayerCount: 2
Fore
SplineSet
70 388 m 1,0,-1
 70 518 l 1,1,-1
 530 518 l 1,2,-1
 530 388 l 1,3,-1
 70 388 l 1,0,-1
70 168 m 1,4,-1
 70 297 l 1,5,-1
 530 297 l 1,6,-1
 530 168 l 1,7,-1
 70 168 l 1,4,-1
EndSplineSet
Substitution2: "'sups' Superscript lookup 21 subtable" uni207C
Substitution2: "'subs' Subscript lookup 20 subtable" uni208C
AlternateSubs2: "'aalt' Access All Alternates lookup 1 subtable" uni208C uni207C
EndChar

StartChar: greater
Encoding: 62 62 33
Width: 600
Flags: W
LayerCount: 2
Fore
SplineSet
83 105 m 1,0,-1
 83 235 l 1,1,-1
 353 357 l 1,2,-1
 83 486 l 1,3,-1
 83 617 l 1,4,-1
 517 393 l 1,5,-1
 517 316 l 1,6,-1
 83 105 l 1,0,-1
EndSplineSet
EndChar

StartChar: question
Encoding: 63 63 34
Width: 600
Flags: W
LayerCount: 2
Fore
SplineSet
203 244 m 1,0,-1
 203 283 l 2,1,2
 203 332 203 332 223.5 365.5 c 128,-1,3
 244 399 244 399 294 433 c 0,4,5
 334 460 334 460 350 483 c 128,-1,6
 366 506 366 506 366 535 c 0,7,8
 366 562 366 562 346.5 577 c 128,-1,9
 327 592 327 592 295 592 c 0,10,11
 260 592 260 592 222 579 c 128,-1,12
 184 566 184 566 135 540 c 1,13,-1
 75 659 l 1,14,15
 131 690 131 690 187 707 c 128,-1,16
 243 724 243 724 307 724 c 0,17,18
 404 724 404 724 464.5 677 c 128,-1,19
 525 630 525 630 525 547 c 0,20,21
 525 485 525 485 499.5 444.5 c 128,-1,22
 474 404 474 404 416 364 c 0,23,24
 378 338 378 338 363 319.5 c 128,-1,25
 348 301 348 301 348 271 c 2,26,-1
 348 244 l 1,27,-1
 203 244 l 1,0,-1
277 -11 m 0,28,29
 234 -11 234 -11 207 11.5 c 128,-1,30
 180 34 180 34 180 79 c 0,31,32
 180 126 180 126 207 148 c 128,-1,33
 234 170 234 170 277 170 c 0,34,35
 318 170 318 170 344.5 148 c 128,-1,36
 371 126 371 126 371 79 c 0,37,38
 371 35 371 35 344.5 12 c 128,-1,39
 318 -11 318 -11 277 -11 c 0,28,29
EndSplineSet
Substitution2: "'smcp' Lowercase to Small Capitals lookup 33 subtable" question.sc
Substitution2: "'c2sc' Capitals to Small Capitals lookup 32 subtable" question.sc
Substitution2: "'aalt' Access All Alternates lookup 0 subtable" question.sc
EndChar

StartChar: at
Encoding: 64 64 35
Width: 600
Flags: W
LayerCount: 2
Fore
SplineSet
320 -89 m 0,0,1
 220 -89 220 -89 148 -43.5 c 128,-1,2
 76 2 76 2 38 85.5 c 128,-1,3
 0 169 0 169 0 284 c 0,4,5
 0 409 0 409 39 506 c 128,-1,6
 78 603 78 603 150 658.5 c 128,-1,7
 222 714 222 714 322 714 c 0,8,9
 405 714 405 714 467.5 670.5 c 128,-1,10
 530 627 530 627 565 549 c 128,-1,11
 600 471 600 471 600 367 c 0,12,13
 600 299 600 299 584 240 c 128,-1,14
 568 181 568 181 536 144.5 c 128,-1,15
 504 108 504 108 456 108 c 0,16,17
 397 108 397 108 374 165 c 1,18,-1
 370 165 l 1,19,20
 354 140 354 140 331 124 c 128,-1,21
 308 108 308 108 276 108 c 0,22,23
 216 108 216 108 183.5 160.5 c 128,-1,24
 151 213 151 213 151 298 c 0,25,26
 151 362 151 362 170.5 412.5 c 128,-1,27
 190 463 190 463 228 491.5 c 128,-1,28
 266 520 266 520 320 520 c 0,29,30
 356 520 356 520 390 511 c 128,-1,31
 424 502 424 502 451 492 c 1,32,-1
 442 297 l 2,33,34
 441 289 441 289 441 279.5 c 128,-1,35
 441 270 441 270 441 262 c 0,36,37
 440 227 440 227 446 213.5 c 128,-1,38
 452 200 452 200 462 200 c 0,39,40
 474 200 474 200 483 222 c 128,-1,41
 492 244 492 244 497.5 280.5 c 128,-1,42
 503 317 503 317 503 362 c 0,43,44
 503 489 503 489 454.5 556.5 c 128,-1,45
 406 624 406 624 323 624 c 0,46,47
 253 624 253 624 202.5 581 c 128,-1,48
 152 538 152 538 125 463 c 128,-1,49
 98 388 98 388 98 291 c 0,50,51
 98 154 98 154 154 77.5 c 128,-1,52
 210 1 210 1 318 1 c 0,53,54
 364 1 364 1 409 11.5 c 128,-1,55
 454 22 454 22 495 40 c 1,56,-1
 495 -49 l 1,57,58
 458 -68 458 -68 414 -78.5 c 128,-1,59
 370 -89 370 -89 320 -89 c 0,0,1
290 200 m 0,60,61
 317 200 317 200 329 236 c 128,-1,62
 341 272 341 272 344 337 c 2,63,-1
 348 423 l 1,64,65
 337 427 337 427 324 427 c 0,66,67
 297 427 297 427 280.5 409 c 128,-1,68
 264 391 264 391 257 361.5 c 128,-1,69
 250 332 250 332 250 297 c 0,70,71
 250 246 250 246 260 223 c 128,-1,72
 270 200 270 200 290 200 c 0,60,61
EndSplineSet
EndChar

StartChar: A
Encoding: 65 65 36
Width: 600
GlyphClass: 2
Flags: W
AnchorPoint: "Anchor-4" 580 714 basechar 0
AnchorPoint: "Anchor-3" 300 714 basechar 0
AnchorPoint: "Anchor-2" 540 10 basechar 0
AnchorPoint: "Anchor-0" 300 0 basechar 0
LayerCount: 2
Fore
SplineSet
8 0 m 1,0,-1
 197 717 l 1,1,-1
 402 717 l 1,2,-1
 592 0 l 1,3,-1
 434 0 l 1,4,-1
 397 163 l 1,5,-1
 201 163 l 1,6,-1
 162 0 l 1,7,-1
 8 0 l 1,0,-1
269 450 m 2,8,-1
 232 293 l 1,9,-1
 368 293 l 1,10,-1
 333 450 l 2,11,12
 325 486 325 486 316.5 527 c 128,-1,13
 308 568 308 568 301 602 c 1,14,15
 294 568 294 568 285.5 527 c 128,-1,16
 277 486 277 486 269 450 c 2,8,-1
EndSplineSet
Substitution2: "'c2sc' Capitals to Small Capitals lookup 32 subtable" a.sc
Substitution2: "Single Substitution lookup 30 subtable" ordfeminine
AlternateSubs2: "'aalt' Access All Alternates lookup 1 subtable" ordfeminine a.sc
EndChar

StartChar: B
Encoding: 66 66 37
Width: 600
GlyphClass: 2
Flags: W
AnchorPoint: "Anchor-4" 580 714 basechar 0
AnchorPoint: "Anchor-3" 300 714 basechar 0
AnchorPoint: "Anchor-0" 300 0 basechar 0
LayerCount: 2
Fore
SplineSet
71 0 m 1,0,-1
 71 714 l 1,1,-1
 302 714 l 2,2,3
 426 714 426 714 488.5 671.5 c 128,-1,4
 551 629 551 629 551 539 c 0,5,6
 551 471 551 471 520 430.5 c 128,-1,7
 489 390 489 390 445 379 c 1,8,-1
 445 374 l 1,9,10
 497 360 497 360 531 322 c 128,-1,11
 565 284 565 284 565 210 c 0,12,13
 565 111 565 111 501.5 55.5 c 128,-1,14
 438 0 438 0 326 0 c 2,15,-1
 71 0 l 1,0,-1
216 433 m 1,16,-1
 302 433 l 2,17,18
 352 433 352 433 374 454 c 128,-1,19
 396 475 396 475 396 512 c 0,20,21
 396 550 396 550 373 568 c 128,-1,22
 350 586 350 586 297 586 c 2,23,-1
 216 586 l 1,24,-1
 216 433 l 1,16,-1
216 128 m 1,25,-1
 312 128 l 2,26,27
 364 128 364 128 385.5 154 c 128,-1,28
 407 180 407 180 407 220 c 256,29,30
 407 260 407 260 385 284 c 128,-1,31
 363 308 363 308 308 308 c 2,32,-1
 216 308 l 1,33,-1
 216 128 l 1,25,-1
EndSplineSet
Substitution2: "'c2sc' Capitals to Small Capitals lookup 32 subtable" b.sc
Substitution2: "'aalt' Access All Alternates lookup 0 subtable" b.sc
EndChar

StartChar: C
Encoding: 67 67 38
Width: 600
GlyphClass: 2
Flags: W
AnchorPoint: "Anchor-4" 580 714 basechar 0
AnchorPoint: "Anchor-3" 355 714 basechar 0
AnchorPoint: "Anchor-0" 338 0 basechar 0
LayerCount: 2
Fore
SplineSet
343 -10 m 0,0,1
 242 -10 242 -10 176 34 c 128,-1,2
 110 78 110 78 77.5 157.5 c 128,-1,3
 45 237 45 237 45 345 c 0,4,5
 45 464 45 464 84.5 548.5 c 128,-1,6
 124 633 124 633 200 678.5 c 128,-1,7
 276 724 276 724 383 724 c 0,8,9
 432 724 432 724 475 714 c 128,-1,10
 518 704 518 704 562 684 c 1,11,-1
 515 552 l 1,12,13
 478 570 478 570 445 577 c 128,-1,14
 412 584 412 584 382 584 c 0,15,16
 316 584 316 584 277.5 555 c 128,-1,17
 239 526 239 526 222.5 473 c 128,-1,18
 206 420 206 420 206 348 c 0,19,20
 206 234 206 234 245 181.5 c 128,-1,21
 284 129 284 129 369 129 c 0,22,23
 406 129 406 129 448 139.5 c 128,-1,24
 490 150 490 150 535 173 c 1,25,-1
 535 29 l 1,26,27
 489 9 489 9 440 -0.5 c 128,-1,28
 391 -10 391 -10 343 -10 c 0,0,1
EndSplineSet
Substitution2: "'c2sc' Capitals to Small Capitals lookup 32 subtable" c.sc
Substitution2: "'aalt' Access All Alternates lookup 0 subtable" c.sc
EndChar

StartChar: D
Encoding: 68 68 39
Width: 600
GlyphClass: 2
Flags: W
AnchorPoint: "Anchor-4" 600 714 basechar 0
AnchorPoint: "Anchor-3" 284 714 basechar 0
AnchorPoint: "Anchor-1" 307 357 basechar 0
AnchorPoint: "Anchor-0" 249 0 basechar 0
LayerCount: 2
Fore
SplineSet
43 0 m 1,0,-1
 43 714 l 1,1,-1
 261 714 l 2,2,3
 407 714 407 714 491 625.5 c 128,-1,4
 575 537 575 537 575 367 c 0,5,6
 575 248 575 248 535 166 c 128,-1,7
 495 84 495 84 422 42 c 128,-1,8
 349 0 349 0 249 0 c 2,9,-1
 43 0 l 1,0,-1
196 133 m 1,10,-1
 246 133 l 2,11,12
 332 133 332 133 373 190.5 c 128,-1,13
 414 248 414 248 414 363 c 0,14,15
 414 476 414 476 374.5 528.5 c 128,-1,16
 335 581 335 581 257 581 c 2,17,-1
 196 581 l 1,18,-1
 196 133 l 1,10,-1
EndSplineSet
Substitution2: "'c2sc' Capitals to Small Capitals lookup 32 subtable" d.sc
Substitution2: "'aalt' Access All Alternates lookup 0 subtable" d.sc
EndChar

StartChar: E
Encoding: 69 69 40
Width: 600
GlyphClass: 2
Flags: W
AnchorPoint: "Anchor-4" 580 714 basechar 0
AnchorPoint: "Anchor-3" 304 714 basechar 0
AnchorPoint: "Anchor-2" 464 10 basechar 0
AnchorPoint: "Anchor-0" 304 0 basechar 0
LayerCount: 2
Fore
SplineSet
71 0 m 1,0,-1
 71 714 l 1,1,-1
 535 714 l 1,2,-1
 535 577 l 1,3,-1
 225 577 l 1,4,-1
 225 437 l 1,5,-1
 521 437 l 1,6,-1
 521 301 l 1,7,-1
 225 301 l 1,8,-1
 225 137 l 1,9,-1
 535 137 l 1,10,-1
 535 0 l 1,11,-1
 71 0 l 1,0,-1
EndSplineSet
Substitution2: "'c2sc' Capitals to Small Capitals lookup 32 subtable" e.sc
Substitution2: "'aalt' Access All Alternates lookup 0 subtable" e.sc
EndChar

StartChar: F
Encoding: 70 70 41
Width: 600
GlyphClass: 2
Flags: W
AnchorPoint: "Anchor-4" 580 714 basechar 0
AnchorPoint: "Anchor-3" 311 714 basechar 0
AnchorPoint: "Anchor-0" 311 0 basechar 0
LayerCount: 2
Fore
SplineSet
71 0 m 1,0,-1
 71 714 l 1,1,-1
 535 714 l 1,2,-1
 535 577 l 1,3,-1
 225 577 l 1,4,-1
 225 409 l 1,5,-1
 521 409 l 1,6,-1
 521 272 l 1,7,-1
 225 272 l 1,8,-1
 225 0 l 1,9,-1
 71 0 l 1,0,-1
EndSplineSet
Substitution2: "'c2sc' Capitals to Small Capitals lookup 32 subtable" f.sc
Substitution2: "'aalt' Access All Alternates lookup 0 subtable" f.sc
EndChar

StartChar: G
Encoding: 71 71 42
Width: 600
GlyphClass: 2
Flags: W
AnchorPoint: "Anchor-4" 580 714 basechar 0
AnchorPoint: "Anchor-3" 328 714 basechar 0
AnchorPoint: "Anchor-0" 337 0 basechar 0
LayerCount: 2
Fore
SplineSet
348 -10 m 0,0,1
 183 -10 183 -10 104 86 c 128,-1,2
 25 182 25 182 25 349 c 0,3,4
 25 525 25 525 109 624.5 c 128,-1,5
 193 724 193 724 352 724 c 0,6,7
 410 724 410 724 461 711.5 c 128,-1,8
 512 699 512 699 553 680 c 1,9,-1
 505 552 l 1,10,11
 440 587 440 587 368 587 c 0,12,13
 276 587 276 587 229.5 526.5 c 128,-1,14
 183 466 183 466 183 353 c 0,15,16
 183 251 183 251 223 189 c 128,-1,17
 263 127 263 127 346 127 c 0,18,19
 380 127 380 127 414 136 c 1,20,-1
 414 281 l 1,21,-1
 323 281 l 1,22,-1
 323 409 l 1,23,-1
 557 409 l 1,24,-1
 557 32 l 1,25,26
 503 9 503 9 453.5 -0.5 c 128,-1,27
 404 -10 404 -10 348 -10 c 0,0,1
EndSplineSet
Substitution2: "'c2sc' Capitals to Small Capitals lookup 32 subtable" g.sc
Substitution2: "'aalt' Access All Alternates lookup 0 subtable" g.sc
EndChar

StartChar: H
Encoding: 72 72 43
Width: 600
GlyphClass: 2
Flags: W
AnchorPoint: "Anchor-4" 600 714 basechar 0
AnchorPoint: "Anchor-3" 300 714 basechar 0
AnchorPoint: "Anchor-1" 300 374 basechar 0
AnchorPoint: "Anchor-0" 300 0 basechar 0
LayerCount: 2
Fore
SplineSet
43 0 m 1,0,-1
 43 714 l 1,1,-1
 202 714 l 1,2,-1
 202 441 l 1,3,-1
 398 441 l 1,4,-1
 398 714 l 1,5,-1
 557 714 l 1,6,-1
 557 0 l 1,7,-1
 398 0 l 1,8,-1
 398 304 l 1,9,-1
 202 304 l 1,10,-1
 202 0 l 1,11,-1
 43 0 l 1,0,-1
EndSplineSet
Substitution2: "'c2sc' Capitals to Small Capitals lookup 32 subtable" h.sc
Substitution2: "'aalt' Access All Alternates lookup 0 subtable" h.sc
EndChar

StartChar: I
Encoding: 73 73 44
Width: 600
GlyphClass: 2
Flags: W
AnchorPoint: "Anchor-4" 580 714 basechar 0
AnchorPoint: "Anchor-3" 300 714 basechar 0
AnchorPoint: "Anchor-2" 393 10 basechar 0
AnchorPoint: "Anchor-0" 300 0 basechar 0
LayerCount: 2
Fore
SplineSet
81 0 m 1,0,-1
 81 112 l 1,1,-1
 223 128 l 1,2,-1
 223 586 l 1,3,-1
 81 602 l 1,4,-1
 81 714 l 1,5,-1
 519 714 l 1,6,-1
 519 602 l 1,7,-1
 375 586 l 1,8,-1
 375 128 l 1,9,-1
 519 112 l 1,10,-1
 519 0 l 1,11,-1
 81 0 l 1,0,-1
EndSplineSet
Substitution2: "'c2sc' Capitals to Small Capitals lookup 32 subtable" i.sc
Substitution2: "'aalt' Access All Alternates lookup 0 subtable" i.sc
EndChar

StartChar: J
Encoding: 74 74 45
Width: 600
GlyphClass: 2
Flags: W
AnchorPoint: "Anchor-4" 580 714 basechar 0
AnchorPoint: "Anchor-3" 422 714 basechar 0
AnchorPoint: "Anchor-0" 300 0 basechar 0
LayerCount: 2
Fore
SplineSet
241 -10 m 0,0,1
 205 -10 205 -10 162 -5.5 c 128,-1,2
 119 -1 119 -1 76 9 c 1,3,-1
 76 147 l 1,4,5
 125 136 125 136 163 132 c 128,-1,6
 201 128 201 128 223 128 c 0,7,8
 292 128 292 128 319 162 c 128,-1,9
 346 196 346 196 346 266 c 2,10,-1
 346 714 l 1,11,-1
 502 714 l 1,12,-1
 502 256 l 2,13,14
 502 121 502 121 442 55.5 c 128,-1,15
 382 -10 382 -10 241 -10 c 0,0,1
EndSplineSet
Substitution2: "'c2sc' Capitals to Small Capitals lookup 32 subtable" j.sc
Substitution2: "'aalt' Access All Alternates lookup 0 subtable" j.sc
EndChar

StartChar: K
Encoding: 75 75 46
Width: 600
GlyphClass: 2
Flags: W
AnchorPoint: "Anchor-4" 580 714 basechar 0
AnchorPoint: "Anchor-3" 300 714 basechar 0
AnchorPoint: "Anchor-0" 306 0 basechar 0
LayerCount: 2
Fore
SplineSet
43 0 m 1,0,-1
 43 714 l 1,1,-1
 198 714 l 1,2,-1
 198 379 l 1,3,4
 211 407 211 407 224 430 c 128,-1,5
 237 453 237 453 251 476 c 2,6,-1
 398 714 l 1,7,-1
 570 714 l 1,8,-1
 358 395 l 1,9,-1
 566 0 l 1,10,-1
 390 0 l 1,11,-1
 252 278 l 1,12,-1
 198 228 l 1,13,-1
 198 0 l 1,14,-1
 43 0 l 1,0,-1
EndSplineSet
Substitution2: "'c2sc' Capitals to Small Capitals lookup 32 subtable" k.sc
Substitution2: "'aalt' Access All Alternates lookup 0 subtable" k.sc
EndChar

StartChar: L
Encoding: 76 76 47
Width: 600
GlyphClass: 2
Flags: W
AnchorPoint: "Anchor-4" 460 714 basechar 0
AnchorPoint: "Anchor-3" 160 714 basechar 0
AnchorPoint: "Anchor-1" 300 357 basechar 0
AnchorPoint: "Anchor-0" 325 0 basechar 0
LayerCount: 2
Fore
SplineSet
83 0 m 1,0,-1
 83 714 l 1,1,-1
 242 714 l 1,2,-1
 242 140 l 1,3,-1
 535 140 l 1,4,-1
 535 0 l 1,5,-1
 83 0 l 1,0,-1
EndSplineSet
Substitution2: "'c2sc' Capitals to Small Capitals lookup 32 subtable" l.sc
Substitution2: "'aalt' Access All Alternates lookup 0 subtable" l.sc
EndChar

StartChar: M
Encoding: 77 77 48
Width: 600
GlyphClass: 2
Flags: W
AnchorPoint: "Anchor-4" 600 714 basechar 0
AnchorPoint: "Anchor-3" 300 714 basechar 0
AnchorPoint: "Anchor-0" 300 0 basechar 0
LayerCount: 2
Fore
SplineSet
35 0 m 1,0,-1
 35 714 l 1,1,-1
 245 714 l 1,2,-1
 297 309 l 1,3,-1
 300 309 l 1,4,-1
 359 714 l 1,5,-1
 564 714 l 1,6,-1
 564 0 l 1,7,-1
 425 0 l 1,8,-1
 425 162 l 2,9,10
 425 189 425 189 427.5 234.5 c 128,-1,11
 430 280 430 280 433.5 332.5 c 128,-1,12
 437 385 437 385 440.5 435 c 128,-1,13
 444 485 444 485 447 521 c 128,-1,14
 450 557 450 557 450 568 c 1,15,-1
 445 568 l 1,16,-1
 376 163 l 1,17,-1
 224 163 l 1,18,-1
 151 569 l 1,19,-1
 145 569 l 1,20,21
 146 556 146 556 149 519.5 c 128,-1,22
 152 483 152 483 156 433.5 c 128,-1,23
 160 384 160 384 164 331 c 128,-1,24
 168 278 168 278 170.5 232 c 128,-1,25
 173 186 173 186 173 157 c 2,26,-1
 173 0 l 1,27,-1
 35 0 l 1,0,-1
EndSplineSet
Substitution2: "'c2sc' Capitals to Small Capitals lookup 32 subtable" m.sc
Substitution2: "'aalt' Access All Alternates lookup 0 subtable" m.sc
EndChar

StartChar: N
Encoding: 78 78 49
Width: 600
GlyphClass: 2
Flags: W
AnchorPoint: "Anchor-4" 600 714 basechar 0
AnchorPoint: "Anchor-3" 305 714 basechar 0
AnchorPoint: "Anchor-0" 300 0 basechar 0
LayerCount: 2
Fore
SplineSet
43 0 m 1,0,-1
 43 714 l 1,1,-1
 258 714 l 1,2,-1
 422 147 l 1,3,-1
 425 147 l 1,4,5
 420 216 420 216 417.5 272 c 128,-1,6
 415 328 415 328 415 365 c 2,7,-1
 415 714 l 1,8,-1
 557 714 l 1,9,-1
 557 0 l 1,10,-1
 344 0 l 1,11,-1
 178 567 l 1,12,-1
 174 567 l 1,13,14
 180 482 180 482 182.5 430 c 128,-1,15
 185 378 185 378 185 343 c 2,16,-1
 185 0 l 1,17,-1
 43 0 l 1,0,-1
EndSplineSet
Substitution2: "'c2sc' Capitals to Small Capitals lookup 32 subtable" n.sc
Substitution2: "'aalt' Access All Alternates lookup 0 subtable" n.sc
EndChar

StartChar: O
Encoding: 79 79 50
Width: 600
GlyphClass: 2
Flags: W
AnchorPoint: "Anchor-4" 600 714 basechar 0
AnchorPoint: "Anchor-3" 300 714 basechar 0
AnchorPoint: "Anchor-2" 296 10 basechar 0
AnchorPoint: "Anchor-1" 300 357 basechar 0
AnchorPoint: "Anchor-0" 300 0 basechar 0
LayerCount: 2
Fore
SplineSet
300 -10 m 0,0,1
 158 -10 158 -10 91.5 86 c 128,-1,2
 25 182 25 182 25 358 c 256,3,4
 25 534 25 534 92 630 c 128,-1,5
 159 726 159 726 300 726 c 0,6,7
 442 726 442 726 508.5 629 c 128,-1,8
 575 532 575 532 575 358 c 256,9,10
 575 184 575 184 509 87 c 128,-1,11
 443 -10 443 -10 300 -10 c 0,0,1
300 127 m 256,12,13
 361 127 361 127 387 184 c 128,-1,14
 413 241 413 241 413 359 c 0,15,16
 413 474 413 474 387.5 531.5 c 128,-1,17
 362 589 362 589 300 589 c 0,18,19
 239 589 239 589 213 532.5 c 128,-1,20
 187 476 187 476 187 358 c 256,21,22
 187 240 187 240 213 183.5 c 128,-1,23
 239 127 239 127 300 127 c 256,12,13
EndSplineSet
Substitution2: "'c2sc' Capitals to Small Capitals lookup 32 subtable" o.sc
Substitution2: "Single Substitution lookup 30 subtable" ordmasculine
AlternateSubs2: "'aalt' Access All Alternates lookup 1 subtable" ordmasculine o.sc
EndChar

StartChar: P
Encoding: 80 80 51
Width: 600
GlyphClass: 2
Flags: W
AnchorPoint: "Anchor-4" 600 714 basechar 0
AnchorPoint: "Anchor-3" 300 714 basechar 0
AnchorPoint: "Anchor-0" 300 0 basechar 0
LayerCount: 2
Fore
SplineSet
71 0 m 1,0,-1
 71 714 l 1,1,-1
 320 714 l 2,2,3
 443 714 443 714 504 655.5 c 128,-1,4
 565 597 565 597 565 489 c 0,5,6
 565 420 565 420 539.5 365 c 128,-1,7
 514 310 514 310 458.5 278 c 128,-1,8
 403 246 403 246 313 246 c 2,9,-1
 222 246 l 1,10,-1
 222 0 l 1,11,-1
 71 0 l 1,0,-1
222 379 m 1,12,-1
 296 379 l 2,13,14
 406 379 406 379 406 485 c 0,15,16
 406 532 406 532 383 556.5 c 128,-1,17
 360 581 360 581 307 581 c 2,18,-1
 222 581 l 1,19,-1
 222 379 l 1,12,-1
EndSplineSet
Substitution2: "'c2sc' Capitals to Small Capitals lookup 32 subtable" p.sc
Substitution2: "'aalt' Access All Alternates lookup 0 subtable" p.sc
EndChar

StartChar: Q
Encoding: 81 81 52
Width: 600
GlyphClass: 2
Flags: W
AnchorPoint: "Anchor-4" 600 714 basechar 0
AnchorPoint: "Anchor-3" 300 714 basechar 0
AnchorPoint: "Anchor-2" 296 10 basechar 0
AnchorPoint: "Anchor-1" 300 357 basechar 0
AnchorPoint: "Anchor-0" 300 -220 basechar 0
LayerCount: 2
Fore
SplineSet
300 -10 m 0,0,1
 158 -10 158 -10 91.5 86 c 128,-1,2
 25 182 25 182 25 358 c 256,3,4
 25 534 25 534 92 630 c 128,-1,5
 159 726 159 726 300 726 c 0,6,7
 442 726 442 726 508.5 629 c 128,-1,8
 575 532 575 532 575 358 c 0,9,10
 575 241 575 241 545.5 157.5 c 128,-1,11
 516 74 516 74 453 32 c 1,12,-1
 564 -180 l 1,13,-1
 396 -180 l 1,14,-1
 314 -10 l 1,15,16
 307 -10 307 -10 300 -10 c 0,0,1
300 127 m 256,17,18
 361 127 361 127 387 184 c 128,-1,19
 413 241 413 241 413 359 c 0,20,21
 413 474 413 474 387.5 531.5 c 128,-1,22
 362 589 362 589 300 589 c 0,23,24
 239 589 239 589 213 532.5 c 128,-1,25
 187 476 187 476 187 358 c 256,26,27
 187 240 187 240 213 183.5 c 128,-1,28
 239 127 239 127 300 127 c 256,17,18
EndSplineSet
Substitution2: "'c2sc' Capitals to Small Capitals lookup 32 subtable" q.sc
Substitution2: "'aalt' Access All Alternates lookup 0 subtable" q.sc
EndChar

StartChar: R
Encoding: 82 82 53
Width: 600
GlyphClass: 2
Flags: W
AnchorPoint: "Anchor-4" 580 714 basechar 0
AnchorPoint: "Anchor-3" 300 714 basechar 0
AnchorPoint: "Anchor-0" 324 0 basechar 0
LayerCount: 2
Fore
SplineSet
71 0 m 1,0,-1
 71 714 l 1,1,-1
 277 714 l 2,2,3
 407 714 407 714 472.5 659 c 128,-1,4
 538 604 538 604 538 503 c 0,5,6
 538 432 538 432 508 384.5 c 128,-1,7
 478 337 478 337 422 306 c 1,8,-1
 590 0 l 1,9,-1
 421 0 l 1,10,-1
 288 264 l 1,11,-1
 225 264 l 1,12,-1
 225 0 l 1,13,-1
 71 0 l 1,0,-1
225 397 m 1,14,-1
 275 397 l 2,15,16
 324 397 324 397 353.5 420.5 c 128,-1,17
 383 444 383 444 383 493 c 0,18,19
 383 539 383 539 356 560 c 128,-1,20
 329 581 329 581 276 581 c 2,21,-1
 225 581 l 1,22,-1
 225 397 l 1,14,-1
EndSplineSet
Substitution2: "'c2sc' Capitals to Small Capitals lookup 32 subtable" r.sc
Substitution2: "'aalt' Access All Alternates lookup 0 subtable" r.sc
EndChar

StartChar: S
Encoding: 83 83 54
Width: 600
GlyphClass: 2
Flags: W
AnchorPoint: "Anchor-4" 580 714 basechar 0
AnchorPoint: "Anchor-3" 315 714 basechar 0
AnchorPoint: "Anchor-0" 300 0 basechar 0
LayerCount: 2
Fore
SplineSet
275 -10 m 0,0,1
 220 -10 220 -10 168.5 0.5 c 128,-1,2
 117 11 117 11 65 34 c 1,3,-1
 65 183 l 1,4,5
 124 151 124 151 177 137.5 c 128,-1,6
 230 124 230 124 279 124 c 0,7,8
 327 124 327 124 356.5 138.5 c 128,-1,9
 386 153 386 153 386 193 c 0,10,11
 386 222 386 222 369.5 238.5 c 128,-1,12
 353 255 353 255 321.5 270.5 c 128,-1,13
 290 286 290 286 244 312 c 0,14,15
 194 340 194 340 156.5 369 c 128,-1,16
 119 398 119 398 99 436.5 c 128,-1,17
 79 475 79 475 79 531 c 0,18,19
 79 626 79 626 139.5 675 c 128,-1,20
 200 724 200 724 318 724 c 0,21,22
 374 724 374 724 431.5 712.5 c 128,-1,23
 489 701 489 701 541 676 c 1,24,-1
 491 551 l 1,25,26
 443 573 443 573 402.5 581.5 c 128,-1,27
 362 590 362 590 330 590 c 0,28,29
 287 590 287 590 264 574 c 128,-1,30
 241 558 241 558 241 523 c 0,31,32
 241 498 241 498 253.5 482.5 c 128,-1,33
 266 467 266 467 294.5 451.5 c 128,-1,34
 323 436 323 436 372 411 c 0,35,36
 424 384 424 384 464 357.5 c 128,-1,37
 504 331 504 331 526.5 293.5 c 128,-1,38
 549 256 549 256 549 199 c 0,39,40
 549 106 549 106 482.5 48 c 128,-1,41
 416 -10 416 -10 275 -10 c 0,0,1
EndSplineSet
Substitution2: "'c2sc' Capitals to Small Capitals lookup 32 subtable" s.sc
Substitution2: "'aalt' Access All Alternates lookup 0 subtable" s.sc
EndChar

StartChar: T
Encoding: 84 84 55
Width: 600
GlyphClass: 2
Flags: W
AnchorPoint: "Anchor-4" 580 714 basechar 0
AnchorPoint: "Anchor-3" 300 714 basechar 0
AnchorPoint: "Anchor-1" 300 357 basechar 0
AnchorPoint: "Anchor-0" 300 0 basechar 0
LayerCount: 2
Fore
SplineSet
220 0 m 1,0,-1
 220 577 l 1,1,-1
 25 577 l 1,2,-1
 25 714 l 1,3,-1
 575 714 l 1,4,-1
 575 577 l 1,5,-1
 379 577 l 1,6,-1
 379 0 l 1,7,-1
 220 0 l 1,0,-1
EndSplineSet
Substitution2: "'c2sc' Capitals to Small Capitals lookup 32 subtable" t.sc
Substitution2: "'aalt' Access All Alternates lookup 0 subtable" t.sc
EndChar

StartChar: U
Encoding: 85 85 56
Width: 600
GlyphClass: 2
Flags: W
AnchorPoint: "Anchor-4" 580 714 basechar 0
AnchorPoint: "Anchor-3" 300 714 basechar 0
AnchorPoint: "Anchor-2" 540 10 basechar 0
AnchorPoint: "Anchor-0" 300 0 basechar 0
LayerCount: 2
Fore
SplineSet
299 -10 m 0,0,1
 177 -10 177 -10 110 57.5 c 128,-1,2
 43 125 43 125 43 250 c 2,3,-1
 43 714 l 1,4,-1
 202 714 l 1,5,-1
 202 270 l 2,6,7
 202 192 202 192 225.5 160.5 c 128,-1,8
 249 129 249 129 299 129 c 256,9,10
 349 129 349 129 373.5 161 c 128,-1,11
 398 193 398 193 398 271 c 2,12,-1
 398 714 l 1,13,-1
 557 714 l 1,14,-1
 557 253 l 2,15,16
 557 131 557 131 491.5 60.5 c 128,-1,17
 426 -10 426 -10 299 -10 c 0,0,1
EndSplineSet
Substitution2: "'c2sc' Capitals to Small Capitals lookup 32 subtable" u.sc
Substitution2: "'aalt' Access All Alternates lookup 0 subtable" u.sc
EndChar

StartChar: V
Encoding: 86 86 57
Width: 600
GlyphClass: 2
Flags: W
AnchorPoint: "Anchor-4" 580 714 basechar 0
AnchorPoint: "Anchor-3" 300 714 basechar 0
AnchorPoint: "Anchor-0" 300 0 basechar 0
LayerCount: 2
Fore
SplineSet
204 0 m 1,0,-1
 8 714 l 1,1,-1
 167 714 l 1,2,-1
 267 294 l 2,3,4
 272 276 272 276 278 246.5 c 128,-1,5
 284 217 284 217 290 187 c 128,-1,6
 296 157 296 157 299 135 c 1,7,-1
 307 135 l 1,8,9
 310 157 310 157 315 187 c 128,-1,10
 320 217 320 217 326 246 c 128,-1,11
 332 275 332 275 336 294 c 2,12,-1
 432 714 l 1,13,-1
 592 714 l 1,14,-1
 397 0 l 1,15,-1
 204 0 l 1,0,-1
EndSplineSet
Substitution2: "'c2sc' Capitals to Small Capitals lookup 32 subtable" v.sc
Substitution2: "'aalt' Access All Alternates lookup 0 subtable" v.sc
EndChar

StartChar: W
Encoding: 87 87 58
Width: 600
GlyphClass: 2
Flags: W
AnchorPoint: "Anchor-4" 580 714 basechar 0
AnchorPoint: "Anchor-3" 300 714 basechar 0
AnchorPoint: "Anchor-0" 300 0 basechar 0
LayerCount: 2
Fore
SplineSet
53 0 m 1,0,-1
 8 714 l 1,1,-1
 142 714 l 1,2,3
 151 613 151 613 155.5 548 c 128,-1,4
 160 483 160 483 162.5 441 c 128,-1,5
 165 399 165 399 165.5 370 c 128,-1,6
 166 341 166 341 166 312 c 0,7,8
 166 272 166 272 165.5 225 c 128,-1,9
 165 178 165 178 164 130 c 1,10,-1
 170 130 l 1,11,12
 174 163 174 163 179.5 207 c 128,-1,13
 185 251 185 251 190.5 291.5 c 128,-1,14
 196 332 196 332 200 355 c 2,15,-1
 229 549 l 1,16,-1
 372 549 l 1,17,-1
 399 354 l 2,18,19
 403 324 403 324 408.5 283.5 c 128,-1,20
 414 243 414 243 420 201.5 c 128,-1,21
 426 160 426 160 430 129 c 1,22,-1
 437 129 l 1,23,24
 436 188 436 188 434.5 243 c 128,-1,25
 433 298 433 298 433 336 c 0,26,27
 433 363 433 363 434 389.5 c 128,-1,28
 435 416 435 416 437.5 454.5 c 128,-1,29
 440 493 440 493 444 555 c 128,-1,30
 448 617 448 617 455 714 c 1,31,-1
 592 714 l 1,32,-1
 547 0 l 1,33,-1
 352 0 l 1,34,-1
 324 197 l 2,35,36
 321 221 321 221 317 254.5 c 128,-1,37
 313 288 313 288 309 323 c 128,-1,38
 305 358 305 358 302 385 c 1,39,-1
 298 385 l 1,40,41
 295 358 295 358 291 323 c 128,-1,42
 287 288 287 288 283 254 c 128,-1,43
 279 220 279 220 276 197 c 2,44,-1
 250 0 l 1,45,-1
 53 0 l 1,0,-1
EndSplineSet
Substitution2: "'c2sc' Capitals to Small Capitals lookup 32 subtable" w.sc
Substitution2: "'aalt' Access All Alternates lookup 0 subtable" w.sc
EndChar

StartChar: X
Encoding: 88 88 59
Width: 600
GlyphClass: 2
Flags: W
AnchorPoint: "Anchor-4" 580 714 basechar 0
AnchorPoint: "Anchor-3" 300 714 basechar 0
AnchorPoint: "Anchor-0" 300 0 basechar 0
LayerCount: 2
Fore
SplineSet
18 0 m 1,0,-1
 225 368 l 1,1,-1
 32 714 l 1,2,-1
 195 714 l 1,3,-1
 300 510 l 1,4,-1
 401 714 l 1,5,-1
 567 714 l 1,6,-1
 374 369 l 1,7,-1
 582 0 l 1,8,-1
 414 0 l 1,9,-1
 299 228 l 1,10,-1
 181 0 l 1,11,-1
 18 0 l 1,0,-1
EndSplineSet
Substitution2: "'c2sc' Capitals to Small Capitals lookup 32 subtable" x.sc
Substitution2: "'aalt' Access All Alternates lookup 0 subtable" x.sc
EndChar

StartChar: Y
Encoding: 89 89 60
Width: 600
GlyphClass: 2
Flags: W
AnchorPoint: "Anchor-4" 580 714 basechar 0
AnchorPoint: "Anchor-3" 300 714 basechar 0
AnchorPoint: "Anchor-0" 300 0 basechar 0
LayerCount: 2
Fore
SplineSet
221 0 m 1,0,-1
 221 277 l 1,1,-1
 18 714 l 1,2,-1
 185 714 l 1,3,-1
 301 434 l 1,4,-1
 416 714 l 1,5,-1
 582 714 l 1,6,-1
 380 277 l 1,7,-1
 380 0 l 1,8,-1
 221 0 l 1,0,-1
EndSplineSet
Substitution2: "'c2sc' Capitals to Small Capitals lookup 32 subtable" y.sc
Substitution2: "'aalt' Access All Alternates lookup 0 subtable" y.sc
EndChar

StartChar: Z
Encoding: 90 90 61
Width: 600
GlyphClass: 2
Flags: W
AnchorPoint: "Anchor-4" 580 714 basechar 0
AnchorPoint: "Anchor-3" 310 714 basechar 0
AnchorPoint: "Anchor-0" 312 0 basechar 0
LayerCount: 2
Fore
SplineSet
71 0 m 1,0,-1
 71 108 l 1,1,-1
 360 581 l 1,2,-1
 92 581 l 1,3,-1
 92 714 l 1,4,-1
 535 714 l 1,5,-1
 535 606 l 1,6,-1
 249 137 l 1,7,-1
 539 137 l 1,8,-1
 539 0 l 1,9,-1
 71 0 l 1,0,-1
EndSplineSet
Substitution2: "'c2sc' Capitals to Small Capitals lookup 32 subtable" z.sc
Substitution2: "'aalt' Access All Alternates lookup 0 subtable" z.sc
EndChar

StartChar: bracketleft
Encoding: 91 91 62
Width: 600
Flags: W
LayerCount: 2
Fore
SplineSet
225 -156 m 1,0,-1
 225 735 l 1,1,-1
 472 735 l 1,2,-1
 472 624 l 1,3,-1
 363 624 l 1,4,-1
 363 -43 l 1,5,-1
 472 -43 l 1,6,-1
 472 -156 l 1,7,-1
 225 -156 l 1,0,-1
EndSplineSet
Substitution2: "'smcp' Lowercase to Small Capitals lookup 33 subtable" bracketleft.sc
Substitution2: "'c2sc' Capitals to Small Capitals lookup 32 subtable" bracketleft.sc
Substitution2: "'aalt' Access All Alternates lookup 0 subtable" bracketleft.sc
EndChar

StartChar: asciicircum
Encoding: 94 94 65
Width: 600
Flags: W
LayerCount: 2
Fore
SplineSet
35 256 m 1,0,-1
 254 716 l 1,1,-1
 330 716 l 1,2,-1
 565 256 l 1,3,-1
 434 256 l 1,4,-1
 294 534 l 1,5,-1
 165 256 l 1,6,-1
 35 256 l 1,0,-1
EndSplineSet
EndChar

StartChar: underscore
Encoding: 95 95 66
Width: 600
Flags: W
LayerCount: 2
Fore
SplineSet
0 -185 m 1,0,-1
 0 -55 l 1,1,-1
 600 -55 l 1,2,-1
 600 -185 l 1,3,-1
 0 -185 l 1,0,-1
EndSplineSet
EndChar

StartChar: grave
Encoding: 96 96 67
Width: 600
Flags: W
LayerCount: 2
Fore
SplineSet
310 606 m 1,0,1
 294 618 294 618 271 638 c 128,-1,2
 248 658 248 658 223 680 c 128,-1,3
 198 702 198 702 176.5 722.5 c 128,-1,4
 155 743 155 743 142 757 c 1,5,-1
 142 766 l 1,6,-1
 318 766 l 1,7,8
 330 744 330 744 349 716.5 c 128,-1,9
 368 689 368 689 387 662.5 c 128,-1,10
 406 636 406 636 419 619 c 1,11,-1
 419 606 l 1,12,-1
 310 606 l 1,0,1
EndSplineSet
EndChar

StartChar: a
Encoding: 97 97 68
Width: 600
GlyphClass: 2
Flags: W
AnchorPoint: "Anchor-4" 580 549 basechar 0
AnchorPoint: "Anchor-3" 308 549 basechar 0
AnchorPoint: "Anchor-2" 540 10 basechar 0
AnchorPoint: "Anchor-0" 307 0 basechar 0
LayerCount: 2
Fore
SplineSet
225 -10 m 0,0,1
 134 -10 134 -10 89.5 37 c 128,-1,2
 45 84 45 84 45 161 c 0,3,4
 45 255 45 255 105.5 296.5 c 128,-1,5
 166 338 166 338 271 341 c 2,6,-1
 389 345 l 1,7,-1
 389 366 l 2,8,9
 389 434 389 434 288 434 c 0,10,11
 254 434 254 434 214.5 426 c 128,-1,12
 175 418 175 418 132 401 c 1,13,-1
 82 510 l 1,14,15
 132 536 132 536 186 547.5 c 128,-1,16
 240 559 240 559 299 559 c 0,17,18
 540 559 540 559 540 370 c 2,19,-1
 540 0 l 1,20,-1
 420 0 l 1,21,-1
 399 68 l 1,22,-1
 395 68 l 1,23,24
 355 20 355 20 309.5 5 c 128,-1,25
 264 -10 264 -10 225 -10 c 0,0,1
273 114 m 0,26,27
 320 114 320 114 354.5 139.5 c 128,-1,28
 389 165 389 165 389 212 c 2,29,-1
 389 249 l 1,30,-1
 317 247 l 2,31,32
 257 246 257 246 226.5 229 c 128,-1,33
 196 212 196 212 196 175 c 0,34,35
 196 143 196 143 217 128.5 c 128,-1,36
 238 114 238 114 273 114 c 0,26,27
EndSplineSet
Substitution2: "'smcp' Lowercase to Small Capitals lookup 33 subtable" a.sc
Substitution2: "Single Substitution lookup 30 subtable" ordfeminine
AlternateSubs2: "'aalt' Access All Alternates lookup 1 subtable" ordfeminine a.sc
EndChar

StartChar: b
Encoding: 98 98 69
Width: 600
GlyphClass: 2
Flags: W
AnchorPoint: "Anchor-4" 580 760 basechar 0
AnchorPoint: "Anchor-3" 300 760 basechar 0
AnchorPoint: "Anchor-0" 300 0 basechar 0
LayerCount: 2
Fore
SplineSet
359 -10 m 0,0,1
 316 -10 316 -10 276 6.5 c 128,-1,2
 236 23 236 23 206 58 c 1,3,-1
 195 58 l 1,4,-1
 170 0 l 1,5,-1
 50 0 l 1,6,-1
 50 760 l 1,7,-1
 206 760 l 1,8,-1
 206 585 l 2,9,10
 206 556 206 556 200 477 c 1,11,-1
 206 477 l 1,12,13
 234 520 234 520 275.5 539.5 c 128,-1,14
 317 559 317 559 364 559 c 0,15,16
 436 559 436 559 480.5 519.5 c 128,-1,17
 525 480 525 480 545 416 c 128,-1,18
 565 352 565 352 565 277 c 0,19,20
 565 200 565 200 544 134.5 c 128,-1,21
 523 69 523 69 477.5 29.5 c 128,-1,22
 432 -10 432 -10 359 -10 c 0,0,1
304 119 m 0,23,24
 353 119 353 119 379 158.5 c 128,-1,25
 405 198 405 198 405 277 c 256,26,27
 405 356 405 356 379 393 c 128,-1,28
 353 430 353 430 304 430 c 0,29,30
 259 430 259 430 232.5 396 c 128,-1,31
 206 362 206 362 206 277 c 256,32,33
 206 192 206 192 232.5 155.5 c 128,-1,34
 259 119 259 119 304 119 c 0,23,24
EndSplineSet
Substitution2: "'smcp' Lowercase to Small Capitals lookup 33 subtable" b.sc
Substitution2: "'aalt' Access All Alternates lookup 0 subtable" b.sc
EndChar

StartChar: c
Encoding: 99 99 70
Width: 600
GlyphClass: 2
Flags: W
AnchorPoint: "Anchor-4" 580 549 basechar 0
AnchorPoint: "Anchor-3" 319 549 basechar 0
AnchorPoint: "Anchor-0" 330 0 basechar 0
LayerCount: 2
Fore
SplineSet
333 -10 m 0,0,1
 197 -10 197 -10 131 60.5 c 128,-1,2
 65 131 65 131 65 268 c 0,3,4
 65 406 65 406 132.5 482.5 c 128,-1,5
 200 559 200 559 340 559 c 0,6,7
 385 559 385 559 433 550 c 128,-1,8
 481 541 481 541 525 521 c 1,9,-1
 478 400 l 1,10,11
 435 416 435 416 404 422 c 128,-1,12
 373 428 373 428 350 428 c 0,13,14
 223 428 223 428 223 275 c 0,15,16
 223 192 223 192 258 156.5 c 128,-1,17
 293 121 293 121 354 121 c 0,18,19
 384 121 384 121 423 130.5 c 128,-1,20
 462 140 462 140 506 169 c 1,21,-1
 506 30 l 1,22,23
 462 8 462 8 420 -1 c 128,-1,24
 378 -10 378 -10 333 -10 c 0,0,1
EndSplineSet
Substitution2: "'smcp' Lowercase to Small Capitals lookup 33 subtable" c.sc
Substitution2: "'aalt' Access All Alternates lookup 0 subtable" c.sc
EndChar

StartChar: d
Encoding: 100 100 71
Width: 600
GlyphClass: 2
Flags: W
AnchorPoint: "Anchor-4" 580 760 basechar 0
AnchorPoint: "Anchor-3" 300 760 basechar 0
AnchorPoint: "Anchor-1" 300 275 basechar 0
AnchorPoint: "Anchor-0" 300 0 basechar 0
LayerCount: 2
Fore
SplineSet
235 -10 m 0,0,1
 163 -10 163 -10 119 29 c 128,-1,2
 75 68 75 68 55 133 c 128,-1,3
 35 198 35 198 35 274 c 0,4,5
 35 354 35 354 57 418.5 c 128,-1,6
 79 483 79 483 125.5 521 c 128,-1,7
 172 559 172 559 245 559 c 0,8,9
 294 559 294 559 333 539.5 c 128,-1,10
 372 520 372 520 401 478 c 1,11,-1
 406 478 l 1,12,13
 399 516 399 516 396.5 543 c 128,-1,14
 394 570 394 570 394 601 c 2,15,-1
 394 760 l 1,16,-1
 550 760 l 1,17,-1
 550 0 l 1,18,-1
 430 0 l 1,19,-1
 399 71 l 1,20,-1
 392 71 l 1,21,22
 364 29 364 29 323 9.5 c 128,-1,23
 282 -10 282 -10 235 -10 c 0,0,1
300 119 m 0,24,25
 356 119 356 119 381.5 155.5 c 128,-1,26
 407 192 407 192 407 257 c 2,27,-1
 407 272 l 2,28,29
 407 342 407 342 386.5 386 c 128,-1,30
 366 430 366 430 305 430 c 0,31,32
 250 430 250 430 223 388.5 c 128,-1,33
 196 347 196 347 196 269 c 0,34,35
 196 190 196 190 223 154.5 c 128,-1,36
 250 119 250 119 300 119 c 0,24,25
EndSplineSet
Substitution2: "'smcp' Lowercase to Small Capitals lookup 33 subtable" d.sc
Substitution2: "'aalt' Access All Alternates lookup 0 subtable" d.sc
EndChar

StartChar: e
Encoding: 101 101 72
Width: 600
GlyphClass: 2
Flags: W
AnchorPoint: "Anchor-4" 580 549 basechar 0
AnchorPoint: "Anchor-3" 308 549 basechar 0
AnchorPoint: "Anchor-2" 308 10 basechar 0
AnchorPoint: "Anchor-0" 310 0 basechar 0
LayerCount: 2
Fore
SplineSet
344 -10 m 0,0,1
 198 -10 198 -10 121.5 64.5 c 128,-1,2
 45 139 45 139 45 276 c 0,3,4
 45 405 45 405 112.5 482 c 128,-1,5
 180 559 180 559 307 559 c 0,6,7
 426 559 426 559 490 490 c 128,-1,8
 554 421 554 421 554 301 c 2,9,-1
 554 227 l 1,10,-1
 197 227 l 1,11,12
 200 172 200 172 246 144 c 128,-1,13
 292 116 292 116 360 116 c 0,14,15
 402 116 402 116 446.5 126 c 128,-1,16
 491 136 491 136 536 157 c 1,17,-1
 536 29 l 1,18,19
 489 7 489 7 439 -1.5 c 128,-1,20
 389 -10 389 -10 344 -10 c 0,0,1
200 334 m 1,21,-1
 411 334 l 1,22,23
 410 384 410 384 381.5 412.5 c 128,-1,24
 353 441 353 441 308 441 c 0,25,26
 262 441 262 441 233 412.5 c 128,-1,27
 204 384 204 384 200 334 c 1,21,-1
EndSplineSet
Substitution2: "'smcp' Lowercase to Small Capitals lookup 33 subtable" e.sc
Substitution2: "'aalt' Access All Alternates lookup 0 subtable" e.sc
EndChar

StartChar: f
Encoding: 102 102 73
Width: 600
GlyphClass: 2
Flags: W
AnchorPoint: "Anchor-4" 580 765 basechar 0
AnchorPoint: "Anchor-3" 401 761 basechar 0
AnchorPoint: "Anchor-0" 300 0 basechar 0
LayerCount: 2
Fore
SplineSet
206 0 m 1,0,-1
 206 420 l 1,1,-1
 57 420 l 1,2,-1
 57 512 l 1,3,-1
 206 549 l 1,4,-1
 206 581 l 2,5,6
 206 672 206 672 261 718.5 c 128,-1,7
 316 765 316 765 429 765 c 0,8,9
 466 765 466 765 505 759.5 c 128,-1,10
 544 754 544 754 585 742 c 1,11,-1
 546 618 l 1,12,13
 518 627 518 627 492.5 630 c 128,-1,14
 467 633 467 633 452 633 c 0,15,16
 406 633 406 633 385 615.5 c 128,-1,17
 364 598 364 598 364 563 c 2,18,-1
 364 549 l 1,19,-1
 536 549 l 1,20,-1
 536 420 l 1,21,-1
 364 420 l 1,22,-1
 364 0 l 1,23,-1
 206 0 l 1,0,-1
EndSplineSet
Substitution2: "'smcp' Lowercase to Small Capitals lookup 33 subtable" f.sc
Substitution2: "'aalt' Access All Alternates lookup 0 subtable" f.sc
EndChar

StartChar: g
Encoding: 103 103 74
Width: 600
GlyphClass: 2
Flags: W
AnchorPoint: "Anchor-4" 580 549 basechar 0
AnchorPoint: "Anchor-3" 300 549 basechar 0
AnchorPoint: "Anchor-0" 300 -245 basechar 0
LayerCount: 2
Fore
SplineSet
255 -245 m 0,0,1
 213 -245 213 -245 166.5 -238.5 c 128,-1,2
 120 -232 120 -232 71 -213 c 1,3,-1
 71 -73 l 1,4,5
 176 -114 176 -114 261 -113 c 0,6,7
 328 -113 328 -113 361 -87.5 c 128,-1,8
 394 -62 394 -62 394 -5 c 2,9,-1
 394 4 l 2,10,11
 394 21 394 21 394.5 36 c 128,-1,12
 395 51 395 51 396 67 c 1,13,-1
 392 67 l 1,14,15
 364 24 364 24 326.5 7 c 128,-1,16
 289 -10 289 -10 243 -10 c 0,17,18
 145 -10 145 -10 90 65 c 128,-1,19
 35 140 35 140 35 274 c 0,20,21
 35 412 35 412 91.5 486 c 128,-1,22
 148 560 148 560 241 560 c 0,23,24
 336 560 336 560 395 479 c 1,25,-1
 398 479 l 1,26,-1
 433 549 l 1,27,-1
 550 549 l 1,28,-1
 550 11 l 2,29,30
 550 -114 550 -114 479.5 -179.5 c 128,-1,31
 409 -245 409 -245 255 -245 c 0,0,1
301 119 m 0,32,33
 354 119 354 119 378.5 155 c 128,-1,34
 403 191 403 191 403 255 c 2,35,-1
 403 272 l 2,36,37
 403 353 403 353 378.5 391.5 c 128,-1,38
 354 430 354 430 299 430 c 0,39,40
 194 430 194 430 194 273 c 0,41,42
 194 200 194 200 220 159.5 c 128,-1,43
 246 119 246 119 301 119 c 0,32,33
EndSplineSet
Substitution2: "'smcp' Lowercase to Small Capitals lookup 33 subtable" g.sc
Substitution2: "'aalt' Access All Alternates lookup 0 subtable" g.sc
EndChar

StartChar: h
Encoding: 104 104 75
Width: 600
GlyphClass: 2
Flags: W
AnchorPoint: "Anchor-4" 580 760 basechar 0
AnchorPoint: "Anchor-3" 130 760 basechar 0
AnchorPoint: "Anchor-1" 300 275 basechar 0
AnchorPoint: "Anchor-0" 300 0 basechar 0
LayerCount: 2
Fore
SplineSet
50 0 m 1,0,-1
 50 760 l 1,1,-1
 209 760 l 1,2,-1
 209 623 l 2,3,4
 209 587 209 587 207 551 c 128,-1,5
 205 515 205 515 203 479 c 1,6,-1
 212 479 l 1,7,8
 238 519 238 519 274 539 c 128,-1,9
 310 559 310 559 366 559 c 0,10,11
 459 559 459 559 507 506 c 128,-1,12
 555 453 555 453 555 357 c 2,13,-1
 555 0 l 1,14,-1
 396 0 l 1,15,-1
 396 311 l 2,16,17
 396 374 396 374 375 402 c 128,-1,18
 354 430 354 430 310 430 c 0,19,20
 258 430 258 430 233.5 389.5 c 128,-1,21
 209 349 209 349 209 250 c 2,22,-1
 209 0 l 1,23,-1
 50 0 l 1,0,-1
EndSplineSet
Substitution2: "'smcp' Lowercase to Small Capitals lookup 33 subtable" h.sc
Substitution2: "'subs' Subscript lookup 20 subtable" uni2095
AlternateSubs2: "'aalt' Access All Alternates lookup 1 subtable" h.sc uni2095
EndChar

StartChar: i
Encoding: 105 105 76
Width: 600
GlyphClass: 2
Flags: W
AnchorPoint: "Anchor-4" 509 776 basechar 0
AnchorPoint: "Anchor-3" 314 776 basechar 0
AnchorPoint: "Anchor-0" 314 0 basechar 0
LayerCount: 2
Fore
SplineSet
314 605 m 0,0,1
 219 605 219 605 219 691 c 0,2,3
 219 776 219 776 315 776 c 0,4,5
 410 776 410 776 410 692 c 0,6,7
 410 651 410 651 387 628 c 128,-1,8
 364 605 364 605 314 605 c 0,0,1
51 0 m 1,9,-1
 51 106 l 1,10,-1
 235 129 l 1,11,-1
 235 420 l 1,12,-1
 85 436 l 1,13,-1
 85 549 l 1,14,-1
 393 549 l 1,15,-1
 393 129 l 1,16,-1
 555 106 l 1,17,-1
 555 0 l 1,18,-1
 51 0 l 1,9,-1
EndSplineSet
Substitution2: "'smcp' Lowercase to Small Capitals lookup 33 subtable" i.sc
Substitution2: "Single Substitution lookup 5 subtable" dotlessi
Substitution2: "Single Substitution lookup 4 subtable" dotlessi
AlternateSubs2: "'aalt' Access All Alternates lookup 1 subtable" dotlessi i.sc
EndChar

StartChar: j
Encoding: 106 106 77
Width: 600
GlyphClass: 2
Flags: W
AnchorPoint: "Anchor-4" 580 776 basechar 0
AnchorPoint: "Anchor-3" 340 776 basechar 0
AnchorPoint: "Anchor-0" 216 -245 basechar 0
LayerCount: 2
Fore
SplineSet
347 605 m 0,0,1
 252 605 252 605 252 691 c 0,2,3
 252 776 252 776 348 776 c 0,4,5
 443 776 443 776 443 692 c 0,6,7
 443 651 443 651 419.5 628 c 128,-1,8
 396 605 396 605 347 605 c 0,0,1
201 -245 m 0,9,10
 164 -245 164 -245 120.5 -239.5 c 128,-1,11
 77 -234 77 -234 35 -222 c 1,12,-1
 35 -92 l 1,13,14
 73 -102 73 -102 110.5 -106.5 c 128,-1,15
 148 -111 148 -111 173 -111 c 0,16,17
 232 -111 232 -111 255 -83 c 128,-1,18
 278 -55 278 -55 278 18 c 2,19,-1
 278 420 l 1,20,-1
 116 435 l 1,21,-1
 116 549 l 1,22,-1
 437 549 l 1,23,-1
 437 -16 l 2,24,25
 437 -132 437 -132 380.5 -188.5 c 128,-1,26
 324 -245 324 -245 201 -245 c 0,9,10
EndSplineSet
Substitution2: "'smcp' Lowercase to Small Capitals lookup 33 subtable" j.sc
Substitution2: "Single Substitution lookup 5 subtable" uni0237
Substitution2: "Single Substitution lookup 4 subtable" uni0237
AlternateSubs2: "'aalt' Access All Alternates lookup 1 subtable" uni0237 j.sc
EndChar

StartChar: k
Encoding: 107 107 78
Width: 600
GlyphClass: 2
Flags: W
AnchorPoint: "Anchor-4" 580 760 basechar 0
AnchorPoint: "Anchor-3" 335 760 basechar 0
AnchorPoint: "Anchor-0" 319 0 basechar 0
LayerCount: 2
Fore
SplineSet
51 0 m 1,0,-1
 51 760 l 1,1,-1
 210 760 l 1,2,-1
 210 433 l 2,3,4
 210 399 210 399 208 362 c 128,-1,5
 206 325 206 325 201 293 c 1,6,-1
 204 293 l 1,7,8
 220 316 220 316 236 339 c 128,-1,9
 252 362 252 362 272 388 c 2,10,-1
 398 549 l 1,11,-1
 578 549 l 1,12,-1
 393 324 l 1,13,-1
 590 0 l 1,14,-1
 417 0 l 1,15,-1
 290 219 l 1,16,-1
 210 155 l 1,17,-1
 210 0 l 1,18,-1
 51 0 l 1,0,-1
EndSplineSet
Substitution2: "'smcp' Lowercase to Small Capitals lookup 33 subtable" k.sc
Substitution2: "'subs' Subscript lookup 20 subtable" uni2096
AlternateSubs2: "'aalt' Access All Alternates lookup 1 subtable" k.sc uni2096
EndChar

StartChar: l
Encoding: 108 108 79
Width: 600
GlyphClass: 2
Flags: W
AnchorPoint: "Anchor-4" 503 760 basechar 0
AnchorPoint: "Anchor-3" 300 760 basechar 0
AnchorPoint: "Anchor-1" 316 382 basechar 0
AnchorPoint: "Anchor-0" 316 0 basechar 0
LayerCount: 2
Fore
SplineSet
51 0 m 1,0,-1
 51 105 l 1,1,-1
 234 129 l 1,2,-1
 234 631 l 1,3,-1
 88 653 l 1,4,-1
 88 760 l 1,5,-1
 392 760 l 1,6,-1
 392 129 l 1,7,-1
 555 105 l 1,8,-1
 555 0 l 1,9,-1
 51 0 l 1,0,-1
EndSplineSet
Substitution2: "'smcp' Lowercase to Small Capitals lookup 33 subtable" l.sc
Substitution2: "'subs' Subscript lookup 20 subtable" uni2097
AlternateSubs2: "'aalt' Access All Alternates lookup 1 subtable" l.sc uni2097
EndChar

StartChar: m
Encoding: 109 109 80
Width: 600
GlyphClass: 2
Flags: W
AnchorPoint: "Anchor-4" 580 549 basechar 0
AnchorPoint: "Anchor-3" 334 549 basechar 0
AnchorPoint: "Anchor-0" 309 0 basechar 0
LayerCount: 2
Fore
SplineSet
25 0 m 1,0,-1
 25 549 l 1,1,-1
 133 549 l 1,2,-1
 150 479 l 1,3,-1
 158 479 l 1,4,5
 173 520 173 520 196.5 539.5 c 128,-1,6
 220 559 220 559 261 559 c 0,7,8
 307 559 307 559 328.5 534.5 c 128,-1,9
 350 510 350 510 357 467 c 1,10,-1
 362 467 l 1,11,12
 381 510 381 510 405.5 534.5 c 128,-1,13
 430 559 430 559 474 559 c 256,14,15
 518 559 518 559 539.5 535.5 c 128,-1,16
 561 512 561 512 568 466.5 c 128,-1,17
 575 421 575 421 575 356 c 2,18,-1
 575 0 l 1,19,-1
 439 0 l 1,20,-1
 439 371 l 2,21,22
 439 401 439 401 432.5 415.5 c 128,-1,23
 426 430 426 430 407 430 c 0,24,25
 383 430 383 430 375 410 c 128,-1,26
 367 390 367 390 367 353 c 2,27,-1
 367 0 l 1,28,-1
 233 0 l 1,29,-1
 233 371 l 2,30,31
 233 402 233 402 226.5 416 c 128,-1,32
 220 430 220 430 200 430 c 0,33,34
 177 430 177 430 169 411 c 128,-1,35
 161 392 161 392 161 354 c 2,36,-1
 161 0 l 1,37,-1
 25 0 l 1,0,-1
EndSplineSet
Substitution2: "'smcp' Lowercase to Small Capitals lookup 33 subtable" m.sc
Substitution2: "'subs' Subscript lookup 20 subtable" uni2098
AlternateSubs2: "'aalt' Access All Alternates lookup 1 subtable" m.sc uni2098
EndChar

StartChar: n
Encoding: 110 110 81
Width: 600
GlyphClass: 2
Flags: W
AnchorPoint: "Anchor-4" 580 549 basechar 0
AnchorPoint: "Anchor-3" 309 549 basechar 0
AnchorPoint: "Anchor-0" 305 0 basechar 0
LayerCount: 2
Fore
SplineSet
50 0 m 1,0,-1
 50 549 l 1,1,-1
 170 549 l 1,2,-1
 193 479 l 1,3,-1
 202 479 l 1,4,5
 254 559 254 559 368 559 c 0,6,7
 461 559 461 559 508 506.5 c 128,-1,8
 555 454 555 454 555 357 c 2,9,-1
 555 0 l 1,10,-1
 396 0 l 1,11,-1
 396 311 l 2,12,13
 396 373 396 373 374.5 401.5 c 128,-1,14
 353 430 353 430 312 430 c 0,15,16
 256 430 256 430 232.5 382 c 128,-1,17
 209 334 209 334 209 250 c 2,18,-1
 209 0 l 1,19,-1
 50 0 l 1,0,-1
EndSplineSet
Substitution2: "'smcp' Lowercase to Small Capitals lookup 33 subtable" n.sc
Substitution2: "'sups' Superscript lookup 21 subtable" nsuperior
Substitution2: "'subs' Subscript lookup 20 subtable" uni2099
AlternateSubs2: "'aalt' Access All Alternates lookup 1 subtable" nsuperior n.sc uni2099
EndChar

StartChar: o
Encoding: 111 111 82
Width: 600
GlyphClass: 2
Flags: W
AnchorPoint: "Anchor-4" 580 549 basechar 0
AnchorPoint: "Anchor-3" 300 549 basechar 0
AnchorPoint: "Anchor-2" 303 10 basechar 0
AnchorPoint: "Anchor-1" 300 275 basechar 0
AnchorPoint: "Anchor-0" 300 0 basechar 0
LayerCount: 2
Fore
SplineSet
302 -10 m 256,0,1
 216 -10 216 -10 156.5 25.5 c 128,-1,2
 97 61 97 61 66 125.5 c 128,-1,3
 35 190 35 190 35 276 c 0,4,5
 35 360 35 360 65.5 424 c 128,-1,6
 96 488 96 488 154.5 523.5 c 128,-1,7
 213 559 213 559 298 559 c 0,8,9
 422 559 422 559 493.5 482 c 128,-1,10
 565 405 565 405 565 271 c 0,11,12
 565 188 565 188 535.5 124.5 c 128,-1,13
 506 61 506 61 447 25.5 c 128,-1,14
 388 -10 388 -10 302 -10 c 256,0,1
301 118 m 256,15,16
 356 118 356 118 381.5 160.5 c 128,-1,17
 407 203 407 203 407 274 c 0,18,19
 407 344 407 344 381.5 387.5 c 128,-1,20
 356 431 356 431 301 431 c 0,21,22
 245 431 245 431 219 387.5 c 128,-1,23
 193 344 193 344 193 274 c 0,24,25
 193 202 193 202 219.5 160 c 128,-1,26
 246 118 246 118 301 118 c 256,15,16
EndSplineSet
Substitution2: "'smcp' Lowercase to Small Capitals lookup 33 subtable" o.sc
Substitution2: "Single Substitution lookup 30 subtable" ordmasculine
AlternateSubs2: "'aalt' Access All Alternates lookup 1 subtable" ordmasculine o.sc
EndChar

StartChar: p
Encoding: 112 112 83
Width: 600
GlyphClass: 2
Flags: W
AnchorPoint: "Anchor-4" 580 549 basechar 0
AnchorPoint: "Anchor-3" 335 549 basechar 0
AnchorPoint: "Anchor-0" 335 -240 basechar 0
LayerCount: 2
Fore
SplineSet
50 -240 m 1,0,-1
 50 549 l 1,1,-1
 167 549 l 1,2,-1
 198 478 l 1,3,-1
 206 478 l 1,4,5
 233 520 233 520 275 539.5 c 128,-1,6
 317 559 317 559 364 559 c 0,7,8
 436 559 436 559 480.5 520 c 128,-1,9
 525 481 525 481 545 417 c 128,-1,10
 565 353 565 353 565 278 c 0,11,12
 565 145 565 145 509.5 67.5 c 128,-1,13
 454 -10 454 -10 357 -10 c 0,14,15
 316 -10 316 -10 275.5 6.5 c 128,-1,16
 235 23 235 23 206 58 c 1,17,-1
 198 58 l 1,18,19
 201 34 201 34 203.5 10 c 128,-1,20
 206 -14 206 -14 206 -25 c 2,21,-1
 206 -240 l 1,22,-1
 50 -240 l 1,0,-1
308 119 m 0,23,24
 403 119 403 119 403 277 c 0,25,26
 403 352 403 352 380 391 c 128,-1,27
 357 430 357 430 307 430 c 0,28,29
 259 430 259 430 232.5 394.5 c 128,-1,30
 206 359 206 359 206 291 c 2,31,-1
 206 276 l 2,32,33
 206 195 206 195 233 157 c 128,-1,34
 260 119 260 119 308 119 c 0,23,24
EndSplineSet
Substitution2: "'smcp' Lowercase to Small Capitals lookup 33 subtable" p.sc
Substitution2: "'subs' Subscript lookup 20 subtable" uni209A
AlternateSubs2: "'aalt' Access All Alternates lookup 1 subtable" p.sc uni209A
EndChar

StartChar: q
Encoding: 113 113 84
Width: 600
GlyphClass: 2
Flags: W
AnchorPoint: "Anchor-4" 580 549 basechar 0
AnchorPoint: "Anchor-3" 275 549 basechar 0
AnchorPoint: "Anchor-0" 275 -240 basechar 0
LayerCount: 2
Fore
SplineSet
394 -240 m 1,0,-1
 394 -11 l 2,1,2
 394 3 394 3 395 20.5 c 128,-1,3
 396 38 396 38 400 71 c 1,4,-1
 394 71 l 1,5,6
 370 30 370 30 327.5 10 c 128,-1,7
 285 -10 285 -10 236 -10 c 0,8,9
 164 -10 164 -10 119.5 29 c 128,-1,10
 75 68 75 68 55 133 c 128,-1,11
 35 198 35 198 35 274 c 0,12,13
 35 330 35 330 46 381 c 128,-1,14
 57 432 57 432 81 472 c 128,-1,15
 105 512 105 512 144.5 535.5 c 128,-1,16
 184 559 184 559 241 559 c 0,17,18
 286 559 286 559 328 540.5 c 128,-1,19
 370 522 370 522 401 479 c 1,20,-1
 406 479 l 1,21,-1
 433 549 l 1,22,-1
 550 549 l 1,23,-1
 550 -240 l 1,24,-1
 394 -240 l 1,0,-1
298 119 m 0,25,26
 355 119 355 119 379.5 157.5 c 128,-1,27
 404 196 404 196 404 254 c 2,28,-1
 404 272 l 2,29,30
 404 354 404 354 376.5 392 c 128,-1,31
 349 430 349 430 299 430 c 0,32,33
 197 430 197 430 197 272 c 0,34,35
 197 196 197 196 221.5 157.5 c 128,-1,36
 246 119 246 119 298 119 c 0,25,26
EndSplineSet
Substitution2: "'smcp' Lowercase to Small Capitals lookup 33 subtable" q.sc
Substitution2: "'aalt' Access All Alternates lookup 0 subtable" q.sc
EndChar

StartChar: r
Encoding: 114 114 85
Width: 600
GlyphClass: 2
Flags: W
AnchorPoint: "Anchor-4" 580 549 basechar 0
AnchorPoint: "Anchor-3" 323 549 basechar 0
AnchorPoint: "Anchor-0" 265 0 basechar 0
LayerCount: 2
Fore
SplineSet
36 0 m 1,0,-1
 36 106 l 1,1,-1
 180 129 l 1,2,-1
 180 420 l 1,3,-1
 61 436 l 1,4,-1
 61 549 l 1,5,-1
 294 549 l 1,6,-1
 318 458 l 1,7,-1
 326 458 l 1,8,9
 348 502 348 502 387 530.5 c 128,-1,10
 426 559 426 559 484 559 c 0,11,12
 499 559 499 559 525.5 556.5 c 128,-1,13
 552 554 552 554 584 543 c 1,14,-1
 544 394 l 1,15,16
 529 400 529 400 506 404 c 128,-1,17
 483 408 483 408 464 408 c 0,18,19
 400 408 400 408 366 367 c 128,-1,20
 332 326 332 326 332 255 c 2,21,-1
 332 129 l 1,22,-1
 480 106 l 1,23,-1
 480 0 l 1,24,-1
 36 0 l 1,0,-1
EndSplineSet
Substitution2: "'smcp' Lowercase to Small Capitals lookup 33 subtable" r.sc
Substitution2: "'aalt' Access All Alternates lookup 0 subtable" r.sc
EndChar

StartChar: s
Encoding: 115 115 86
Width: 600
GlyphClass: 2
Flags: W
AnchorPoint: "Anchor-4" 580 549 basechar 0
AnchorPoint: "Anchor-3" 305 549 basechar 0
AnchorPoint: "Anchor-0" 305 0 basechar 0
LayerCount: 2
Fore
SplineSet
268 -10 m 0,0,1
 219 -10 219 -10 171 -3 c 128,-1,2
 123 4 123 4 75 22 c 1,3,-1
 75 165 l 1,4,5
 123 143 123 143 176 130 c 128,-1,6
 229 117 229 117 281 117 c 0,7,8
 316 117 316 117 339.5 125.5 c 128,-1,9
 363 134 363 134 363 156 c 0,10,11
 363 182 363 182 328 195 c 128,-1,12
 293 208 293 208 232 233 c 0,13,14
 186 252 186 252 152 272.5 c 128,-1,15
 118 293 118 293 100 322.5 c 128,-1,16
 82 352 82 352 82 396 c 0,17,18
 82 480 82 480 144 519.5 c 128,-1,19
 206 559 206 559 310 559 c 0,20,21
 361 559 361 559 413.5 549.5 c 128,-1,22
 466 540 466 540 519 517 c 1,23,-1
 470 396 l 1,24,25
 426 416 426 416 386 424.5 c 128,-1,26
 346 433 346 433 309 433 c 0,27,28
 277 433 277 433 258.5 425 c 128,-1,29
 240 417 240 417 240 399 c 0,30,31
 240 376 240 376 269.5 364 c 128,-1,32
 299 352 299 352 361 329 c 0,33,34
 408 312 408 312 444.5 292 c 128,-1,35
 481 272 481 272 501.5 241 c 128,-1,36
 522 210 522 210 522 160 c 0,37,38
 522 78 522 78 460 34 c 128,-1,39
 398 -10 398 -10 268 -10 c 0,0,1
EndSplineSet
Substitution2: "'smcp' Lowercase to Small Capitals lookup 33 subtable" s.sc
Substitution2: "'subs' Subscript lookup 20 subtable" uni209B
AlternateSubs2: "'aalt' Access All Alternates lookup 1 subtable" s.sc uni209B
EndChar

StartChar: t
Encoding: 116 116 87
Width: 600
GlyphClass: 2
Flags: W
AnchorPoint: "Anchor-4" 580 680 basechar 0
AnchorPoint: "Anchor-3" 271 680 basechar 0
AnchorPoint: "Anchor-1" 252 275 basechar 0
AnchorPoint: "Anchor-0" 362 0 basechar 0
LayerCount: 2
Fore
SplineSet
381 -10 m 0,0,1
 269 -10 269 -10 220 40 c 128,-1,2
 171 90 171 90 171 195 c 2,3,-1
 171 420 l 1,4,-1
 40 420 l 1,5,-1
 40 508 l 1,6,-1
 185 549 l 1,7,-1
 210 680 l 1,8,-1
 329 680 l 1,9,-1
 329 549 l 1,10,-1
 528 549 l 1,11,-1
 528 420 l 1,12,-1
 329 420 l 1,13,-1
 329 215 l 2,14,15
 329 173 329 173 343 153.5 c 128,-1,16
 357 134 357 134 378 128 c 128,-1,17
 399 122 399 122 420 122 c 0,18,19
 444 122 444 122 468.5 126 c 128,-1,20
 493 130 493 130 532 140 c 1,21,-1
 532 15 l 1,22,23
 492 2 492 2 455 -4 c 128,-1,24
 418 -10 418 -10 381 -10 c 0,0,1
EndSplineSet
Substitution2: "'smcp' Lowercase to Small Capitals lookup 33 subtable" t.sc
Substitution2: "'subs' Subscript lookup 20 subtable" uni209C
AlternateSubs2: "'aalt' Access All Alternates lookup 1 subtable" t.sc uni209C
EndChar

StartChar: u
Encoding: 117 117 88
Width: 600
GlyphClass: 2
Flags: W
AnchorPoint: "Anchor-4" 580 549 basechar 0
AnchorPoint: "Anchor-3" 300 549 basechar 0
AnchorPoint: "Anchor-2" 540 10 basechar 0
AnchorPoint: "Anchor-0" 300 0 basechar 0
LayerCount: 2
Fore
SplineSet
230 -10 m 0,0,1
 138 -10 138 -10 91.5 42 c 128,-1,2
 45 94 45 94 45 191 c 2,3,-1
 45 549 l 1,4,-1
 204 549 l 1,5,-1
 204 236 l 2,6,7
 204 180 204 180 222.5 149.5 c 128,-1,8
 241 119 241 119 288 119 c 0,9,10
 330 119 330 119 352.5 140 c 128,-1,11
 375 161 375 161 383 198 c 128,-1,12
 391 235 391 235 391 283 c 2,13,-1
 391 549 l 1,14,-1
 550 549 l 1,15,-1
 550 0 l 1,16,-1
 430 0 l 1,17,-1
 407 70 l 1,18,-1
 398 70 l 1,19,20
 347 -10 347 -10 230 -10 c 0,0,1
EndSplineSet
Substitution2: "'smcp' Lowercase to Small Capitals lookup 33 subtable" u.sc
Substitution2: "'aalt' Access All Alternates lookup 0 subtable" u.sc
EndChar

StartChar: v
Encoding: 118 118 89
Width: 600
GlyphClass: 2
Flags: W
AnchorPoint: "Anchor-4" 580 549 basechar 0
AnchorPoint: "Anchor-3" 300 549 basechar 0
AnchorPoint: "Anchor-0" 300 0 basechar 0
LayerCount: 2
Fore
SplineSet
213 0 m 1,0,-1
 15 549 l 1,1,-1
 185 549 l 1,2,-1
 276 236 l 2,3,4
 284 207 284 207 290 184.5 c 128,-1,5
 296 162 296 162 300 136 c 1,6,-1
 303 136 l 1,7,8
 307 162 307 162 311.5 183 c 128,-1,9
 316 204 316 204 325 235 c 2,10,-1
 417 549 l 1,11,-1
 585 549 l 1,12,-1
 383 0 l 1,13,-1
 213 0 l 1,0,-1
EndSplineSet
Substitution2: "'smcp' Lowercase to Small Capitals lookup 33 subtable" v.sc
Substitution2: "'aalt' Access All Alternates lookup 0 subtable" v.sc
EndChar

StartChar: w
Encoding: 119 119 90
Width: 600
GlyphClass: 2
Flags: W
AnchorPoint: "Anchor-4" 580 549 basechar 0
AnchorPoint: "Anchor-3" 302 549 basechar 0
AnchorPoint: "Anchor-0" 301 0 basechar 0
LayerCount: 2
Fore
SplineSet
73 0 m 1,0,-1
 2 549 l 1,1,-1
 144 549 l 1,2,-1
 162 273 l 2,3,4
 164 243 164 243 166 209 c 128,-1,5
 168 175 168 175 170 137 c 1,6,-1
 175 137 l 1,7,8
 179 174 179 174 183 202 c 128,-1,9
 187 230 187 230 193 261 c 2,10,-1
 236 475 l 1,11,-1
 367 475 l 1,12,-1
 408 260 l 2,13,14
 413 232 413 232 417.5 202.5 c 128,-1,15
 422 173 422 173 427 137 c 1,16,-1
 432 137 l 1,17,18
 435 173 435 173 436.5 208.5 c 128,-1,19
 438 244 438 244 440 272 c 2,20,-1
 459 549 l 1,21,-1
 599 549 l 1,22,-1
 528 0 l 1,23,-1
 350 0 l 1,24,-1
 318 191 l 2,25,26
 312 226 312 226 308.5 254 c 128,-1,27
 305 282 305 282 302 311 c 1,28,-1
 297 311 l 1,29,30
 294 282 294 282 290 254 c 128,-1,31
 286 226 286 226 280 191 c 2,32,-1
 247 0 l 1,33,-1
 73 0 l 1,0,-1
EndSplineSet
Substitution2: "'smcp' Lowercase to Small Capitals lookup 33 subtable" w.sc
Substitution2: "'aalt' Access All Alternates lookup 0 subtable" w.sc
EndChar

StartChar: x
Encoding: 120 120 91
Width: 600
GlyphClass: 2
Flags: W
AnchorPoint: "Anchor-4" 580 549 basechar 0
AnchorPoint: "Anchor-3" 300 549 basechar 0
AnchorPoint: "Anchor-0" 300 0 basechar 0
LayerCount: 2
Fore
SplineSet
15 0 m 1,0,-1
 197 280 l 1,1,-1
 24 549 l 1,2,-1
 210 549 l 1,3,-1
 300 388 l 1,4,-1
 395 549 l 1,5,-1
 581 549 l 1,6,-1
 403 279 l 1,7,-1
 585 0 l 1,8,-1
 398 0 l 1,9,-1
 300 170 l 1,10,-1
 203 0 l 1,11,-1
 15 0 l 1,0,-1
EndSplineSet
Substitution2: "'smcp' Lowercase to Small Capitals lookup 33 subtable" x.sc
Substitution2: "'aalt' Access All Alternates lookup 0 subtable" x.sc
EndChar

StartChar: y
Encoding: 121 121 92
Width: 600
GlyphClass: 2
Flags: W
AnchorPoint: "Anchor-4" 580 549 basechar 0
AnchorPoint: "Anchor-3" 300 549 basechar 0
AnchorPoint: "Anchor-0" 300 -245 basechar 0
LayerCount: 2
Fore
SplineSet
129 -245 m 0,0,1
 111 -245 111 -245 92.5 -243 c 128,-1,2
 74 -241 74 -241 54 -237 c 1,3,-1
 54 -109 l 1,4,5
 81 -115 81 -115 106 -115 c 0,6,7
 152 -115 152 -115 180.5 -91.5 c 128,-1,8
 209 -68 209 -68 224 -25 c 2,9,-1
 235 5 l 1,10,-1
 15 549 l 1,11,-1
 187 549 l 1,12,-1
 287 246 l 2,13,14
 293 226 293 226 298.5 204 c 128,-1,15
 304 182 304 182 309 153 c 1,16,-1
 312 153 l 1,17,18
 316 180 316 180 322 204.5 c 128,-1,19
 328 229 328 229 332 246 c 2,20,-1
 418 549 l 1,21,-1
 585 549 l 1,22,-1
 375 -41 l 2,23,24
 338 -144 338 -144 280 -194.5 c 128,-1,25
 222 -245 222 -245 129 -245 c 0,0,1
EndSplineSet
Substitution2: "'smcp' Lowercase to Small Capitals lookup 33 subtable" y.sc
Substitution2: "'aalt' Access All Alternates lookup 0 subtable" y.sc
EndChar

StartChar: z
Encoding: 122 122 93
Width: 600
GlyphClass: 2
Flags: W
AnchorPoint: "Anchor-4" 580 549 basechar 0
AnchorPoint: "Anchor-3" 308 549 basechar 0
AnchorPoint: "Anchor-0" 308 0 basechar 0
LayerCount: 2
Fore
SplineSet
60 0 m 1,0,-1
 60 95 l 1,1,-1
 333 424 l 1,2,-1
 75 424 l 1,3,-1
 75 549 l 1,4,-1
 531 549 l 1,5,-1
 531 445 l 1,6,-1
 262 125 l 1,7,-1
 540 125 l 1,8,-1
 540 0 l 1,9,-1
 60 0 l 1,0,-1
EndSplineSet
Substitution2: "'smcp' Lowercase to Small Capitals lookup 33 subtable" z.sc
Substitution2: "'aalt' Access All Alternates lookup 0 subtable" z.sc
EndChar

StartChar: braceleft
Encoding: 123 123 94
Width: 600
Flags: W
LayerCount: 2
Fore
SplineSet
469 -165 m 1,0,1
 382 -165 382 -165 332.5 -150 c 128,-1,2
 283 -135 283 -135 263 -100.5 c 128,-1,3
 243 -66 243 -66 243 -6 c 2,4,-1
 243 131 l 2,5,6
 243 174 243 174 213.5 195.5 c 128,-1,7
 184 217 184 217 131 217 c 1,8,-1
 131 339 l 1,9,10
 184 339 184 339 213.5 359.5 c 128,-1,11
 243 380 243 380 243 425 c 2,12,-1
 243 563 l 2,13,14
 243 619 243 619 261.5 653.5 c 128,-1,15
 280 688 280 688 329 704 c 128,-1,16
 378 720 378 720 469 721 c 1,17,-1
 469 602 l 1,18,19
 431 600 431 600 406.5 590 c 128,-1,20
 382 580 382 580 382 541 c 2,21,-1
 382 400 l 2,22,23
 382 346 382 346 357 317.5 c 128,-1,24
 332 289 332 289 280 281 c 1,25,-1
 280 275 l 1,26,27
 382 259 382 259 382 158 c 2,28,-1
 382 16 l 2,29,30
 382 -21 382 -21 404.5 -32.5 c 128,-1,31
 427 -44 427 -44 469 -46 c 1,32,-1
 469 -165 l 1,0,1
EndSplineSet
Substitution2: "'smcp' Lowercase to Small Capitals lookup 33 subtable" braceleft.sc
Substitution2: "'c2sc' Capitals to Small Capitals lookup 32 subtable" braceleft.sc
Substitution2: "'aalt' Access All Alternates lookup 0 subtable" braceleft.sc
EndChar

StartChar: bar
Encoding: 124 124 95
Width: 600
Flags: W
LayerCount: 2
Fore
SplineSet
238 -240 m 1,0,-1
 238 760 l 1,1,-1
 361 760 l 1,2,-1
 361 -240 l 1,3,-1
 238 -240 l 1,0,-1
EndSplineSet
EndChar

StartChar: asciitilde
Encoding: 126 126 97
Width: 600
Flags: W
LayerCount: 2
Fore
SplineSet
70 263 m 1,0,-1
 70 388 l 1,1,2
 118 441 118 441 190 441 c 0,3,4
 220 441 220 441 249 433.5 c 128,-1,5
 278 426 278 426 316 410 c 0,6,7
 349 396 349 396 374.5 389.5 c 128,-1,8
 400 383 400 383 423 383 c 0,9,10
 448 383 448 383 476.5 399.5 c 128,-1,11
 505 416 505 416 529 442 c 1,12,-1
 529 317 l 1,13,14
 483 265 483 265 410 265 c 0,15,16
 380 265 380 265 351 271 c 128,-1,17
 322 277 322 277 283 295 c 0,18,19
 250 310 250 310 225 316 c 128,-1,20
 200 322 200 322 177 322 c 0,21,22
 151 322 151 322 123.5 306 c 128,-1,23
 96 290 96 290 70 263 c 1,0,-1
EndSplineSet
EndChar

StartChar: cent
Encoding: 162 162 100
Width: 600
Flags: W
LayerCount: 2
Fore
SplineSet
296 -10 m 1,0,-1
 296 84 l 1,1,2
 182 95 182 95 122.5 166 c 128,-1,3
 63 237 63 237 61 362 c 0,4,5
 63 488 63 488 124.5 559 c 128,-1,6
 186 630 186 630 296 643 c 1,7,-1
 296 724 l 1,8,-1
 383 724 l 1,9,-1
 383 648 l 1,10,11
 426 645 426 645 469 635 c 128,-1,12
 512 625 512 625 539 610 c 1,13,-1
 496 489 l 1,14,15
 468 504 468 504 430.5 512 c 128,-1,16
 393 520 393 520 363 520 c 0,17,18
 295 520 295 520 255 483 c 128,-1,19
 215 446 215 446 215 363 c 0,20,21
 215 281 215 281 253.5 245 c 128,-1,22
 292 209 292 209 362 209 c 0,23,24
 403 209 403 209 447.5 220.5 c 128,-1,25
 492 232 492 232 524 253 c 1,26,-1
 524 122 l 1,27,28
 499 106 499 106 460 96 c 128,-1,29
 421 86 421 86 383 82 c 1,30,-1
 383 -10 l 1,31,-1
 296 -10 l 1,0,-1
EndSplineSet
EndChar

StartChar: sterling
Encoding: 163 163 101
Width: 600
Flags: W
LayerCount: 2
Fore
SplineSet
76 0 m 1,0,-1
 76 131 l 1,1,2
 115 152 115 152 135 176 c 128,-1,3
 155 200 155 200 155 252 c 2,4,-1
 155 310 l 1,5,-1
 80 310 l 1,6,-1
 80 425 l 1,7,-1
 155 425 l 1,8,-1
 155 515 l 2,9,10
 155 622 155 622 215.5 673 c 128,-1,11
 276 724 276 724 373 724 c 0,12,13
 420 724 420 724 461.5 713.5 c 128,-1,14
 503 703 503 703 540 684 c 1,15,-1
 496 562 l 1,16,17
 466 576 466 576 442.5 583 c 128,-1,18
 419 590 419 590 390 590 c 0,19,20
 356 590 356 590 333.5 572.5 c 128,-1,21
 311 555 311 555 311 514 c 2,22,-1
 311 425 l 1,23,-1
 467 425 l 1,24,-1
 467 310 l 1,25,-1
 311 310 l 1,26,-1
 311 253 l 2,27,28
 311 208 311 208 289.5 180.5 c 128,-1,29
 268 153 268 153 236 137 c 1,30,-1
 544 137 l 1,31,-1
 544 0 l 1,32,-1
 76 0 l 1,0,-1
EndSplineSet
EndChar

StartChar: currency
Encoding: 164 164 102
Width: 600
Flags: W
LayerCount: 2
Fore
SplineSet
466 132 m 1,0,-1
 400 197 l 1,1,2
 352 170 352 170 299 170 c 0,3,4
 242 170 242 170 196 196 c 1,5,-1
 132 133 l 1,6,-1
 56 209 l 1,7,-1
 121 273 l 1,8,9
 94 321 94 321 94 375 c 256,10,11
 94 429 94 429 121 477 c 1,12,-1
 55 542 l 1,13,-1
 132 619 l 1,14,-1
 197 554 l 1,15,16
 244 581 244 581 299 581 c 0,17,18
 355 581 355 581 400 552 c 1,19,-1
 466 619 l 1,20,-1
 545 544 l 1,21,-1
 478 478 l 1,22,23
 505 430 505 430 505 375 c 256,24,25
 505 320 505 320 478 272 c 1,26,-1
 542 208 l 1,27,-1
 466 132 l 1,0,-1
299 282 m 0,28,29
 342 282 342 282 368.5 308 c 128,-1,30
 395 334 395 334 395 375 c 256,31,32
 395 416 395 416 368.5 443 c 128,-1,33
 342 470 342 470 299 470 c 256,34,35
 256 470 256 470 230.5 442.5 c 128,-1,36
 205 415 205 415 205 375 c 0,37,38
 205 334 205 334 231.5 308 c 128,-1,39
 258 282 258 282 299 282 c 0,28,29
EndSplineSet
EndChar

StartChar: yen
Encoding: 165 165 103
Width: 600
Flags: W
LayerCount: 2
Fore
SplineSet
224 0 m 1,0,-1
 224 105 l 1,1,-1
 82 105 l 1,2,-1
 82 199 l 1,3,-1
 224 199 l 1,4,-1
 224 265 l 1,5,-1
 82 265 l 1,6,-1
 82 359 l 1,7,-1
 198 359 l 1,8,-1
 20 714 l 1,9,-1
 185 714 l 1,10,-1
 300 446 l 1,11,-1
 415 714 l 1,12,-1
 580 714 l 1,13,-1
 400 359 l 1,14,-1
 517 359 l 1,15,-1
 517 265 l 1,16,-1
 376 265 l 1,17,-1
 376 199 l 1,18,-1
 517 199 l 1,19,-1
 517 105 l 1,20,-1
 376 105 l 1,21,-1
 376 0 l 1,22,-1
 224 0 l 1,0,-1
EndSplineSet
EndChar

StartChar: brokenbar
Encoding: 166 166 104
Width: 600
Flags: W
LayerCount: 2
Fore
SplineSet
238 359 m 1,0,-1
 238 758 l 1,1,-1
 361 758 l 1,2,-1
 361 359 l 1,3,-1
 238 359 l 1,0,-1
238 -227 m 1,4,-1
 238 173 l 1,5,-1
 361 173 l 1,6,-1
 361 -227 l 1,7,-1
 238 -227 l 1,4,-1
EndSplineSet
EndChar

StartChar: section
Encoding: 167 167 105
Width: 600
Flags: W
LayerCount: 2
Fore
SplineSet
276 -10 m 256,0,1
 172 -10 172 -10 99 31 c 1,2,-1
 99 141 l 1,3,4
 138 120 138 120 188 105 c 128,-1,5
 238 90 238 90 274 90 c 0,6,7
 317 90 317 90 336 104 c 128,-1,8
 355 118 355 118 355 141 c 0,9,10
 355 156 355 156 348 167 c 128,-1,11
 341 178 341 178 320.5 189.5 c 128,-1,12
 300 201 300 201 261 218 c 0,13,14
 179 253 179 253 138 288.5 c 128,-1,15
 97 324 97 324 97 386 c 0,16,17
 97 426 97 426 119.5 457 c 128,-1,18
 142 488 142 488 177 507 c 1,19,20
 106 552 106 552 106 624 c 0,21,22
 106 688 106 688 161.5 726.5 c 128,-1,23
 217 765 217 765 311 765 c 0,24,25
 361 765 361 765 406.5 754.5 c 128,-1,26
 452 744 452 744 495 725 c 1,27,-1
 449 624 l 1,28,29
 414 642 414 642 379 653.5 c 128,-1,30
 344 665 344 665 313 665 c 0,31,32
 247 665 247 665 247 623 c 0,33,34
 247 602 247 602 269.5 586 c 128,-1,35
 292 570 292 570 342 550 c 0,36,37
 424 518 424 518 464 480 c 128,-1,38
 504 442 504 442 504 384 c 0,39,40
 504 341 504 341 484.5 312 c 128,-1,41
 465 283 465 283 432 261 c 1,42,43
 496 218 496 218 496 147 c 256,44,45
 496 76 496 76 438 33 c 128,-1,46
 380 -10 380 -10 276 -10 c 256,0,1
343 307 m 1,47,48
 354 317 354 317 363 331.5 c 128,-1,49
 372 346 372 346 372 366 c 0,50,51
 372 396 372 396 349.5 417.5 c 128,-1,52
 327 439 327 439 266 462 c 1,53,54
 251 454 251 454 240 439.5 c 128,-1,55
 229 425 229 425 229 404 c 0,56,57
 229 378 229 378 251.5 359 c 128,-1,58
 274 340 274 340 321 317 c 2,59,-1
 343 307 l 1,47,48
EndSplineSet
EndChar

StartChar: dieresis
Encoding: 168 168 106
Width: 600
GlyphClass: 2
Flags: W
AnchorPoint: "Anchor-13" 300 659 basemark 0
AnchorPoint: "Anchor-13" 300 549 mark 0
AnchorPoint: "Anchor-8" 300 549 mark 0
AnchorPoint: "Anchor-3" 300 549 mark 0
LayerCount: 2
Fore
SplineSet
421 609 m 0,0,1
 386 609 386 609 364.5 629 c 128,-1,2
 343 649 343 649 343 687 c 0,3,4
 343 727 343 727 364.5 746 c 128,-1,5
 386 765 386 765 421 765 c 0,6,7
 455 765 455 765 477 745.5 c 128,-1,8
 499 726 499 726 499 687 c 0,9,10
 499 649 499 649 477 629 c 128,-1,11
 455 609 455 609 421 609 c 0,0,1
181 609 m 0,12,13
 148 609 148 609 126 628.5 c 128,-1,14
 104 648 104 648 104 687 c 0,15,16
 104 727 104 727 126 746 c 128,-1,17
 148 765 148 765 181 765 c 0,18,19
 215 765 215 765 237.5 745.5 c 128,-1,20
 260 726 260 726 260 687 c 0,21,22
 260 649 260 649 237.5 629 c 128,-1,23
 215 609 215 609 181 609 c 0,12,13
EndSplineSet
EndChar

StartChar: copyright
Encoding: 169 169 107
Width: 600
Flags: W
LayerCount: 2
Fore
SplineSet
299 78 m 0,0,1
 212 78 212 78 150.5 115.5 c 128,-1,2
 89 153 89 153 56 216 c 128,-1,3
 23 279 23 279 23 355 c 0,4,5
 23 436 23 436 59 498 c 128,-1,6
 95 560 95 560 157.5 595 c 128,-1,7
 220 630 220 630 300 630 c 0,8,9
 382 630 382 630 444 594 c 128,-1,10
 506 558 506 558 541.5 495.5 c 128,-1,11
 577 433 577 433 577 353 c 0,12,13
 577 270 577 270 540.5 208 c 128,-1,14
 504 146 504 146 441 112 c 128,-1,15
 378 78 378 78 299 78 c 0,0,1
299 146 m 0,16,17
 358 146 358 146 404 172.5 c 128,-1,18
 450 199 450 199 475.5 246.5 c 128,-1,19
 501 294 501 294 501 356 c 0,20,21
 501 420 501 420 474.5 466.5 c 128,-1,22
 448 513 448 513 402.5 538 c 128,-1,23
 357 563 357 563 300 563 c 0,24,25
 238 563 238 563 193 535.5 c 128,-1,26
 148 508 148 508 123.5 461 c 128,-1,27
 99 414 99 414 99 355 c 0,28,29
 99 292 99 292 124 245 c 128,-1,30
 149 198 149 198 194 172 c 128,-1,31
 239 146 239 146 299 146 c 0,16,17
306 184 m 0,32,33
 231 184 231 184 190 229.5 c 128,-1,34
 149 275 149 275 149 355 c 0,35,36
 149 434 149 434 190 479.5 c 128,-1,37
 231 525 231 525 306 525 c 0,38,39
 358 525 358 525 409 500 c 1,40,-1
 382 433 l 1,41,42
 347 452 347 452 310 452 c 0,43,44
 276 452 276 452 255 426.5 c 128,-1,45
 234 401 234 401 234 353 c 0,46,47
 234 258 234 258 312 258 c 0,48,49
 353 258 353 258 396 278 c 1,50,-1
 396 204 l 1,51,52
 375 194 375 194 353.5 189 c 128,-1,53
 332 184 332 184 306 184 c 0,32,33
EndSplineSet
EndChar

StartChar: ordfeminine
Encoding: 170 170 108
Width: 600
Flags: W
LayerCount: 2
Fore
SplineSet
255 365 m 0,0,1
 204 365 204 365 172 392 c 128,-1,2
 140 419 140 419 140 473 c 0,3,4
 140 535 140 535 184 559 c 128,-1,5
 228 583 228 583 309 587 c 2,6,-1
 356 589 l 1,7,-1
 356 596 l 2,8,9
 356 642 356 642 297 642 c 0,10,11
 252 642 252 642 197 616 c 1,12,-1
 165 685 l 1,13,14
 196 701 196 701 233 711.5 c 128,-1,15
 270 722 270 722 313 722 c 0,16,17
 388 722 388 722 423.5 686.5 c 128,-1,18
 459 651 459 651 459 588 c 2,19,-1
 459 371 l 1,20,-1
 391 371 l 1,21,-1
 374 426 l 1,22,23
 352 397 352 397 323.5 381 c 128,-1,24
 295 365 295 365 255 365 c 0,0,1
285 441 m 0,25,26
 317 441 317 441 336.5 462 c 128,-1,27
 356 483 356 483 356 513 c 2,28,-1
 356 529 l 1,29,-1
 310 526 l 2,30,31
 269 523 269 523 256.5 508.5 c 128,-1,32
 244 494 244 494 244 478 c 0,33,34
 244 441 244 441 285 441 c 0,25,26
EndSplineSet
EndChar

StartChar: guillemotleft
Encoding: 171 171 109
Width: 600
Flags: W
LayerCount: 2
Fore
SplineSet
443 45 m 1,0,-1
 274 270 l 1,1,-1
 274 284 l 1,2,-1
 443 510 l 1,3,-1
 554 450 l 1,4,-1
 436 277 l 1,5,-1
 554 105 l 1,6,-1
 443 45 l 1,0,-1
215 45 m 1,7,-1
 46 270 l 1,8,-1
 46 284 l 1,9,-1
 215 510 l 1,10,-1
 326 450 l 1,11,-1
 207 277 l 1,12,-1
 326 105 l 1,13,-1
 215 45 l 1,7,-1
EndSplineSet
EndChar

StartChar: logicalnot
Encoding: 172 172 110
Width: 600
Flags: W
LayerCount: 2
Fore
SplineSet
403 118 m 1,0,-1
 403 294 l 1,1,-1
 68 294 l 1,2,-1
 68 412 l 1,3,-1
 522 412 l 1,4,-1
 522 118 l 1,5,-1
 403 118 l 1,0,-1
EndSplineSet
EndChar

StartChar: registered
Encoding: 174 174 112
Width: 600
Flags: W
LayerCount: 2
Fore
SplineSet
297 76 m 0,0,1
 212 76 212 76 150.5 114 c 128,-1,2
 89 152 89 152 56 215 c 128,-1,3
 23 278 23 278 23 355 c 0,4,5
 23 436 23 436 59.5 498 c 128,-1,6
 96 560 96 560 158.5 595 c 128,-1,7
 221 630 221 630 300 630 c 0,8,9
 380 630 380 630 442.5 594 c 128,-1,10
 505 558 505 558 540.5 495.5 c 128,-1,11
 576 433 576 433 576 352 c 0,12,13
 576 268 576 268 539.5 206 c 128,-1,14
 503 144 503 144 439.5 110 c 128,-1,15
 376 76 376 76 297 76 c 0,0,1
298 145 m 256,16,17
 358 145 358 145 403.5 171.5 c 128,-1,18
 449 198 449 198 474.5 245.5 c 128,-1,19
 500 293 500 293 500 356 c 0,20,21
 500 420 500 420 473.5 466 c 128,-1,22
 447 512 447 512 401.5 537 c 128,-1,23
 356 562 356 562 299 562 c 0,24,25
 238 562 238 562 193 534.5 c 128,-1,26
 148 507 148 507 123.5 459.5 c 128,-1,27
 99 412 99 412 99 353 c 0,28,29
 99 292 99 292 124 245 c 128,-1,30
 149 198 149 198 193.5 171.5 c 128,-1,31
 238 145 238 145 298 145 c 256,16,17
190 202 m 1,32,-1
 190 512 l 1,33,-1
 289 512 l 2,34,35
 412 512 412 512 412 416 c 0,36,37
 412 353 412 353 363 330 c 1,38,-1
 426 202 l 1,39,-1
 346 202 l 1,40,-1
 296 316 l 1,41,-1
 264 316 l 1,42,-1
 264 202 l 1,43,-1
 190 202 l 1,32,-1
264 372 m 1,44,-1
 284 372 l 2,45,46
 307 372 307 372 320.5 382 c 128,-1,47
 334 392 334 392 334 415 c 0,48,49
 334 435 334 435 322.5 443.5 c 128,-1,50
 311 452 311 452 285 452 c 2,51,-1
 264 452 l 1,52,-1
 264 372 l 1,44,-1
EndSplineSet
EndChar

StartChar: overscore
Encoding: 175 175 113
Width: 600
Flags: W
LayerCount: 2
Fore
SplineSet
143 623 m 1,0,-1
 143 729 l 1,1,-1
 457 729 l 1,2,-1
 457 623 l 1,3,-1
 143 623 l 1,0,-1
EndSplineSet
EndChar

StartChar: degree
Encoding: 176 176 114
Width: 600
Flags: W
LayerCount: 2
Fore
SplineSet
300 400 m 0,0,1
 253 400 253 400 216 421 c 128,-1,2
 179 442 179 442 157.5 479 c 128,-1,3
 136 516 136 516 136 562 c 256,4,5
 136 608 136 608 158 645 c 128,-1,6
 180 682 180 682 217.5 703 c 128,-1,7
 255 724 255 724 300 724 c 0,8,9
 346 724 346 724 383 702.5 c 128,-1,10
 420 681 420 681 442.5 644.5 c 128,-1,11
 465 608 465 608 465 562 c 256,12,13
 465 516 465 516 444 479 c 128,-1,14
 423 442 423 442 385.5 421 c 128,-1,15
 348 400 348 400 300 400 c 0,0,1
300 495 m 0,16,17
 332 495 332 495 349.5 514.5 c 128,-1,18
 367 534 367 534 367 562 c 0,19,20
 367 594 367 594 347.5 612 c 128,-1,21
 328 630 328 630 300 630 c 256,22,23
 272 630 272 630 253 611.5 c 128,-1,24
 234 593 234 593 234 562 c 0,25,26
 234 533 234 533 252.5 514 c 128,-1,27
 271 495 271 495 300 495 c 0,16,17
EndSplineSet
EndChar

StartChar: plusminus
Encoding: 177 177 115
Width: 600
Flags: W
LayerCount: 2
Fore
SplineSet
242 159 m 1,0,-1
 242 338 l 1,1,-1
 71 338 l 1,2,-1
 71 455 l 1,3,-1
 242 455 l 1,4,-1
 242 637 l 1,5,-1
 361 637 l 1,6,-1
 361 455 l 1,7,-1
 530 455 l 1,8,-1
 530 338 l 1,9,-1
 361 338 l 1,10,-1
 361 159 l 1,11,-1
 242 159 l 1,0,-1
70 0 m 1,12,-1
 70 118 l 1,13,-1
 530 118 l 1,14,-1
 530 0 l 1,15,-1
 70 0 l 1,12,-1
EndSplineSet
EndChar

StartChar: uni00B2
Encoding: 178 178 116
Width: 600
Flags: W
LayerCount: 2
Fore
SplineSet
154 416 m 1,0,-1
 154 507 l 1,1,-1
 247 602 l 2,2,3
 284 639 284 639 306 663 c 128,-1,4
 328 687 328 687 328 718 c 0,5,6
 328 740 328 740 316 750 c 128,-1,7
 304 760 304 760 284 760 c 0,8,9
 262 760 262 760 243 749.5 c 128,-1,10
 224 739 224 739 203 717 c 1,11,-1
 148 791 l 1,12,13
 174 818 174 818 214 836.5 c 128,-1,14
 254 855 254 855 306 855 c 0,15,16
 370 855 370 855 405.5 823.5 c 128,-1,17
 441 792 441 792 441 731 c 0,18,19
 441 691 441 691 425.5 661 c 128,-1,20
 410 631 410 631 381 601.5 c 128,-1,21
 352 572 352 572 311 534 c 2,22,-1
 288 511 l 1,23,-1
 462 511 l 1,24,-1
 462 416 l 1,25,-1
 154 416 l 1,0,-1
EndSplineSet
EndChar

StartChar: uni00B3
Encoding: 179 179 117
Width: 600
Flags: W
LayerCount: 2
Fore
SplineSet
286 408 m 0,0,1
 246 408 246 408 212.5 416 c 128,-1,2
 179 424 179 424 151 441 c 1,3,-1
 151 543 l 1,4,5
 179 522 179 522 212.5 511.5 c 128,-1,6
 246 501 246 501 280 501 c 0,7,8
 343 501 343 501 343 546 c 0,9,10
 343 566 343 566 328.5 578.5 c 128,-1,11
 314 591 314 591 273 591 c 2,12,-1
 226 591 l 1,13,-1
 226 675 l 1,14,-1
 264 675 l 2,15,16
 304 675 304 675 319 688 c 128,-1,17
 334 701 334 701 334 721 c 0,18,19
 334 740 334 740 323.5 751.5 c 128,-1,20
 313 763 313 763 288 763 c 0,21,22
 241 763 241 763 197 726 c 1,23,-1
 148 798 l 1,24,25
 178 824 178 824 216 838.5 c 128,-1,26
 254 853 254 853 300 853 c 0,27,28
 362 853 362 853 400.5 824 c 128,-1,29
 439 795 439 795 439 745 c 0,30,31
 439 671 439 671 367 642 c 1,32,-1
 367 637 l 1,33,34
 452 615 452 615 452 531 c 0,35,36
 452 473 452 473 407.5 440.5 c 128,-1,37
 363 408 363 408 286 408 c 0,0,1
EndSplineSet
EndChar

StartChar: acute
Encoding: 180 180 118
Width: 600
Flags: W
LayerCount: 2
Fore
SplineSet
212 606 m 1,0,-1
 212 619 l 1,1,2
 238 653 238 653 266 692.5 c 128,-1,3
 294 732 294 732 313 766 c 1,4,-1
 489 766 l 1,5,-1
 489 757 l 1,6,7
 471 738 471 738 441 710 c 128,-1,8
 411 682 411 682 378.5 654 c 128,-1,9
 346 626 346 626 321 606 c 1,10,-1
 212 606 l 1,0,-1
EndSplineSet
EndChar

StartChar: uni00B5
Encoding: 181 181 119
Width: 600
GlyphClass: 2
Flags: W
AnchorPoint: "Anchor-4" 580 549 basechar 0
AnchorPoint: "Anchor-3" 300 549 basechar 0
AnchorPoint: "Anchor-2" 540 10 basechar 0
AnchorPoint: "Anchor-0" 300 0 basechar 0
LayerCount: 2
Fore
SplineSet
230 -10 m 0,0,1
 216 -10 216 -10 204 -9 c 1,2,-1
 204 -240 l 1,3,-1
 45 -240 l 1,4,-1
 45 549 l 1,5,-1
 204 549 l 1,6,-1
 204 236 l 2,7,8
 204 180 204 180 222.5 149.5 c 128,-1,9
 241 119 241 119 288 119 c 0,10,11
 330 119 330 119 352.5 140 c 128,-1,12
 375 161 375 161 383 198 c 128,-1,13
 391 235 391 235 391 283 c 2,14,-1
 391 549 l 1,15,-1
 550 549 l 1,16,-1
 550 0 l 1,17,-1
 430 0 l 1,18,-1
 407 70 l 1,19,-1
 398 70 l 1,20,21
 347 -10 347 -10 230 -10 c 0,0,1
EndSplineSet
EndChar

StartChar: paragraph
Encoding: 182 182 120
Width: 600
Flags: W
LayerCount: 2
Fore
SplineSet
321 -127 m 1,0,-1
 321 273 l 1,1,2
 308 268 308 268 294 266 c 128,-1,3
 280 264 280 264 260 264 c 0,4,5
 151 264 151 264 93 321 c 128,-1,6
 35 378 35 378 35 509 c 0,7,8
 35 643 35 643 97 701.5 c 128,-1,9
 159 760 159 760 274 760 c 2,10,-1
 555 760 l 1,11,-1
 555 -127 l 1,12,-1
 473 -127 l 1,13,-1
 473 671 l 1,14,-1
 403 671 l 1,15,-1
 403 -127 l 1,16,-1
 321 -127 l 1,0,-1
EndSplineSet
EndChar

StartChar: cedilla
Encoding: 184 184 122
Width: 600
Flags: W
LayerCount: 2
Fore
SplineSet
273 -240 m 0,0,1
 228 -240 228 -240 193 -229 c 1,2,-1
 193 -147 l 1,3,4
 222 -156 222 -156 248 -156 c 0,5,6
 269 -156 269 -156 282 -148 c 128,-1,7
 295 -140 295 -140 295 -122 c 0,8,9
 295 -85 295 -85 223 -78 c 1,10,-1
 257 5 l 1,11,-1
 337 5 l 1,12,-1
 324 -34 l 1,13,14
 362 -42 362 -42 386.5 -65 c 128,-1,15
 411 -88 411 -88 411 -132 c 0,16,17
 411 -181 411 -181 377.5 -210.5 c 128,-1,18
 344 -240 344 -240 273 -240 c 0,0,1
EndSplineSet
EndChar

StartChar: uni00B9
Encoding: 185 185 123
Width: 600
Flags: W
LayerCount: 2
Fore
SplineSet
168 416 m 1,0,-1
 168 492 l 1,1,-1
 268 501 l 1,2,-1
 268 613 l 2,3,4
 268 636 268 636 269 669 c 128,-1,5
 270 702 270 702 272 724 c 1,6,7
 264 718 264 718 254.5 711 c 128,-1,8
 245 704 245 704 238 700 c 2,9,-1
 189 669 l 1,10,-1
 140 750 l 1,11,-1
 291 844 l 1,12,-1
 374 844 l 1,13,-1
 374 501 l 1,14,-1
 470 492 l 1,15,-1
 470 416 l 1,16,-1
 168 416 l 1,0,-1
EndSplineSet
EndChar

StartChar: ordmasculine
Encoding: 186 186 124
Width: 600
Flags: W
LayerCount: 2
Fore
SplineSet
298 365 m 0,0,1
 228 365 228 365 183 412 c 128,-1,2
 138 459 138 459 138 544 c 0,3,4
 138 630 138 630 181.5 676 c 128,-1,5
 225 722 225 722 300 722 c 0,6,7
 369 722 369 722 415.5 675.5 c 128,-1,8
 462 629 462 629 462 544 c 0,9,10
 462 458 462 458 417.5 411.5 c 128,-1,11
 373 365 373 365 298 365 c 0,0,1
299 449 m 0,12,13
 356 449 356 449 356 544 c 256,14,15
 356 639 356 639 299 639 c 0,16,17
 241 639 241 639 241 544 c 256,18,19
 241 449 241 449 299 449 c 0,12,13
EndSplineSet
EndChar

StartChar: AE
Encoding: 198 198 136
Width: 600
GlyphClass: 2
Flags: W
AnchorPoint: "Anchor-3" 331 714 basechar 0
AnchorPoint: "Anchor-0" 300 0 basechar 0
LayerCount: 2
Fore
SplineSet
8 0 m 1,0,-1
 175 714 l 1,1,-1
 579 714 l 1,2,-1
 579 578 l 1,3,-1
 452 578 l 1,4,-1
 452 438 l 1,5,-1
 562 438 l 1,6,-1
 562 302 l 1,7,-1
 452 302 l 1,8,-1
 452 136 l 1,9,-1
 579 136 l 1,10,-1
 579 0 l 1,11,-1
 310 0 l 1,12,-1
 310 164 l 1,13,-1
 194 164 l 1,14,-1
 159 0 l 1,15,-1
 8 0 l 1,0,-1
281 578 m 1,16,-1
 222 300 l 1,17,-1
 310 300 l 1,18,-1
 310 578 l 1,19,-1
 281 578 l 1,16,-1
EndSplineSet
Substitution2: "'c2sc' Capitals to Small Capitals lookup 32 subtable" ae.sc
Substitution2: "'aalt' Access All Alternates lookup 0 subtable" ae.sc
EndChar

StartChar: Eth
Encoding: 208 208 146
Width: 600
GlyphClass: 2
Flags: W
AnchorPoint: "Anchor-4" 600 714 basechar 0
AnchorPoint: "Anchor-3" 300 714 basechar 0
AnchorPoint: "Anchor-1" 307 357 basechar 0
AnchorPoint: "Anchor-0" 300 0 basechar 0
LayerCount: 2
Fore
SplineSet
43 0 m 1,0,-1
 43 287 l 1,1,-1
 0 287 l 1,2,-1
 0 419 l 1,3,-1
 43 419 l 1,4,-1
 43 714 l 1,5,-1
 261 714 l 2,6,7
 407 714 407 714 491 625.5 c 128,-1,8
 575 537 575 537 575 367 c 0,9,10
 575 248 575 248 535 166 c 128,-1,11
 495 84 495 84 422 42 c 128,-1,12
 349 0 349 0 249 0 c 2,13,-1
 43 0 l 1,0,-1
196 133 m 1,14,-1
 246 133 l 2,15,16
 332 133 332 133 373 190.5 c 128,-1,17
 414 248 414 248 414 363 c 0,18,19
 414 476 414 476 374.5 528.5 c 128,-1,20
 335 581 335 581 257 581 c 2,21,-1
 196 581 l 1,22,-1
 196 419 l 1,23,-1
 295 419 l 1,24,-1
 295 287 l 1,25,-1
 196 287 l 1,26,-1
 196 133 l 1,14,-1
EndSplineSet
Substitution2: "'c2sc' Capitals to Small Capitals lookup 32 subtable" eth.sc
Substitution2: "'aalt' Access All Alternates lookup 0 subtable" eth.sc
EndChar

StartChar: multiply
Encoding: 215 215 153
Width: 600
Flags: W
LayerCount: 2
Fore
SplineSet
161 132 m 1,0,-1
 79 216 l 1,1,-1
 213 353 l 1,2,-1
 78 489 l 1,3,-1
 161 575 l 1,4,-1
 299 439 l 1,5,-1
 437 575 l 1,6,-1
 522 491 l 1,7,-1
 383 353 l 1,8,-1
 520 215 l 1,9,-1
 437 132 l 1,10,-1
 299 269 l 1,11,-1
 161 132 l 1,0,-1
EndSplineSet
EndChar

StartChar: Oslash
Encoding: 216 216 154
Width: 600
GlyphClass: 2
Flags: W
AnchorPoint: "Anchor-4" 600 714 basechar 0
AnchorPoint: "Anchor-3" 300 714 basechar 0
AnchorPoint: "Anchor-2" 296 10 basechar 0
AnchorPoint: "Anchor-1" 300 357 basechar 0
AnchorPoint: "Anchor-0" 300 0 basechar 0
LayerCount: 2
Fore
SplineSet
93 -45 m 1,0,-1
 7 13 l 1,1,-1
 75 113 l 1,2,3
 49 159 49 159 37 220.5 c 128,-1,4
 25 282 25 282 25 358 c 0,5,6
 25 534 25 534 92 630 c 128,-1,7
 159 726 159 726 300 726 c 0,8,9
 394 726 394 726 457 682 c 1,10,-1
 506 755 l 1,11,-1
 591 699 l 1,12,-1
 526 602 l 1,13,14
 551 556 551 556 563 494.5 c 128,-1,15
 575 433 575 433 575 358 c 0,16,17
 575 184 575 184 509 87 c 128,-1,18
 443 -10 443 -10 300 -10 c 0,19,20
 207 -10 207 -10 145 33 c 1,21,-1
 93 -45 l 1,0,-1
187 358 m 0,22,23
 187 317 187 317 190 285 c 1,24,-1
 372 556 l 1,25,26
 346 589 346 589 300 589 c 0,27,28
 239 589 239 589 213 532.5 c 128,-1,29
 187 476 187 476 187 358 c 0,22,23
300 127 m 0,30,31
 361 127 361 127 387 184 c 128,-1,32
 413 241 413 241 413 359 c 0,33,34
 413 398 413 398 410 429 c 1,35,-1
 229 158 l 1,36,37
 255 127 255 127 300 127 c 0,30,31
EndSplineSet
Substitution2: "'c2sc' Capitals to Small Capitals lookup 32 subtable" oslash.sc
Substitution2: "'aalt' Access All Alternates lookup 0 subtable" oslash.sc
EndChar

StartChar: Thorn
Encoding: 222 222 160
Width: 600
GlyphClass: 2
Flags: W
AnchorPoint: "Anchor-3" 300 714 basechar 0
AnchorPoint: "Anchor-0" 300 0 basechar 0
LayerCount: 2
Fore
SplineSet
71 0 m 1,0,-1
 71 714 l 1,1,-1
 222 714 l 1,2,-1
 222 594 l 1,3,-1
 320 594 l 2,4,5
 443 594 443 594 504 535.5 c 128,-1,6
 565 477 565 477 565 369 c 0,7,8
 565 300 565 300 539.5 245 c 128,-1,9
 514 190 514 190 458.5 158 c 128,-1,10
 403 126 403 126 313 126 c 2,11,-1
 222 126 l 1,12,-1
 222 0 l 1,13,-1
 71 0 l 1,0,-1
222 259 m 1,14,-1
 296 259 l 2,15,16
 406 259 406 259 406 365 c 0,17,18
 406 412 406 412 383 436.5 c 128,-1,19
 360 461 360 461 307 461 c 2,20,-1
 222 461 l 1,21,-1
 222 259 l 1,14,-1
EndSplineSet
Substitution2: "'c2sc' Capitals to Small Capitals lookup 32 subtable" thorn.sc
Substitution2: "'aalt' Access All Alternates lookup 0 subtable" thorn.sc
EndChar

StartChar: germandbls
Encoding: 223 223 161
Width: 600
GlyphClass: 2
Flags: W
AnchorPoint: "Anchor-3" 300 765 basechar 0
AnchorPoint: "Anchor-0" 300 0 basechar 0
LayerCount: 2
Fore
SplineSet
384 -10 m 0,0,1
 350 -10 350 -10 313 -3.5 c 128,-1,2
 276 3 276 3 247 20 c 1,3,-1
 247 153 l 1,4,5
 271 136 271 136 304.5 125 c 128,-1,6
 338 114 338 114 367 114 c 0,7,8
 427 114 427 114 427 164 c 0,9,10
 427 178 427 178 420.5 187.5 c 128,-1,11
 414 197 414 197 397 209.5 c 128,-1,12
 380 222 380 222 349 244 c 0,13,14
 302 276 302 276 278.5 306 c 128,-1,15
 255 336 255 336 255 379 c 0,16,17
 255 411 255 411 267 433 c 128,-1,18
 279 455 279 455 296 471.5 c 128,-1,19
 313 488 313 488 330.5 502.5 c 128,-1,20
 348 517 348 517 360 534 c 128,-1,21
 372 551 372 551 372 574 c 0,22,23
 372 605 372 605 349.5 620.5 c 128,-1,24
 327 636 327 636 292 636 c 0,25,26
 243 636 243 636 222 609 c 128,-1,27
 201 582 201 582 201 532 c 2,28,-1
 201 0 l 1,29,-1
 50 0 l 1,30,-1
 50 546 l 2,31,32
 50 651 50 651 116 708 c 128,-1,33
 182 765 182 765 294 765 c 0,34,35
 360 765 360 765 412 745 c 128,-1,36
 464 725 464 725 494.5 686.5 c 128,-1,37
 525 648 525 648 525 593 c 0,38,39
 525 548 525 548 507.5 518.5 c 128,-1,40
 490 489 490 489 466.5 469 c 128,-1,41
 443 449 443 449 425.5 433 c 128,-1,42
 408 417 408 417 408 400 c 0,43,44
 408 380 408 380 431.5 363 c 128,-1,45
 455 346 455 346 487 324 c 0,46,47
 531 291 531 291 556.5 256.5 c 128,-1,48
 582 222 582 222 582 161 c 0,49,50
 582 78 582 78 532.5 34 c 128,-1,51
 483 -10 483 -10 384 -10 c 0,0,1
EndSplineSet
Substitution2: "'smcp' Lowercase to Small Capitals lookup 33 subtable" germandbls.sc
Substitution2: "'aalt' Access All Alternates lookup 0 subtable" germandbls.sc
EndChar

StartChar: ae
Encoding: 230 230 168
Width: 600
GlyphClass: 2
Flags: W
AnchorPoint: "Anchor-3" 300 549 basechar 0
AnchorPoint: "Anchor-0" 300 0 basechar 0
LayerCount: 2
Fore
SplineSet
155 -10 m 0,0,1
 84 -10 84 -10 46 34 c 128,-1,2
 8 78 8 78 8 157 c 0,3,4
 8 247 8 247 54 288.5 c 128,-1,5
 100 330 100 330 178 334 c 2,6,-1
 239 336 l 1,7,-1
 239 371 l 2,8,9
 239 404 239 404 221.5 418.5 c 128,-1,10
 204 433 204 433 170 433 c 0,11,12
 148 433 148 433 128 428 c 128,-1,13
 108 423 108 423 86 413 c 1,14,-1
 37 520 l 1,15,16
 73 540 73 540 109.5 549.5 c 128,-1,17
 146 559 146 559 185 559 c 0,18,19
 226 559 226 559 256 549 c 128,-1,20
 286 539 286 539 312 517 c 1,21,22
 364 559 364 559 426 559 c 256,23,24
 488 559 488 559 524.5 525 c 128,-1,25
 561 491 561 491 576.5 433.5 c 128,-1,26
 592 376 592 376 592 306 c 2,27,-1
 592 236 l 1,28,-1
 370 236 l 1,29,30
 372 174 372 174 400 142.5 c 128,-1,31
 428 111 428 111 478 111 c 0,32,33
 524 111 524 111 567 145 c 1,34,-1
 567 28 l 1,35,36
 546 9 546 9 515 -0.5 c 128,-1,37
 484 -10 484 -10 448 -10 c 0,38,39
 396 -10 396 -10 358 11 c 128,-1,40
 320 32 320 32 293 72 c 1,41,42
 267 32 267 32 235.5 11 c 128,-1,43
 204 -10 204 -10 155 -10 c 0,0,1
371 333 m 1,44,-1
 465 333 l 1,45,46
 464 382 464 382 453.5 407.5 c 128,-1,47
 443 433 443 433 419 433 c 0,48,49
 393 433 393 433 382.5 405 c 128,-1,50
 372 377 372 377 371 333 c 1,44,-1
189 109 m 0,51,52
 218 109 218 109 228.5 136 c 128,-1,53
 239 163 239 163 239 205 c 2,54,-1
 239 249 l 1,55,-1
 211 249 l 2,56,57
 180 249 180 249 163 225.5 c 128,-1,58
 146 202 146 202 146 168 c 0,59,60
 146 109 146 109 189 109 c 0,51,52
EndSplineSet
Substitution2: "'smcp' Lowercase to Small Capitals lookup 33 subtable" ae.sc
Substitution2: "'aalt' Access All Alternates lookup 0 subtable" ae.sc
EndChar

StartChar: eth
Encoding: 240 240 178
Width: 600
GlyphClass: 2
Flags: W
AnchorPoint: "Anchor-4" 580 760 basechar 0
AnchorPoint: "Anchor-3" 300 766 basechar 0
AnchorPoint: "Anchor-1" 300 275 basechar 0
AnchorPoint: "Anchor-0" 300 0 basechar 0
LayerCount: 2
Fore
SplineSet
296 -10 m 0,0,1
 220 -10 220 -10 161.5 19 c 128,-1,2
 103 48 103 48 69 104 c 128,-1,3
 35 160 35 160 35 242 c 0,4,5
 35 320 35 320 65 375 c 128,-1,6
 95 430 95 430 147.5 459 c 128,-1,7
 200 488 200 488 269 488 c 0,8,9
 362 488 362 488 393 442 c 1,10,-1
 397 444 l 1,11,12
 382 479 382 479 359 510.5 c 128,-1,13
 336 542 336 542 307 571 c 1,14,-1
 202 506 l 1,15,-1
 151 584 l 1,16,-1
 233 634 l 1,17,18
 198 660 198 660 159 681 c 1,19,-1
 209 766 l 1,20,21
 279 737 279 737 336 699 c 1,22,-1
 444 765 l 1,23,-1
 495 687 l 1,24,-1
 414 637 l 1,25,26
 488 565 488 565 526.5 474.5 c 128,-1,27
 565 384 565 384 565 282 c 0,28,29
 565 142 565 142 493 66 c 128,-1,30
 421 -10 421 -10 296 -10 c 0,0,1
299 105 m 0,31,32
 356 105 356 105 380 143 c 128,-1,33
 404 181 404 181 404 250 c 0,34,35
 404 302 404 302 378.5 337.5 c 128,-1,36
 353 373 353 373 297 373 c 0,37,38
 243 373 243 373 220 339.5 c 128,-1,39
 197 306 197 306 197 241 c 0,40,41
 197 180 197 180 220.5 142.5 c 128,-1,42
 244 105 244 105 299 105 c 0,31,32
EndSplineSet
Substitution2: "'smcp' Lowercase to Small Capitals lookup 33 subtable" eth.sc
Substitution2: "'aalt' Access All Alternates lookup 0 subtable" eth.sc
EndChar

StartChar: divide
Encoding: 247 247 185
Width: 600
Flags: W
LayerCount: 2
Fore
SplineSet
301 460 m 256,0,1
 270 460 270 460 249 479.5 c 128,-1,2
 228 499 228 499 228 539 c 0,3,4
 228 580 228 580 248 599.5 c 128,-1,5
 268 619 268 619 301 619 c 0,6,7
 332 619 332 619 352.5 599.5 c 128,-1,8
 373 580 373 580 373 539 c 0,9,10
 373 499 373 499 352.5 479.5 c 128,-1,11
 332 460 332 460 301 460 c 256,0,1
65 294 m 1,12,-1
 65 412 l 1,13,-1
 535 412 l 1,14,-1
 535 294 l 1,15,-1
 65 294 l 1,12,-1
301 86 m 256,16,17
 270 86 270 86 249 106 c 128,-1,18
 228 126 228 126 228 167 c 256,19,20
 228 208 228 208 248 227 c 128,-1,21
 268 246 268 246 301 246 c 0,22,23
 332 246 332 246 352.5 227 c 128,-1,24
 373 208 373 208 373 167 c 256,25,26
 373 126 373 126 352.5 106 c 128,-1,27
 332 86 332 86 301 86 c 256,16,17
EndSplineSet
EndChar

StartChar: oslash
Encoding: 248 248 186
Width: 600
GlyphClass: 2
Flags: W
AnchorPoint: "Anchor-4" 580 549 basechar 0
AnchorPoint: "Anchor-3" 300 549 basechar 0
AnchorPoint: "Anchor-2" 303 10 basechar 0
AnchorPoint: "Anchor-1" 300 275 basechar 0
AnchorPoint: "Anchor-0" 300 0 basechar 0
LayerCount: 2
Fore
SplineSet
147 -39 m 1,0,-1
 71 11 l 1,1,-1
 107 65 l 1,2,3
 35 142 35 142 35 276 c 0,4,5
 35 360 35 360 65.5 424 c 128,-1,6
 96 488 96 488 154.5 523.5 c 128,-1,7
 213 559 213 559 298 559 c 0,8,9
 366 559 366 559 420 535 c 1,10,-1
 453 585 l 1,11,-1
 528 533 l 1,12,-1
 494 482 l 1,13,14
 565 405 565 405 565 271 c 0,15,16
 565 188 565 188 535.5 124.5 c 128,-1,17
 506 61 506 61 447 25.5 c 128,-1,18
 388 -10 388 -10 302 -10 c 0,19,20
 235 -10 235 -10 182 13 c 1,21,-1
 147 -39 l 1,0,-1
193 274 m 0,22,23
 193 235 193 235 200 206 c 1,24,-1
 344 422 l 1,25,26
 325 431 325 431 301 431 c 0,27,28
 245 431 245 431 219 387.5 c 128,-1,29
 193 344 193 344 193 274 c 0,22,23
301 118 m 0,30,31
 356 118 356 118 381.5 160.5 c 128,-1,32
 407 203 407 203 407 274 c 0,33,34
 407 312 407 312 400 341 c 1,35,-1
 257 127 l 1,36,37
 277 118 277 118 301 118 c 0,30,31
EndSplineSet
Substitution2: "'smcp' Lowercase to Small Capitals lookup 33 subtable" oslash.sc
Substitution2: "'aalt' Access All Alternates lookup 0 subtable" oslash.sc
EndChar

StartChar: thorn
Encoding: 254 254 192
Width: 600
GlyphClass: 2
Flags: W
AnchorPoint: "Anchor-3" 330 760 basechar 0
AnchorPoint: "Anchor-0" 330 -240 basechar 0
LayerCount: 2
Fore
SplineSet
50 -240 m 1,0,-1
 50 760 l 1,1,-1
 207 760 l 1,2,-1
 207 590 l 2,3,4
 207 562 207 562 205 536 c 128,-1,5
 203 510 203 510 200 478 c 1,6,-1
 206 478 l 1,7,8
 233 520 233 520 275 539.5 c 128,-1,9
 317 559 317 559 364 559 c 0,10,11
 436 559 436 559 480.5 520 c 128,-1,12
 525 481 525 481 545 417 c 128,-1,13
 565 353 565 353 565 278 c 0,14,15
 565 145 565 145 509.5 67.5 c 128,-1,16
 454 -10 454 -10 357 -10 c 0,17,18
 316 -10 316 -10 275.5 6.5 c 128,-1,19
 235 23 235 23 206 58 c 1,20,-1
 198 58 l 1,21,22
 201 34 201 34 203.5 10 c 128,-1,23
 206 -14 206 -14 206 -25 c 2,24,-1
 206 -240 l 1,25,-1
 50 -240 l 1,0,-1
308 119 m 0,26,27
 403 119 403 119 403 277 c 0,28,29
 403 352 403 352 380 391 c 128,-1,30
 357 430 357 430 307 430 c 0,31,32
 259 430 259 430 232.5 394.5 c 128,-1,33
 206 359 206 359 206 291 c 2,34,-1
 206 276 l 2,35,36
 206 195 206 195 233 157 c 128,-1,37
 260 119 260 119 308 119 c 0,26,27
EndSplineSet
Substitution2: "'smcp' Lowercase to Small Capitals lookup 33 subtable" thorn.sc
Substitution2: "'aalt' Access All Alternates lookup 0 subtable" thorn.sc
EndChar

StartChar: dcaron
Encoding: 271 271 209
Width: 600
GlyphClass: 2
Flags: W
AnchorPoint: "Anchor-4" 533 760 basechar 0
AnchorPoint: "Anchor-3" 283 760 basechar 0
AnchorPoint: "Anchor-1" 253 275 basechar 0
AnchorPoint: "Anchor-0" 253 0 basechar 0
LayerCount: 2
Fore
SplineSet
208 -10 m 0,0,1
 143 -10 143 -10 102.5 29 c 128,-1,2
 62 68 62 68 43.5 132.5 c 128,-1,3
 25 197 25 197 25 273 c 0,4,5
 25 354 25 354 45 418.5 c 128,-1,6
 65 483 65 483 107.5 521 c 128,-1,7
 150 559 150 559 218 559 c 0,8,9
 262 559 262 559 294.5 540 c 128,-1,10
 327 521 327 521 356 478 c 1,11,-1
 360 478 l 1,12,13
 353 516 353 516 350.5 543 c 128,-1,14
 348 570 348 570 348 601 c 2,15,-1
 348 760 l 1,16,-1
 504 760 l 1,17,-1
 504 0 l 1,18,-1
 385 0 l 1,19,-1
 353 71 l 1,20,-1
 346 71 l 1,21,22
 292 -10 292 -10 208 -10 c 0,0,1
526 600 m 1,23,-1
 526 611 l 1,24,25
 534 640 534 640 543 684 c 128,-1,26
 552 728 552 728 556 760 c 1,27,-1
 701 760 l 1,28,-1
 701 750 l 1,29,30
 684 716 684 716 664.5 678 c 128,-1,31
 645 640 645 640 619 600 c 1,32,-1
 526 600 l 1,23,-1
267 119 m 0,33,34
 314 119 314 119 337.5 155.5 c 128,-1,35
 361 192 361 192 361 257 c 2,36,-1
 361 272 l 2,37,38
 361 342 361 342 342 386 c 128,-1,39
 323 430 323 430 269 430 c 0,40,41
 218 430 218 430 200.5 389 c 128,-1,42
 183 348 183 348 183 276 c 0,43,44
 183 190 183 190 203.5 154.5 c 128,-1,45
 224 119 224 119 267 119 c 0,33,34
EndSplineSet
Substitution2: "'smcp' Lowercase to Small Capitals lookup 33 subtable" dcaron.sc
Substitution2: "'aalt' Access All Alternates lookup 0 subtable" dcaron.sc
EndChar

StartChar: dcroat
Encoding: 273 273 211
Width: 600
GlyphClass: 2
Flags: W
AnchorPoint: "Anchor-4" 580 760 basechar 0
AnchorPoint: "Anchor-3" 300 760 basechar 0
AnchorPoint: "Anchor-1" 300 275 basechar 0
AnchorPoint: "Anchor-0" 300 0 basechar 0
LayerCount: 2
Fore
SplineSet
235 -10 m 0,0,1
 163 -10 163 -10 119 28 c 128,-1,2
 75 66 75 66 55 129 c 128,-1,3
 35 192 35 192 35 267 c 0,4,5
 35 344 35 344 57 407.5 c 128,-1,6
 79 471 79 471 125.5 508 c 128,-1,7
 172 545 172 545 245 545 c 0,8,9
 345 545 345 545 401 463 c 1,10,-1
 406 463 l 1,11,12
 400 497 400 497 397.5 522.5 c 128,-1,13
 395 548 395 548 394 581 c 1,14,-1
 262 581 l 1,15,-1
 262 682 l 1,16,-1
 394 682 l 1,17,-1
 394 760 l 1,18,-1
 550 760 l 1,19,-1
 550 682 l 1,20,-1
 600 682 l 1,21,-1
 600 581 l 1,22,-1
 550 581 l 1,23,-1
 550 0 l 1,24,-1
 430 0 l 1,25,-1
 399 71 l 1,26,-1
 392 71 l 1,27,28
 364 29 364 29 323 9.5 c 128,-1,29
 282 -10 282 -10 235 -10 c 0,0,1
300 119 m 0,30,31
 356 119 356 119 381.5 153.5 c 128,-1,32
 407 188 407 188 407 250 c 2,33,-1
 407 265 l 2,34,35
 407 331 407 331 386.5 373 c 128,-1,36
 366 415 366 415 305 415 c 0,37,38
 196 415 196 415 196 262 c 0,39,40
 196 187 196 187 223 153 c 128,-1,41
 250 119 250 119 300 119 c 0,30,31
EndSplineSet
Substitution2: "'smcp' Lowercase to Small Capitals lookup 33 subtable" dcroat.sc
Substitution2: "'aalt' Access All Alternates lookup 0 subtable" dcroat.sc
EndChar

StartChar: eogonek
Encoding: 281 281 219
Width: 600
GlyphClass: 2
Flags: W
AnchorPoint: "Anchor-4" 580 549 basechar 0
AnchorPoint: "Anchor-3" 300 549 basechar 0
AnchorPoint: "Anchor-2" 308 10 basechar 0
AnchorPoint: "Anchor-0" 320 -238 basechar 0
LayerCount: 2
Fore
SplineSet
344 -10 m 0,0,1
 198 -10 198 -10 121.5 64.5 c 128,-1,2
 45 139 45 139 45 276 c 0,3,4
 45 405 45 405 112.5 482 c 128,-1,5
 180 559 180 559 307 559 c 0,6,7
 426 559 426 559 490 490 c 128,-1,8
 554 421 554 421 554 301 c 2,9,-1
 554 227 l 1,10,-1
 197 227 l 1,11,12
 200 172 200 172 246 144 c 128,-1,13
 292 116 292 116 360 116 c 0,14,15
 402 116 402 116 446.5 126 c 128,-1,16
 491 136 491 136 536 157 c 1,17,-1
 536 29 l 1,18,19
 439 -33 439 -33 439 -98 c 0,20,21
 439 -141 439 -141 480 -141 c 0,22,23
 492 -141 492 -141 504.5 -138 c 128,-1,24
 517 -135 517 -135 526 -131 c 1,25,-1
 526 -225 l 1,26,27
 512 -230 512 -230 494 -234 c 128,-1,28
 476 -238 476 -238 453 -238 c 0,29,30
 394 -238 394 -238 360.5 -208.5 c 128,-1,31
 327 -179 327 -179 327 -127 c 0,32,33
 327 -90 327 -90 342.5 -61 c 128,-1,34
 358 -32 358 -32 383 -9 c 1,35,36
 364 -10 364 -10 344 -10 c 0,0,1
200 334 m 1,37,-1
 411 334 l 1,38,39
 410 384 410 384 381.5 412.5 c 128,-1,40
 353 441 353 441 308 441 c 0,41,42
 262 441 262 441 233 412.5 c 128,-1,43
 204 384 204 384 200 334 c 1,37,-1
EndSplineSet
Substitution2: "'smcp' Lowercase to Small Capitals lookup 33 subtable" eogonek.sc
Substitution2: "'locl' Localized Forms in Latin lookup 11 subtable" eogonek.loclNAV
Ligature2: "'ccmp' Glyph Composition/Decomposition lookup 6 subtable" e uni0328
AlternateSubs2: "'aalt' Access All Alternates lookup 1 subtable" eogonek.loclNAV eogonek.sc
EndChar

StartChar: Hbar
Encoding: 294 294 232
Width: 600
GlyphClass: 2
Flags: W
AnchorPoint: "Anchor-3" 300 714 basechar 0
AnchorPoint: "Anchor-1" 300 357 basechar 0
AnchorPoint: "Anchor-0" 300 0 basechar 0
LayerCount: 2
Fore
SplineSet
54 0 m 1,0,-1
 54 522 l 1,1,-1
 0 522 l 1,2,-1
 0 623 l 1,3,-1
 54 623 l 1,4,-1
 54 714 l 1,5,-1
 214 714 l 1,6,-1
 214 623 l 1,7,-1
 387 623 l 1,8,-1
 387 714 l 1,9,-1
 547 714 l 1,10,-1
 547 623 l 1,11,-1
 600 623 l 1,12,-1
 600 522 l 1,13,-1
 547 522 l 1,14,-1
 547 0 l 1,15,-1
 387 0 l 1,16,-1
 387 304 l 1,17,-1
 214 304 l 1,18,-1
 214 0 l 1,19,-1
 54 0 l 1,0,-1
214 441 m 1,20,-1
 387 441 l 1,21,-1
 387 522 l 1,22,-1
 214 522 l 1,23,-1
 214 441 l 1,20,-1
EndSplineSet
Substitution2: "'c2sc' Capitals to Small Capitals lookup 32 subtable" hbar.sc
Substitution2: "'aalt' Access All Alternates lookup 0 subtable" hbar.sc
EndChar

StartChar: hbar
Encoding: 295 295 233
Width: 600
GlyphClass: 2
Flags: W
AnchorPoint: "Anchor-3" 130 760 basechar 0
AnchorPoint: "Anchor-1" 300 275 basechar 0
AnchorPoint: "Anchor-0" 300 0 basechar 0
LayerCount: 2
Fore
SplineSet
50 0 m 1,0,-1
 50 581 l 1,1,-1
 0 581 l 1,2,-1
 0 682 l 1,3,-1
 50 682 l 1,4,-1
 50 760 l 1,5,-1
 209 760 l 1,6,-1
 209 682 l 1,7,-1
 363 682 l 1,8,-1
 363 581 l 1,9,-1
 209 581 l 1,10,11
 208 548 208 548 206.5 515.5 c 128,-1,12
 205 483 205 483 203 455 c 1,13,-1
 212 455 l 1,14,15
 238 495 238 495 274 515 c 128,-1,16
 310 535 310 535 366 535 c 0,17,18
 459 535 459 535 507 482 c 128,-1,19
 555 429 555 429 555 334 c 2,20,-1
 555 0 l 1,21,-1
 396 0 l 1,22,-1
 396 287 l 2,23,24
 396 350 396 350 375 378 c 128,-1,25
 354 406 354 406 310 406 c 0,26,27
 258 406 258 406 233.5 365.5 c 128,-1,28
 209 325 209 325 209 226 c 2,29,-1
 209 0 l 1,30,-1
 50 0 l 1,0,-1
EndSplineSet
Substitution2: "'smcp' Lowercase to Small Capitals lookup 33 subtable" hbar.sc
Substitution2: "'aalt' Access All Alternates lookup 0 subtable" hbar.sc
EndChar

StartChar: IJ
Encoding: 306 306 243
Width: 600
GlyphClass: 2
LigCaretCntFixed: 1
Flags: W
AnchorPoint: "Anchor-3" 300 714 basechar 0
AnchorPoint: "Anchor-0" 300 0 basechar 0
LayerCount: 2
Fore
SplineSet
257 -10 m 0,0,1
 221 -10 221 -10 173.5 -5 c 128,-1,2
 126 0 126 0 80 11 c 1,3,-1
 80 148 l 1,4,5
 132 138 132 138 166 134 c 128,-1,6
 200 130 200 130 228 130 c 0,7,8
 302 130 302 130 333 163 c 128,-1,9
 364 196 364 196 364 285 c 2,10,-1
 364 714 l 1,11,-1
 520 714 l 1,12,-1
 520 274 l 2,13,14
 520 137 520 137 460 63.5 c 128,-1,15
 400 -10 400 -10 257 -10 c 0,0,1
80 232 m 1,16,-1
 80 714 l 1,17,-1
 233 714 l 1,18,-1
 233 232 l 1,19,-1
 80 232 l 1,16,-1
EndSplineSet
Substitution2: "'c2sc' Capitals to Small Capitals lookup 32 subtable" ij.sc
Substitution2: "'aalt' Access All Alternates lookup 0 subtable" ij.sc
LCarets2: 1 0
EndChar

StartChar: ij
Encoding: 307 307 244
Width: 600
GlyphClass: 2
LigCaretCntFixed: 1
Flags: W
AnchorPoint: "Anchor-3" 300 776 basechar 0
AnchorPoint: "Anchor-0" 306 -245 basechar 0
LayerCount: 2
Fore
SplineSet
161 605 m 0,0,1
 66 605 66 605 66 691 c 0,2,3
 66 776 66 776 162 776 c 0,4,5
 257 776 257 776 257 692 c 0,6,7
 257 651 257 651 233.5 628 c 128,-1,8
 210 605 210 605 161 605 c 0,0,1
438 605 m 0,9,10
 343 605 343 605 343 691 c 0,11,12
 343 776 343 776 439 776 c 0,13,14
 534 776 534 776 534 692 c 0,15,16
 534 651 534 651 511 628 c 128,-1,17
 488 605 488 605 438 605 c 0,9,10
281 -245 m 0,18,19
 246 -245 246 -245 205 -239.5 c 128,-1,20
 164 -234 164 -234 125 -222 c 1,21,-1
 125 -92 l 1,22,23
 160 -102 160 -102 195 -106.5 c 128,-1,24
 230 -111 230 -111 253 -111 c 0,25,26
 312 -111 312 -111 335 -83 c 128,-1,27
 358 -55 358 -55 358 18 c 2,28,-1
 358 549 l 1,29,-1
 517 549 l 1,30,-1
 517 -16 l 2,31,32
 517 -132 517 -132 460.5 -188.5 c 128,-1,33
 404 -245 404 -245 281 -245 c 0,18,19
80 0 m 1,34,-1
 80 549 l 1,35,-1
 239 549 l 1,36,-1
 239 0 l 1,37,-1
 80 0 l 1,34,-1
EndSplineSet
Substitution2: "'smcp' Lowercase to Small Capitals lookup 33 subtable" ij.sc
Substitution2: "'aalt' Access All Alternates lookup 0 subtable" ij.sc
LCarets2: 1 0
EndChar

StartChar: kgreenlandic
Encoding: 312 312 249
Width: 600
GlyphClass: 2
Flags: W
AnchorPoint: "Anchor-3" 300 549 basechar 0
AnchorPoint: "Anchor-0" 300 0 basechar 0
LayerCount: 2
Fore
SplineSet
51 0 m 1,0,-1
 51 549 l 1,1,-1
 210 549 l 1,2,-1
 210 433 l 2,3,4
 210 399 210 399 208 362 c 128,-1,5
 206 325 206 325 201 293 c 1,6,-1
 204 293 l 1,7,8
 220 316 220 316 236 339 c 128,-1,9
 252 362 252 362 272 388 c 2,10,-1
 398 549 l 1,11,-1
 578 549 l 1,12,-1
 393 324 l 1,13,-1
 590 0 l 1,14,-1
 417 0 l 1,15,-1
 290 219 l 1,16,-1
 210 155 l 1,17,-1
 210 0 l 1,18,-1
 51 0 l 1,0,-1
EndSplineSet
EndChar

StartChar: Lslash
Encoding: 321 321 258
Width: 600
GlyphClass: 2
Flags: W
AnchorPoint: "Anchor-4" 495 714 basechar 0
AnchorPoint: "Anchor-3" 200 714 basechar 0
AnchorPoint: "Anchor-1" 335 357 basechar 0
AnchorPoint: "Anchor-0" 348 0 basechar 0
LayerCount: 2
Fore
SplineSet
118 0 m 1,0,-1
 118 239 l 1,1,-1
 80 216 l 1,2,-1
 22 317 l 1,3,-1
 118 376 l 1,4,-1
 118 714 l 1,5,-1
 277 714 l 1,6,-1
 277 473 l 1,7,-1
 362 525 l 1,8,-1
 422 424 l 1,9,-1
 277 336 l 1,10,-1
 277 140 l 1,11,-1
 570 140 l 1,12,-1
 570 0 l 1,13,-1
 118 0 l 1,0,-1
EndSplineSet
Substitution2: "'c2sc' Capitals to Small Capitals lookup 32 subtable" lslash.sc
Substitution2: "'aalt' Access All Alternates lookup 0 subtable" lslash.sc
EndChar

StartChar: lslash
Encoding: 322 322 259
Width: 600
GlyphClass: 2
Flags: W
AnchorPoint: "Anchor-4" 503 760 basechar 0
AnchorPoint: "Anchor-3" 300 760 basechar 0
AnchorPoint: "Anchor-1" 316 382 basechar 0
AnchorPoint: "Anchor-0" 300 0 basechar 0
LayerCount: 2
Fore
SplineSet
51 0 m 1,0,-1
 51 105 l 1,1,-1
 234 129 l 1,2,-1
 234 254 l 1,3,-1
 167 215 l 1,4,-1
 109 316 l 1,5,-1
 234 390 l 1,6,-1
 234 631 l 1,7,-1
 88 653 l 1,8,-1
 88 760 l 1,9,-1
 392 760 l 1,10,-1
 392 483 l 1,11,-1
 453 519 l 1,12,-1
 512 418 l 1,13,-1
 392 347 l 1,14,-1
 392 129 l 1,15,-1
 555 105 l 1,16,-1
 555 0 l 1,17,-1
 51 0 l 1,0,-1
EndSplineSet
Substitution2: "'smcp' Lowercase to Small Capitals lookup 33 subtable" lslash.sc
Substitution2: "'aalt' Access All Alternates lookup 0 subtable" lslash.sc
EndChar

StartChar: napostrophe
Encoding: 329 329 266
Width: 600
GlyphClass: 2
Flags: W
AnchorPoint: "Anchor-3" 315 549 basechar 0
AnchorPoint: "Anchor-0" 311 0 basechar 0
LayerCount: 2
Fore
SplineSet
-133 451 m 1,0,1
 -118 517 -118 517 -105.5 589.5 c 128,-1,2
 -93 662 -93 662 -87 714 c 1,3,-1
 57 714 l 1,4,-1
 64 703 l 1,5,6
 51 646 51 646 30.5 579.5 c 128,-1,7
 10 513 10 513 -18 451 c 1,8,-1
 -133 451 l 1,0,1
60 0 m 1,9,-1
 60 549 l 1,10,-1
 180 549 l 1,11,-1
 203 479 l 1,12,-1
 212 479 l 1,13,14
 237 518 237 518 277 538.5 c 128,-1,15
 317 559 317 559 373 559 c 0,16,17
 464 559 464 559 509.5 506.5 c 128,-1,18
 555 454 555 454 555 357 c 2,19,-1
 555 0 l 1,20,-1
 396 0 l 1,21,-1
 396 311 l 2,22,23
 396 430 396 430 316 430 c 0,24,25
 264 430 264 430 241.5 382 c 128,-1,26
 219 334 219 334 219 250 c 2,27,-1
 219 0 l 1,28,-1
 60 0 l 1,9,-1
EndSplineSet
EndChar

StartChar: Eng
Encoding: 330 330 267
Width: 600
GlyphClass: 2
Flags: W
AnchorPoint: "Anchor-4" 600 714 basechar 0
AnchorPoint: "Anchor-3" 305 714 basechar 0
AnchorPoint: "Anchor-0" 305 -217 basechar 0
LayerCount: 2
Fore
SplineSet
43 0 m 1,0,-1
 43 714 l 1,1,-1
 258 714 l 1,2,-1
 422 147 l 1,3,-1
 425 147 l 1,4,5
 420 216 420 216 417.5 272 c 128,-1,6
 415 328 415 328 415 365 c 2,7,-1
 415 714 l 1,8,-1
 557 714 l 1,9,-1
 557 0 l 2,10,11
 557 -110 557 -110 494 -163.5 c 128,-1,12
 431 -217 431 -217 325 -217 c 0,13,14
 297 -217 297 -217 272.5 -213.5 c 128,-1,15
 248 -210 248 -210 231 -206 c 1,16,-1
 231 -92 l 1,17,18
 249 -95 249 -95 269 -98.5 c 128,-1,19
 289 -102 289 -102 313 -102 c 0,20,21
 369 -102 369 -102 399 -78 c 128,-1,22
 429 -54 429 -54 429 0 c 1,23,-1
 344 0 l 1,24,-1
 178 567 l 1,25,-1
 174 567 l 1,26,27
 180 482 180 482 182.5 430 c 128,-1,28
 185 378 185 378 185 343 c 2,29,-1
 185 0 l 1,30,-1
 43 0 l 1,0,-1
EndSplineSet
Substitution2: "'c2sc' Capitals to Small Capitals lookup 32 subtable" eng.sc
AlternateSubs2: "'aalt' Access All Alternates lookup 1 subtable" Eng.alt1 Eng.alt2 Eng.alt3 eng.sc
EndChar

StartChar: eng
Encoding: 331 331 268
Width: 600
GlyphClass: 2
Flags: W
AnchorPoint: "Anchor-4" 580 549 basechar 0
AnchorPoint: "Anchor-3" 309 549 basechar 0
AnchorPoint: "Anchor-0" 305 -240 basechar 0
LayerCount: 2
Fore
SplineSet
50 0 m 1,0,-1
 50 549 l 1,1,-1
 170 549 l 1,2,-1
 193 479 l 1,3,-1
 202 479 l 1,4,5
 254 559 254 559 368 559 c 0,6,7
 461 559 461 559 508 506.5 c 128,-1,8
 555 454 555 454 555 357 c 2,9,-1
 555 -56 l 2,10,11
 555 -106 555 -106 536.5 -148 c 128,-1,12
 518 -190 518 -190 477 -215 c 128,-1,13
 436 -240 436 -240 368 -240 c 0,14,15
 345 -240 345 -240 318.5 -236.5 c 128,-1,16
 292 -233 292 -233 275 -228 c 1,17,-1
 275 -104 l 1,18,19
 305 -113 305 -113 330 -113 c 0,20,21
 356 -113 356 -113 376 -96.5 c 128,-1,22
 396 -80 396 -80 396 -30 c 2,23,-1
 396 311 l 2,24,25
 396 373 396 373 374.5 401.5 c 128,-1,26
 353 430 353 430 312 430 c 0,27,28
 256 430 256 430 232.5 382 c 128,-1,29
 209 334 209 334 209 250 c 2,30,-1
 209 0 l 1,31,-1
 50 0 l 1,0,-1
EndSplineSet
Substitution2: "'smcp' Lowercase to Small Capitals lookup 33 subtable" eng.sc
Substitution2: "'aalt' Access All Alternates lookup 0 subtable" eng.sc
EndChar

StartChar: OE
Encoding: 338 338 275
Width: 600
GlyphClass: 2
Flags: W
AnchorPoint: "Anchor-3" 300 714 basechar 0
AnchorPoint: "Anchor-0" 300 0 basechar 0
LayerCount: 2
Fore
SplineSet
250 -10 m 0,0,1
 169 -10 169 -10 119.5 35 c 128,-1,2
 70 80 70 80 47.5 162.5 c 128,-1,3
 25 245 25 245 25 359 c 0,4,5
 25 472 25 472 48 554 c 128,-1,6
 71 636 71 636 120.5 680 c 128,-1,7
 170 724 170 724 249 724 c 0,8,9
 262 724 262 724 282.5 722.5 c 128,-1,10
 303 721 303 721 327 714 c 1,11,-1
 585 714 l 1,12,-1
 585 578 l 1,13,-1
 447 578 l 1,14,-1
 447 438 l 1,15,-1
 567 438 l 1,16,-1
 567 303 l 1,17,-1
 447 303 l 1,18,-1
 447 136 l 1,19,-1
 585 136 l 1,20,-1
 585 0 l 1,21,-1
 328 0 l 1,22,23
 292 -10 292 -10 250 -10 c 0,0,1
270 128 m 0,24,25
 280 128 280 128 289 131 c 128,-1,26
 298 134 298 134 304 137 c 1,27,-1
 304 578 l 1,28,29
 299 582 299 582 290 584 c 128,-1,30
 281 586 281 586 272 586 c 0,31,32
 181 586 181 586 181 358 c 0,33,34
 181 243 181 243 198.5 185.5 c 128,-1,35
 216 128 216 128 270 128 c 0,24,25
EndSplineSet
Substitution2: "'c2sc' Capitals to Small Capitals lookup 32 subtable" oe.sc
Substitution2: "'aalt' Access All Alternates lookup 0 subtable" oe.sc
EndChar

StartChar: oe
Encoding: 339 339 276
Width: 600
GlyphClass: 2
Flags: W
AnchorPoint: "Anchor-3" 300 549 basechar 0
AnchorPoint: "Anchor-0" 300 0 basechar 0
LayerCount: 2
Fore
SplineSet
189 -10 m 0,0,1
 130 -10 130 -10 90.5 26 c 128,-1,2
 51 62 51 62 31.5 127 c 128,-1,3
 12 192 12 192 12 277 c 0,4,5
 12 360 12 360 31 423.5 c 128,-1,6
 50 487 50 487 89 522 c 128,-1,7
 128 557 128 557 189 557 c 0,8,9
 271 557 271 557 314 485 c 1,10,11
 336 521 336 521 363.5 538.5 c 128,-1,12
 391 556 391 556 431 556 c 0,13,14
 510 556 510 556 551 490 c 128,-1,15
 592 424 592 424 592 309 c 2,16,-1
 592 235 l 1,17,-1
 369 235 l 1,18,19
 369 155 369 155 395 125.5 c 128,-1,20
 421 96 421 96 460 96 c 0,21,22
 485 96 485 96 513.5 105.5 c 128,-1,23
 542 115 542 115 572 137 c 1,24,-1
 572 28 l 1,25,26
 544 9 544 9 510.5 -0.5 c 128,-1,27
 477 -10 477 -10 444 -10 c 0,28,29
 359 -10 359 -10 315 64 c 1,30,31
 293 26 293 26 261 8 c 128,-1,32
 229 -10 229 -10 189 -10 c 0,0,1
369 331 m 1,33,-1
 480 331 l 1,34,35
 480 453 480 453 429 453 c 0,36,37
 408 453 408 453 389 427 c 128,-1,38
 370 401 370 401 369 331 c 1,33,-1
189 100 m 0,39,40
 249 100 249 100 249 274 c 0,41,42
 249 447 249 447 189 447 c 0,43,44
 160 447 160 447 146.5 405 c 128,-1,45
 133 363 133 363 133 275 c 0,46,47
 133 186 133 186 146.5 143 c 128,-1,48
 160 100 160 100 189 100 c 0,39,40
EndSplineSet
Substitution2: "'smcp' Lowercase to Small Capitals lookup 33 subtable" oe.sc
Substitution2: "'aalt' Access All Alternates lookup 0 subtable" oe.sc
EndChar

StartChar: Tbar
Encoding: 358 358 295
Width: 600
GlyphClass: 2
Flags: W
AnchorPoint: "Anchor-4" 580 714 basechar 0
AnchorPoint: "Anchor-3" 300 714 basechar 0
AnchorPoint: "Anchor-1" 300 357 basechar 0
AnchorPoint: "Anchor-0" 300 0 basechar 0
LayerCount: 2
Fore
SplineSet
220 0 m 1,0,-1
 220 286 l 1,1,-1
 103 286 l 1,2,-1
 103 417 l 1,3,-1
 220 417 l 1,4,-1
 220 577 l 1,5,-1
 25 577 l 1,6,-1
 25 714 l 1,7,-1
 575 714 l 1,8,-1
 575 577 l 1,9,-1
 379 577 l 1,10,-1
 379 417 l 1,11,-1
 497 417 l 1,12,-1
 497 286 l 1,13,-1
 379 286 l 1,14,-1
 379 0 l 1,15,-1
 220 0 l 1,0,-1
EndSplineSet
Substitution2: "'c2sc' Capitals to Small Capitals lookup 32 subtable" tbar.sc
Substitution2: "'aalt' Access All Alternates lookup 0 subtable" tbar.sc
EndChar

StartChar: tbar
Encoding: 359 359 296
Width: 600
GlyphClass: 2
Flags: W
AnchorPoint: "Anchor-4" 580 680 basechar 0
AnchorPoint: "Anchor-3" 272 680 basechar 0
AnchorPoint: "Anchor-1" 252 275 basechar 0
AnchorPoint: "Anchor-0" 324 0 basechar 0
LayerCount: 2
Fore
SplineSet
40 238 m 1,0,-1
 40 340 l 1,1,-1
 171 340 l 1,2,-1
 171 420 l 1,3,-1
 40 420 l 1,4,-1
 40 508 l 1,5,-1
 185 549 l 1,6,-1
 210 680 l 1,7,-1
 329 680 l 1,8,-1
 329 549 l 1,9,-1
 528 549 l 1,10,-1
 528 420 l 1,11,-1
 329 420 l 1,12,-1
 329 340 l 1,13,-1
 532 340 l 1,14,-1
 532 238 l 1,15,-1
 329 238 l 1,16,-1
 329 215 l 2,17,18
 329 173 329 173 343 153.5 c 128,-1,19
 357 134 357 134 378 128 c 128,-1,20
 399 122 399 122 420 122 c 0,21,22
 444 122 444 122 468.5 126 c 128,-1,23
 493 130 493 130 532 140 c 1,24,-1
 532 15 l 1,25,26
 492 2 492 2 455 -4 c 128,-1,27
 418 -10 418 -10 381 -10 c 0,28,29
 269 -10 269 -10 220 40 c 128,-1,30
 171 90 171 90 171 195 c 2,31,-1
 171 238 l 1,32,-1
 40 238 l 1,0,-1
EndSplineSet
Substitution2: "'smcp' Lowercase to Small Capitals lookup 33 subtable" tbar.sc
Substitution2: "'aalt' Access All Alternates lookup 0 subtable" tbar.sc
EndChar

StartChar: Uogonek
Encoding: 370 370 307
Width: 600
GlyphClass: 2
Flags: W
AnchorPoint: "Anchor-4" 580 714 basechar 0
AnchorPoint: "Anchor-3" 300 714 basechar 0
AnchorPoint: "Anchor-2" 540 10 basechar 0
AnchorPoint: "Anchor-0" 330 -238 basechar 0
LayerCount: 2
Fore
SplineSet
334 -238 m 0,0,1
 275 -238 275 -238 242 -209 c 128,-1,2
 209 -180 209 -180 209 -128 c 0,3,4
 209 -95 209 -95 224.5 -65.5 c 128,-1,5
 240 -36 240 -36 275 -9 c 1,6,7
 164 -3 164 -3 103.5 64 c 128,-1,8
 43 131 43 131 43 250 c 2,9,-1
 43 714 l 1,10,-1
 202 714 l 1,11,-1
 202 270 l 2,12,13
 202 192 202 192 225.5 160.5 c 128,-1,14
 249 129 249 129 299 129 c 256,15,16
 349 129 349 129 373.5 161 c 128,-1,17
 398 193 398 193 398 271 c 2,18,-1
 398 714 l 1,19,-1
 557 714 l 1,20,-1
 557 253 l 2,21,22
 557 168 557 168 525 107 c 128,-1,23
 493 46 493 46 431 16 c 0,24,25
 373 -16 373 -16 347 -45 c 128,-1,26
 321 -74 321 -74 321 -102 c 0,27,28
 321 -141 321 -141 363 -141 c 0,29,30
 374 -141 374 -141 386.5 -138 c 128,-1,31
 399 -135 399 -135 408 -131 c 1,32,-1
 408 -225 l 1,33,34
 394 -230 394 -230 375.5 -234 c 128,-1,35
 357 -238 357 -238 334 -238 c 0,0,1
EndSplineSet
Substitution2: "'c2sc' Capitals to Small Capitals lookup 32 subtable" uogonek.sc
Substitution2: "'locl' Localized Forms in Latin lookup 11 subtable" Uogonek.loclNAV
Ligature2: "'ccmp' Glyph Composition/Decomposition lookup 6 subtable" U uni0328
AlternateSubs2: "'aalt' Access All Alternates lookup 1 subtable" Uogonek.loclNAV uogonek.sc
EndChar

StartChar: longs
Encoding: 383 383 320
Width: 600
GlyphClass: 2
Flags: W
AnchorPoint: "Anchor-3" 382 765 basechar 0
AnchorPoint: "Anchor-0" 300 0 basechar 0
LayerCount: 2
Fore
SplineSet
195 0 m 1,0,-1
 195 578 l 2,1,2
 195 648 195 648 219 689 c 128,-1,3
 243 730 243 730 286.5 747.5 c 128,-1,4
 330 765 330 765 389 765 c 0,5,6
 438 765 438 765 472 758 c 128,-1,7
 506 751 506 751 528 741 c 1,8,-1
 494 621 l 1,9,10
 477 628 477 628 457 632 c 128,-1,11
 437 636 437 636 417 636 c 0,12,13
 380 636 380 636 366.5 618 c 128,-1,14
 353 600 353 600 353 565 c 2,15,-1
 353 0 l 1,16,-1
 195 0 l 1,0,-1
EndSplineSet
EndChar

StartChar: florin
Encoding: 402 402 321
Width: 600
GlyphClass: 2
Flags: W
AnchorPoint: "Anchor-3" 383 734 basechar 0
AnchorPoint: "Anchor-0" 284 -245 basechar 0
LayerCount: 2
Fore
SplineSet
193 -245 m 0,0,1
 155 -245 155 -245 128.5 -241.5 c 128,-1,2
 102 -238 102 -238 85 -232 c 1,3,-1
 85 -108 l 1,4,5
 115 -117 115 -117 144 -117 c 0,6,7
 178 -117 178 -117 195.5 -100.5 c 128,-1,8
 213 -84 213 -84 213 -45 c 2,9,-1
 213 391 l 1,10,-1
 117 391 l 1,11,-1
 117 483 l 1,12,-1
 214 513 l 1,13,-1
 214 540 l 2,14,15
 214 646 214 646 263 690 c 128,-1,16
 312 734 312 734 412 734 c 0,17,18
 452 734 452 734 483 727.5 c 128,-1,19
 514 721 514 721 545 709 c 1,20,-1
 512 596 l 1,21,22
 482 608 482 608 447 608 c 0,23,24
 367 608 367 608 367 540 c 2,25,-1
 367 514 l 1,26,-1
 486 514 l 1,27,-1
 486 391 l 1,28,-1
 367 391 l 1,29,-1
 367 -33 l 2,30,31
 367 -99 367 -99 352.5 -146.5 c 128,-1,32
 338 -194 338 -194 300.5 -219.5 c 128,-1,33
 263 -245 263 -245 193 -245 c 0,0,1
EndSplineSet
EndChar

StartChar: circumflex
Encoding: 710 710 330
Width: 600
Flags: W
LayerCount: 2
Fore
SplineSet
113 606 m 1,0,-1
 113 619 l 1,1,2
 130 638 130 638 151 664.5 c 128,-1,3
 172 691 172 691 192 718.5 c 128,-1,4
 212 746 212 746 224 766 c 1,5,-1
 381 766 l 1,6,7
 400 733 400 733 431.5 692.5 c 128,-1,8
 463 652 463 652 490 619 c 1,9,-1
 490 606 l 1,10,-1
 392 606 l 1,11,12
 347 637 347 637 302 685 c 1,13,14
 278 660 278 660 255.5 640 c 128,-1,15
 233 620 233 620 213 606 c 1,16,-1
 113 606 l 1,0,-1
EndSplineSet
EndChar

StartChar: caron
Encoding: 711 711 331
Width: 600
GlyphClass: 2
Flags: W
AnchorPoint: "Anchor-13" 299 763 basemark 0
AnchorPoint: "Anchor-13" 299 528 mark 0
AnchorPoint: "Anchor-8" 299 528 mark 0
AnchorPoint: "Anchor-3" 299 528 mark 0
LayerCount: 2
Fore
SplineSet
222 606 m 1,0,1
 210 627 210 627 190 654.5 c 128,-1,2
 170 682 170 682 149 708.5 c 128,-1,3
 128 735 128 735 111 753 c 1,4,-1
 111 766 l 1,5,-1
 212 766 l 1,6,7
 233 751 233 751 254.5 731.5 c 128,-1,8
 276 712 276 712 299 688 c 1,9,10
 323 714 323 714 345 732.5 c 128,-1,11
 367 751 367 751 389 766 c 1,12,-1
 489 766 l 1,13,-1
 489 753 l 1,14,15
 473 734 473 734 452 708 c 128,-1,16
 431 682 431 682 411.5 655 c 128,-1,17
 392 628 392 628 379 606 c 1,18,-1
 222 606 l 1,0,1
EndSplineSet
EndChar

StartChar: breve
Encoding: 728 728 333
Width: 600
GlyphClass: 2
Flags: W
AnchorPoint: "Anchor-13" 300 765 basemark 0
AnchorPoint: "Anchor-13" 298 549 mark 0
AnchorPoint: "Anchor-8" 298 549 mark 0
AnchorPoint: "Anchor-3" 298 549 mark 0
LayerCount: 2
Fore
SplineSet
300 606 m 256,0,1
 223 606 223 606 177 651 c 128,-1,2
 131 696 131 696 129 777 c 1,3,-1
 219 777 l 1,4,5
 224 739 224 739 246.5 724.5 c 128,-1,6
 269 710 269 710 301 710 c 0,7,8
 332 710 332 710 355 724 c 128,-1,9
 378 738 378 738 383 777 c 1,10,-1
 474 777 l 1,11,12
 472 698 472 698 424.5 652 c 128,-1,13
 377 606 377 606 300 606 c 256,0,1
EndSplineSet
EndChar

StartChar: dotaccent
Encoding: 729 729 334
Width: 600
Flags: W
LayerCount: 2
Fore
SplineSet
300 605 m 0,0,1
 205 605 205 605 205 691 c 0,2,3
 205 776 205 776 301 776 c 0,4,5
 396 776 396 776 396 692 c 0,6,7
 396 651 396 651 372.5 628 c 128,-1,8
 349 605 349 605 300 605 c 0,0,1
EndSplineSet
EndChar

StartChar: ring
Encoding: 730 730 335
Width: 600
Flags: W
LayerCount: 2
Fore
SplineSet
298 605 m 256,0,1
 243 605 243 605 209.5 637.5 c 128,-1,2
 176 670 176 670 176 724 c 256,3,4
 176 778 176 778 209.5 810.5 c 128,-1,5
 243 843 243 843 298 843 c 0,6,7
 351 843 351 843 387 810.5 c 128,-1,8
 423 778 423 778 423 725 c 0,9,10
 423 671 423 671 388 638 c 128,-1,11
 353 605 353 605 298 605 c 256,0,1
299 681 m 0,12,13
 318 681 318 681 330.5 692.5 c 128,-1,14
 343 704 343 704 343 724 c 256,15,16
 343 744 343 744 330.5 756 c 128,-1,17
 318 768 318 768 299 768 c 256,18,19
 280 768 280 768 267.5 756 c 128,-1,20
 255 744 255 744 255 724 c 256,21,22
 255 704 255 704 266 692.5 c 128,-1,23
 277 681 277 681 299 681 c 0,12,13
EndSplineSet
EndChar

StartChar: ogonek
Encoding: 731 731 336
Width: 600
Flags: W
LayerCount: 2
Fore
SplineSet
331 -238 m 0,0,1
 272 -238 272 -238 239.5 -208.5 c 128,-1,2
 207 -179 207 -179 207 -129 c 0,3,4
 207 -92 207 -92 230.5 -54 c 128,-1,5
 254 -16 254 -16 307 18 c 1,6,-1
 379 0 l 1,7,8
 347 -33 347 -33 333 -55.5 c 128,-1,9
 319 -78 319 -78 319 -101 c 0,10,11
 319 -141 319 -141 359 -141 c 0,12,13
 372 -141 372 -141 384.5 -138 c 128,-1,14
 397 -135 397 -135 406 -131 c 1,15,-1
 406 -225 l 1,16,17
 392 -230 392 -230 373.5 -234 c 128,-1,18
 355 -238 355 -238 331 -238 c 0,0,1
EndSplineSet
EndChar

StartChar: tilde
Encoding: 732 732 337
Width: 600
Flags: W
LayerCount: 2
Fore
SplineSet
105 605 m 1,0,1
 108 672 108 672 134.5 717 c 128,-1,2
 161 762 161 762 215 762 c 0,3,4
 244 762 244 762 272 750 c 128,-1,5
 300 738 300 738 325 725.5 c 128,-1,6
 350 713 350 713 374 713 c 0,7,8
 394 713 394 713 401 726 c 128,-1,9
 408 739 408 739 413 763 c 1,10,-1
 495 763 l 1,11,12
 491 684 491 684 460 645 c 128,-1,13
 429 606 429 606 384 606 c 0,14,15
 356 606 356 606 327 618 c 128,-1,16
 298 630 298 630 271.5 642.5 c 128,-1,17
 245 655 245 655 223 655 c 0,18,19
 207 655 207 655 198.5 644 c 128,-1,20
 190 633 190 633 186 605 c 1,21,-1
 105 605 l 1,0,1
EndSplineSet
EndChar

StartChar: hungarumlaut
Encoding: 733 733 338
Width: 600
Flags: W
LayerCount: 2
Fore
SplineSet
287 606 m 1,0,-1
 287 619 l 1,1,2
 315 659 315 659 339.5 699 c 128,-1,3
 364 739 364 739 377 766 c 1,4,-1
 525 766 l 1,5,-1
 525 757 l 1,6,7
 513 738 513 738 486 709.5 c 128,-1,8
 459 681 459 681 427.5 652.5 c 128,-1,9
 396 624 396 624 373 606 c 1,10,-1
 287 606 l 1,0,-1
98 606 m 1,11,-1
 98 619 l 1,12,13
 125 660 125 660 149.5 700 c 128,-1,14
 174 740 174 740 188 766 c 1,15,-1
 335 766 l 1,16,-1
 335 757 l 1,17,18
 322 738 322 738 295.5 710 c 128,-1,19
 269 682 269 682 238 654 c 128,-1,20
 207 626 207 626 181 606 c 1,21,-1
 98 606 l 1,11,-1
EndSplineSet
EndChar

StartChar: tonos
Encoding: 900 900 339
Width: 600
GlyphClass: 2
Flags: W
AnchorPoint: "Anchor-13" 308 760 basemark 0
AnchorPoint: "Anchor-13" 300 549 mark 0
AnchorPoint: "Anchor-8" 300 549 mark 0
AnchorPoint: "Anchor-3" 300 549 mark 0
LayerCount: 2
Fore
SplineSet
257 606 m 1,0,-1
 257 621 l 1,1,2
 262 644 262 644 268 675.5 c 128,-1,3
 274 707 274 707 279 739 c 128,-1,4
 284 771 284 771 286 796 c 1,5,-1
 431 796 l 1,6,-1
 431 784 l 1,7,8
 416 744 416 744 395.5 698.5 c 128,-1,9
 375 653 375 653 349 606 c 1,10,-1
 257 606 l 1,0,-1
EndSplineSet
EndChar

StartChar: dieresistonos
Encoding: 901 901 340
Width: 600
GlyphClass: 2
Flags: W
AnchorPoint: "Anchor-13" 301 838 basemark 0
AnchorPoint: "Anchor-13" 300 549 mark 0
AnchorPoint: "Anchor-8" 300 549 mark 0
AnchorPoint: "Anchor-3" 300 549 mark 0
LayerCount: 2
Fore
SplineSet
248 678 m 1,0,-1
 248 689 l 1,1,2
 253 708 253 708 258.5 734.5 c 128,-1,3
 264 761 264 761 268.5 788.5 c 128,-1,4
 273 816 273 816 275 838 c 1,5,-1
 408 838 l 1,6,-1
 408 828 l 1,7,8
 393 795 393 795 369.5 756.5 c 128,-1,9
 346 718 346 718 318 678 c 1,10,-1
 248 678 l 1,0,-1
161 620 m 0,11,12
 131 620 131 620 113.5 636 c 128,-1,13
 96 652 96 652 96 687 c 256,14,15
 96 722 96 722 113.5 738.5 c 128,-1,16
 131 755 131 755 161 755 c 0,17,18
 190 755 190 755 209 738.5 c 128,-1,19
 228 722 228 722 228 687 c 256,20,21
 228 652 228 652 209 636 c 128,-1,22
 190 620 190 620 161 620 c 0,11,12
436 620 m 0,23,24
 406 620 406 620 388 636 c 128,-1,25
 370 652 370 652 370 687 c 256,26,27
 370 722 370 722 388 738.5 c 128,-1,28
 406 755 406 755 436 755 c 0,29,30
 465 755 465 755 484 738.5 c 128,-1,31
 503 722 503 722 503 687 c 256,32,33
 503 652 503 652 484 636 c 128,-1,34
 465 620 465 620 436 620 c 0,23,24
EndSplineSet
EndChar

StartChar: Epsilontonos
Encoding: 904 904 343
Width: 600
GlyphClass: 2
Flags: W
AnchorPoint: "Anchor-3" 332 714 basechar 0
AnchorPoint: "Anchor-0" 341 0 basechar 0
LayerCount: 2
Fore
SplineSet
-54 606 m 1,0,-1
 -54 621 l 1,1,2
 -48 644 -48 644 -42.5 675.5 c 128,-1,3
 -37 707 -37 707 -32.5 739 c 128,-1,4
 -28 771 -28 771 -25 796 c 1,5,-1
 120 796 l 1,6,-1
 120 784 l 1,7,8
 105 744 105 744 84.5 698.5 c 128,-1,9
 64 653 64 653 38 606 c 1,10,-1
 -54 606 l 1,0,-1
130 0 m 1,11,-1
 130 714 l 1,12,-1
 535 714 l 1,13,-1
 535 577 l 1,14,-1
 280 577 l 1,15,-1
 280 437 l 1,16,-1
 521 437 l 1,17,-1
 521 301 l 1,18,-1
 280 301 l 1,19,-1
 280 137 l 1,20,-1
 535 137 l 1,21,-1
 535 0 l 1,22,-1
 130 0 l 1,11,-1
EndSplineSet
EndChar

StartChar: Etatonos
Encoding: 905 905 344
Width: 600
GlyphClass: 2
Flags: W
AnchorPoint: "Anchor-3" 329 714 basechar 0
AnchorPoint: "Anchor-1" 329 377 basechar 0
AnchorPoint: "Anchor-0" 329 0 basechar 0
LayerCount: 2
Fore
SplineSet
-73 606 m 1,0,-1
 -73 621 l 1,1,2
 -68 644 -68 644 -62 675.5 c 128,-1,3
 -56 707 -56 707 -51 739 c 128,-1,4
 -46 771 -46 771 -44 796 c 1,5,-1
 101 796 l 1,6,-1
 101 784 l 1,7,8
 86 744 86 744 65.5 698.5 c 128,-1,9
 45 653 45 653 19 606 c 1,10,-1
 -73 606 l 1,0,-1
97 0 m 1,11,-1
 97 714 l 1,12,-1
 253 714 l 1,13,-1
 253 441 l 1,14,-1
 402 441 l 1,15,-1
 402 714 l 1,16,-1
 557 714 l 1,17,-1
 557 0 l 1,18,-1
 402 0 l 1,19,-1
 402 304 l 1,20,-1
 253 304 l 1,21,-1
 253 0 l 1,22,-1
 97 0 l 1,11,-1
EndSplineSet
EndChar

StartChar: Upsilontonos
Encoding: 910 910 347
Width: 600
GlyphClass: 2
Flags: W
AnchorPoint: "Anchor-3" 358 714 basechar 0
AnchorPoint: "Anchor-0" 358 0 basechar 0
LayerCount: 2
Fore
SplineSet
-57 606 m 1,0,-1
 -57 621 l 1,1,2
 -52 644 -52 644 -46 675.5 c 128,-1,3
 -40 707 -40 707 -35 739 c 128,-1,4
 -30 771 -30 771 -28 796 c 1,5,-1
 117 796 l 1,6,-1
 117 784 l 1,7,8
 102 744 102 744 81.5 698.5 c 128,-1,9
 61 653 61 653 35 606 c 1,10,-1
 -57 606 l 1,0,-1
282 0 m 1,11,-1
 282 277 l 1,12,-1
 118 714 l 1,13,-1
 277 714 l 1,14,-1
 358 434 l 1,15,-1
 438 714 l 1,16,-1
 595 714 l 1,17,-1
 433 277 l 1,18,-1
 433 0 l 1,19,-1
 282 0 l 1,11,-1
EndSplineSet
EndChar

StartChar: Gamma
Encoding: 915 915 352
Width: 600
GlyphClass: 2
Flags: W
AnchorPoint: "Anchor-3" 325 714 basechar 0
AnchorPoint: "Anchor-0" 325 0 basechar 0
LayerCount: 2
Fore
SplineSet
83 0 m 1,0,-1
 83 714 l 1,1,-1
 535 714 l 1,2,-1
 535 582 l 1,3,-1
 243 582 l 1,4,-1
 243 0 l 1,5,-1
 83 0 l 1,0,-1
EndSplineSet
EndChar

StartChar: uni0394
Encoding: 916 916 353
Width: 600
GlyphClass: 2
Flags: W
AnchorPoint: "Anchor-3" 300 714 basechar 0
AnchorPoint: "Anchor-0" 300 0 basechar 0
LayerCount: 2
Fore
SplineSet
8 0 m 1,0,-1
 8 92 l 1,1,-1
 209 717 l 1,2,-1
 392 717 l 1,3,-1
 592 91 l 1,4,-1
 592 0 l 1,5,-1
 8 0 l 1,0,-1
171 132 m 1,6,-1
 429 132 l 1,7,-1
 323 497 l 2,8,9
 320 506 320 506 315 524 c 128,-1,10
 310 542 310 542 305.5 560 c 128,-1,11
 301 578 301 578 300 587 c 1,12,13
 299 578 299 578 294.5 560 c 128,-1,14
 290 542 290 542 285 524 c 128,-1,15
 280 506 280 506 277 497 c 2,16,-1
 171 132 l 1,6,-1
EndSplineSet
EndChar

StartChar: Theta
Encoding: 920 920 357
Width: 600
GlyphClass: 2
Flags: W
AnchorPoint: "Anchor-4" 600 714 basechar 0
AnchorPoint: "Anchor-3" 300 714 basechar 0
AnchorPoint: "Anchor-2" 296 10 basechar 0
AnchorPoint: "Anchor-1" 300 357 basechar 0
AnchorPoint: "Anchor-0" 300 0 basechar 0
LayerCount: 2
Fore
SplineSet
300 -10 m 0,0,1
 158 -10 158 -10 91.5 86 c 128,-1,2
 25 182 25 182 25 358 c 256,3,4
 25 534 25 534 92 630 c 128,-1,5
 159 726 159 726 300 726 c 0,6,7
 442 726 442 726 508.5 629 c 128,-1,8
 575 532 575 532 575 358 c 256,9,10
 575 184 575 184 509 87 c 128,-1,11
 443 -10 443 -10 300 -10 c 0,0,1
300 127 m 256,12,13
 361 127 361 127 387 184 c 128,-1,14
 413 241 413 241 413 359 c 0,15,16
 413 474 413 474 387.5 531.5 c 128,-1,17
 362 589 362 589 300 589 c 0,18,19
 239 589 239 589 213 532.5 c 128,-1,20
 187 476 187 476 187 358 c 256,21,22
 187 240 187 240 213 183.5 c 128,-1,23
 239 127 239 127 300 127 c 256,12,13
227 299 m 1,24,-1
 227 427 l 1,25,-1
 374 427 l 1,26,-1
 374 299 l 1,27,-1
 227 299 l 1,24,-1
EndSplineSet
EndChar

StartChar: Lambda
Encoding: 923 923 360
Width: 600
GlyphClass: 2
Flags: W
AnchorPoint: "Anchor-3" 300 714 basechar 0
AnchorPoint: "Anchor-0" 300 0 basechar 0
LayerCount: 2
Fore
SplineSet
8 0 m 1,0,-1
 210 714 l 1,1,-1
 389 714 l 1,2,-1
 592 0 l 1,3,-1
 424 0 l 1,4,-1
 331 411 l 2,5,6
 327 428 327 428 321 458.5 c 128,-1,7
 315 489 315 489 309 520.5 c 128,-1,8
 303 552 303 552 300 572 c 1,9,10
 297 552 297 552 291.5 520.5 c 128,-1,11
 286 489 286 489 280 458.5 c 128,-1,12
 274 428 274 428 271 411 c 2,13,-1
 175 0 l 1,14,-1
 8 0 l 1,0,-1
EndSplineSet
EndChar

StartChar: Xi
Encoding: 926 926 363
Width: 600
GlyphClass: 2
Flags: W
AnchorPoint: "Anchor-3" 300 714 basechar 0
AnchorPoint: "Anchor-0" 300 0 basechar 0
LayerCount: 2
Fore
SplineSet
63 583 m 1,0,-1
 63 714 l 1,1,-1
 537 714 l 1,2,-1
 537 583 l 1,3,-1
 63 583 l 1,0,-1
103 305 m 1,4,-1
 103 436 l 1,5,-1
 497 436 l 1,6,-1
 497 305 l 1,7,-1
 103 305 l 1,4,-1
43 0 m 1,8,-1
 43 132 l 1,9,-1
 557 132 l 1,10,-1
 557 0 l 1,11,-1
 43 0 l 1,8,-1
EndSplineSet
EndChar

StartChar: Pi
Encoding: 928 928 365
Width: 600
GlyphClass: 2
Flags: W
AnchorPoint: "Anchor-3" 300 714 basechar 0
AnchorPoint: "Anchor-0" 300 0 basechar 0
LayerCount: 2
Fore
SplineSet
43 0 m 1,0,-1
 43 714 l 1,1,-1
 557 714 l 1,2,-1
 557 0 l 1,3,-1
 398 0 l 1,4,-1
 398 581 l 1,5,-1
 202 581 l 1,6,-1
 202 0 l 1,7,-1
 43 0 l 1,0,-1
EndSplineSet
EndChar

StartChar: Sigma
Encoding: 931 931 367
Width: 600
GlyphClass: 2
Flags: W
AnchorPoint: "Anchor-3" 300 714 basechar 0
AnchorPoint: "Anchor-0" 300 0 basechar 0
LayerCount: 2
Fore
SplineSet
71 0 m 1,0,-1
 71 126 l 1,1,-1
 282 374 l 1,2,-1
 77 592 l 1,3,-1
 77 714 l 1,4,-1
 510 714 l 1,5,-1
 510 583 l 1,6,-1
 362 583 l 2,7,8
 334 583 334 583 307 584 c 128,-1,9
 280 585 280 585 252 588 c 1,10,-1
 457 375 l 1,11,-1
 241 126 l 1,12,13
 276 129 276 129 307.5 130.5 c 128,-1,14
 339 132 339 132 374 132 c 2,15,-1
 539 132 l 1,16,-1
 539 0 l 1,17,-1
 71 0 l 1,0,-1
EndSplineSet
EndChar

StartChar: Phi
Encoding: 934 934 370
Width: 600
GlyphClass: 2
Flags: W
AnchorPoint: "Anchor-3" 300 714 basechar 0
AnchorPoint: "Anchor-0" 300 0 basechar 0
LayerCount: 2
Fore
SplineSet
235 -10 m 1,0,-1
 235 100 l 1,1,2
 173 102 173 102 132 126 c 128,-1,3
 91 150 91 150 67.5 189.5 c 128,-1,4
 44 229 44 229 34.5 276 c 128,-1,5
 25 323 25 323 25 371 c 0,6,7
 25 440 25 440 44.5 499.5 c 128,-1,8
 64 559 64 559 110 596.5 c 128,-1,9
 156 634 156 634 235 636 c 1,10,-1
 235 724 l 1,11,-1
 368 724 l 1,12,-1
 368 636 l 1,13,14
 446 634 446 634 491 596 c 128,-1,15
 536 558 536 558 555 498.5 c 128,-1,16
 574 439 574 439 574 372 c 0,17,18
 574 321 574 321 563.5 273.5 c 128,-1,19
 553 226 553 226 529 187 c 128,-1,20
 505 148 505 148 465.5 125 c 128,-1,21
 426 102 426 102 368 100 c 1,22,-1
 368 -10 l 1,23,-1
 235 -10 l 1,0,-1
235 223 m 1,24,-1
 235 512 l 1,25,26
 204 510 204 510 188 490 c 128,-1,27
 172 470 172 470 166 438.5 c 128,-1,28
 160 407 160 407 160 371 c 0,29,30
 160 310 160 310 175.5 268 c 128,-1,31
 191 226 191 226 235 223 c 1,24,-1
368 223 m 1,32,33
 409 226 409 226 424.5 268.5 c 128,-1,34
 440 311 440 311 440 370 c 0,35,36
 440 407 440 407 433.5 438.5 c 128,-1,37
 427 470 427 470 411.5 490 c 128,-1,38
 396 510 396 510 368 512 c 1,39,-1
 368 223 l 1,32,33
EndSplineSet
EndChar

StartChar: Psi
Encoding: 936 936 372
Width: 600
GlyphClass: 2
Flags: W
AnchorPoint: "Anchor-3" 300 714 basechar 0
AnchorPoint: "Anchor-0" 300 0 basechar 0
LayerCount: 2
Fore
SplineSet
234 0 m 1,0,-1
 234 206 l 1,1,2
 118 206 118 206 71.5 271.5 c 128,-1,3
 25 337 25 337 25 460 c 2,4,-1
 25 714 l 1,5,-1
 161 714 l 1,6,-1
 161 470 l 2,7,8
 161 414 161 414 169 384 c 128,-1,9
 177 354 177 354 193.5 342.5 c 128,-1,10
 210 331 210 331 234 331 c 1,11,-1
 234 714 l 1,12,-1
 365 714 l 1,13,-1
 365 331 l 1,14,15
 388 331 388 331 404.5 342.5 c 128,-1,16
 421 354 421 354 430 384 c 128,-1,17
 439 414 439 414 439 468 c 2,18,-1
 439 714 l 1,19,-1
 574 714 l 1,20,-1
 574 464 l 2,21,22
 574 339 574 339 526 272.5 c 128,-1,23
 478 206 478 206 365 206 c 1,24,-1
 365 0 l 1,25,-1
 234 0 l 1,0,-1
EndSplineSet
EndChar

StartChar: uni03A9
Encoding: 937 937 373
Width: 600
GlyphClass: 2
Flags: W
AnchorPoint: "Anchor-3" 299 714 basechar 0
AnchorPoint: "Anchor-0" 300 0 basechar 0
LayerCount: 2
Fore
SplineSet
10 0 m 1,0,-1
 10 121 l 1,1,-1
 143 121 l 1,2,3
 90 162 90 162 59.5 237 c 128,-1,4
 29 312 29 312 29 413 c 0,5,6
 29 566 29 566 100 645.5 c 128,-1,7
 171 725 171 725 298 725 c 0,8,9
 422 725 422 725 495.5 647 c 128,-1,10
 569 569 569 569 569 411 c 0,11,12
 569 312 569 312 538.5 237.5 c 128,-1,13
 508 163 508 163 453 121 c 1,14,-1
 590 121 l 1,15,-1
 590 0 l 1,16,-1
 343 0 l 1,17,-1
 343 131 l 1,18,19
 386 169 386 169 406 234.5 c 128,-1,20
 426 300 426 300 426 388 c 0,21,22
 426 494 426 494 396 546 c 128,-1,23
 366 598 366 598 300 598 c 256,24,25
 234 598 234 598 204 546.5 c 128,-1,26
 174 495 174 495 174 385 c 0,27,28
 174 297 174 297 193 232 c 128,-1,29
 212 167 212 167 254 131 c 1,30,-1
 254 0 l 1,31,-1
 10 0 l 1,0,-1
EndSplineSet
EndChar

StartChar: alpha
Encoding: 945 945 381
Width: 600
GlyphClass: 2
Flags: W
AnchorPoint: "Anchor-3" 300 549 basechar 0
AnchorPoint: "Anchor-0" 299 0 basechar 0
LayerCount: 2
Fore
SplineSet
229 -10 m 0,0,1
 142 -10 142 -10 88.5 62 c 128,-1,2
 35 134 35 134 35 274 c 0,3,4
 35 412 35 412 89 484 c 128,-1,5
 143 556 143 556 240 556 c 0,6,7
 292 556 292 556 323 535.5 c 128,-1,8
 354 515 354 515 378 474 c 1,9,-1
 385 474 l 1,10,11
 390 491 390 491 398 511.5 c 128,-1,12
 406 532 406 532 419 547 c 1,13,-1
 549 547 l 1,14,15
 538 516 538 516 525.5 454.5 c 128,-1,16
 513 393 513 393 513 325 c 2,17,-1
 513 178 l 2,18,19
 513 144 513 144 525 131.5 c 128,-1,20
 537 119 537 119 553 119 c 0,21,22
 560 119 560 119 569.5 120.5 c 128,-1,23
 579 122 579 122 583 124 c 1,24,-1
 583 3 l 1,25,26
 576 -2 576 -2 554.5 -6 c 128,-1,27
 533 -10 533 -10 511 -10 c 0,28,29
 463 -10 463 -10 430.5 8 c 128,-1,30
 398 26 398 26 380 72 c 1,31,-1
 370 72 l 1,32,33
 347 38 347 38 314.5 14 c 128,-1,34
 282 -10 282 -10 229 -10 c 0,0,1
279 115 m 0,35,36
 326 115 326 115 346 152.5 c 128,-1,37
 366 190 366 190 367 267 c 2,38,-1
 367 273 l 2,39,40
 367 349 367 349 347 390.5 c 128,-1,41
 327 432 327 432 276 432 c 0,42,43
 232 432 232 432 212 391 c 128,-1,44
 192 350 192 350 192 274 c 0,45,46
 192 192 192 192 214 153.5 c 128,-1,47
 236 115 236 115 279 115 c 0,35,36
EndSplineSet
EndChar

StartChar: beta
Encoding: 946 946 382
Width: 600
GlyphClass: 2
Flags: W
AnchorPoint: "Anchor-4" 580 765 basechar 0
AnchorPoint: "Anchor-3" 302 765 basechar 0
AnchorPoint: "Anchor-0" 375 0 basechar 0
LayerCount: 2
Fore
SplineSet
50 -240 m 1,0,-1
 50 535 l 2,1,2
 50 616 50 616 83.5 666.5 c 128,-1,3
 117 717 117 717 174.5 741 c 128,-1,4
 232 765 232 765 303 765 c 0,5,6
 370 765 370 765 422 744 c 128,-1,7
 474 723 474 723 504 679.5 c 128,-1,8
 534 636 534 636 534 571 c 0,9,10
 534 501 534 501 498.5 458.5 c 128,-1,11
 463 416 463 416 397 405 c 1,12,-1
 397 402 l 1,13,14
 479 392 479 392 526 347.5 c 128,-1,15
 573 303 573 303 573 212 c 0,16,17
 573 107 573 107 509.5 48.5 c 128,-1,18
 446 -10 446 -10 338 -10 c 0,19,20
 294 -10 294 -10 263.5 -2 c 128,-1,21
 233 6 233 6 208 21 c 1,22,-1
 208 -240 l 1,23,-1
 50 -240 l 1,0,-1
299 115 m 0,24,25
 356 115 356 115 386.5 144 c 128,-1,26
 417 173 417 173 417 226 c 0,27,28
 417 266 417 266 400 288.5 c 128,-1,29
 383 311 383 311 355 321 c 128,-1,30
 327 331 327 331 294 331 c 2,31,-1
 261 331 l 1,32,-1
 261 454 l 1,33,-1
 285 454 l 2,34,35
 334 454 334 454 357.5 481.5 c 128,-1,36
 381 509 381 509 381 552 c 0,37,38
 381 598 381 598 358.5 621 c 128,-1,39
 336 644 336 644 299 644 c 0,40,41
 274 644 274 644 253.5 633.5 c 128,-1,42
 233 623 233 623 220.5 596.5 c 128,-1,43
 208 570 208 570 208 521 c 2,44,-1
 208 147 l 1,45,46
 224 134 224 134 246 124.5 c 128,-1,47
 268 115 268 115 299 115 c 0,24,25
EndSplineSet
EndChar

StartChar: gamma
Encoding: 947 947 383
Width: 600
GlyphClass: 2
Flags: W
AnchorPoint: "Anchor-4" 580 549 basechar 0
AnchorPoint: "Anchor-3" 307 549 basechar 0
AnchorPoint: "Anchor-0" 305 -240 basechar 0
LayerCount: 2
Fore
SplineSet
171 -240 m 1,0,1
 171 -212 171 -212 177.5 -170 c 128,-1,2
 184 -128 184 -128 195 -81.5 c 128,-1,3
 206 -35 206 -35 219 6 c 1,4,-1
 15 549 l 1,5,-1
 180 549 l 1,6,-1
 252 322 l 2,7,8
 261 295 261 295 271 260.5 c 128,-1,9
 281 226 281 226 289 193 c 128,-1,10
 297 160 297 160 300 140 c 1,11,-1
 304 140 l 1,12,13
 306 155 306 155 312 183 c 128,-1,14
 318 211 318 211 328 245.5 c 128,-1,15
 338 280 338 280 348 314 c 2,16,-1
 421 549 l 1,17,-1
 585 549 l 1,18,-1
 386 9 l 2,19,20
 364 -52 364 -52 351 -121 c 128,-1,21
 338 -190 338 -190 338 -240 c 1,22,-1
 171 -240 l 1,0,1
EndSplineSet
EndChar

StartChar: delta
Encoding: 948 948 384
Width: 600
GlyphClass: 2
Flags: W
AnchorPoint: "Anchor-3" 332 766 basechar 0
AnchorPoint: "Anchor-0" 301 0 basechar 0
LayerCount: 2
Fore
SplineSet
297 -10 m 0,0,1
 221 -10 221 -10 162 16 c 128,-1,2
 103 42 103 42 69 92 c 128,-1,3
 35 142 35 142 35 214 c 0,4,5
 35 310 35 310 85.5 365 c 128,-1,6
 136 420 136 420 221 446 c 1,7,8
 172 477 172 477 140 518 c 128,-1,9
 108 559 108 559 108 614 c 0,10,11
 108 686 108 686 168 726 c 128,-1,12
 228 766 228 766 332 766 c 0,13,14
 399 766 399 766 453 751 c 128,-1,15
 507 736 507 736 560 711 c 1,16,-1
 499 599 l 1,17,18
 453 622 453 622 410.5 635.5 c 128,-1,19
 368 649 368 649 329 649 c 0,20,21
 291 649 291 649 275 635.5 c 128,-1,22
 259 622 259 622 259 603 c 0,23,24
 259 579 259 579 290 555.5 c 128,-1,25
 321 532 321 532 391 495 c 0,26,27
 481 448 481 448 522.5 387 c 128,-1,28
 564 326 564 326 564 245 c 0,29,30
 564 114 564 114 491 52 c 128,-1,31
 418 -10 418 -10 297 -10 c 0,0,1
298 114 m 0,32,33
 348 114 348 114 375.5 146.5 c 128,-1,34
 403 179 403 179 403 239 c 0,35,36
 403 288 403 288 377.5 323 c 128,-1,37
 352 358 352 358 312 383 c 1,38,39
 287 376 287 376 260.5 357 c 128,-1,40
 234 338 234 338 215.5 304.5 c 128,-1,41
 197 271 197 271 197 221 c 0,42,43
 197 175 197 175 223.5 144.5 c 128,-1,44
 250 114 250 114 298 114 c 0,32,33
EndSplineSet
EndChar

StartChar: epsilon
Encoding: 949 949 385
Width: 600
GlyphClass: 2
Flags: W
AnchorPoint: "Anchor-3" 300 549 basechar 0
AnchorPoint: "Anchor-0" 326 0 basechar 0
LayerCount: 2
Fore
SplineSet
332 -10 m 0,0,1
 192 -10 192 -10 130 33.5 c 128,-1,2
 68 77 68 77 68 153 c 0,3,4
 68 209 68 209 104 240.5 c 128,-1,5
 140 272 140 272 201 283 c 1,6,-1
 201 288 l 1,7,8
 151 300 151 300 124.5 332.5 c 128,-1,9
 98 365 98 365 98 412 c 0,10,11
 98 464 98 464 130 496 c 128,-1,12
 162 528 162 528 216 542.5 c 128,-1,13
 270 557 270 557 336 557 c 0,14,15
 394 557 394 557 448.5 546.5 c 128,-1,16
 503 536 503 536 547 516 c 1,17,-1
 499 404 l 1,18,19
 463 420 463 420 425.5 431 c 128,-1,20
 388 442 388 442 341 442 c 0,21,22
 242 442 242 442 242 394 c 0,23,24
 242 364 242 364 272 351.5 c 128,-1,25
 302 339 302 339 370 339 c 2,26,-1
 440 339 l 1,27,-1
 440 231 l 1,28,-1
 361 231 l 2,29,30
 285 231 285 231 255 215.5 c 128,-1,31
 225 200 225 200 225 169 c 0,32,33
 225 145 225 145 251.5 128 c 128,-1,34
 278 111 278 111 348 111 c 0,35,36
 409 111 409 111 460.5 124 c 128,-1,37
 512 137 512 137 546 153 c 1,38,-1
 546 28 l 1,39,40
 508 11 508 11 455 0.5 c 128,-1,41
 402 -10 402 -10 332 -10 c 0,0,1
EndSplineSet
EndChar

StartChar: zeta
Encoding: 950 950 386
Width: 600
GlyphClass: 2
Flags: W
AnchorPoint: "Anchor-3" 325 760 basechar 0
AnchorPoint: "Anchor-0" 323 -184 basechar 0
LayerCount: 2
Fore
SplineSet
310 -184 m 1,0,1
 341 -144 341 -144 361.5 -112.5 c 128,-1,2
 382 -81 382 -81 382 -54 c 0,3,4
 382 -28 382 -28 362 -17 c 128,-1,5
 342 -6 342 -6 285 6 c 0,6,7
 224 20 224 20 178.5 45 c 128,-1,8
 133 70 133 70 108 114 c 128,-1,9
 83 158 83 158 83 228 c 0,10,11
 83 308 83 308 118 381.5 c 128,-1,12
 153 455 153 455 214.5 522 c 128,-1,13
 276 589 276 589 355 652 c 1,14,15
 344 649 344 649 324.5 647 c 128,-1,16
 305 645 305 645 285.5 644.5 c 128,-1,17
 266 644 266 644 253 644 c 2,18,-1
 111 644 l 1,19,-1
 111 760 l 1,20,-1
 531 760 l 1,21,-1
 531 665 l 1,22,23
 437 588 437 588 380 524 c 128,-1,24
 323 460 323 460 293.5 408 c 128,-1,25
 264 356 264 356 254 314 c 128,-1,26
 244 272 244 272 244 238 c 0,27,28
 244 194 244 194 259 171 c 128,-1,29
 274 148 274 148 304.5 137 c 128,-1,30
 335 126 335 126 383 116 c 0,31,32
 468 98 468 98 502 65 c 128,-1,33
 536 32 536 32 536 -17 c 0,34,35
 536 -60 536 -60 515.5 -103.5 c 128,-1,36
 495 -147 495 -147 469 -184 c 1,37,-1
 310 -184 l 1,0,1
EndSplineSet
EndChar

StartChar: eta
Encoding: 951 951 387
Width: 600
GlyphClass: 2
Flags: W
AnchorPoint: "Anchor-4" 580 549 basechar 0
AnchorPoint: "Anchor-3" 300 549 basechar 0
AnchorPoint: "Anchor-0" 303 -240 basechar 0
LayerCount: 2
Fore
SplineSet
50 0 m 1,0,-1
 50 549 l 1,1,-1
 170 549 l 1,2,-1
 193 479 l 1,3,-1
 202 479 l 1,4,5
 254 559 254 559 368 559 c 0,6,7
 461 559 461 559 508 506.5 c 128,-1,8
 555 454 555 454 555 357 c 2,9,-1
 555 -240 l 1,10,-1
 396 -240 l 1,11,-1
 396 311 l 2,12,13
 396 373 396 373 374.5 401.5 c 128,-1,14
 353 430 353 430 312 430 c 0,15,16
 256 430 256 430 232.5 382 c 128,-1,17
 209 334 209 334 209 250 c 2,18,-1
 209 0 l 1,19,-1
 50 0 l 1,0,-1
EndSplineSet
EndChar

StartChar: theta
Encoding: 952 952 388
Width: 600
GlyphClass: 2
Flags: W
AnchorPoint: "Anchor-4" 580 767 basechar 0
AnchorPoint: "Anchor-3" 301 767 basechar 0
AnchorPoint: "Anchor-0" 299 0 basechar 0
LayerCount: 2
Fore
SplineSet
299 -10 m 0,0,1
 169 -10 169 -10 105.5 93 c 128,-1,2
 42 196 42 196 42 379 c 0,3,4
 42 500 42 500 67.5 587 c 128,-1,5
 93 674 93 674 149.5 720.5 c 128,-1,6
 206 767 206 767 299 767 c 0,7,8
 429 767 429 767 493 665 c 128,-1,9
 557 563 557 563 557 379 c 0,10,11
 557 257 557 257 531.5 170 c 128,-1,12
 506 83 506 83 449 36.5 c 128,-1,13
 392 -10 392 -10 299 -10 c 0,0,1
205 439 m 1,14,-1
 396 439 l 1,15,16
 392 546 392 546 369.5 600 c 128,-1,17
 347 654 347 654 300 654 c 0,18,19
 252 654 252 654 230 600 c 128,-1,20
 208 546 208 546 205 439 c 1,14,-1
299 103 m 256,21,22
 348 103 348 103 371 158.5 c 128,-1,23
 394 214 394 214 395 323 c 1,24,-1
 203 323 l 1,25,26
 204 215 204 215 227 159 c 128,-1,27
 250 103 250 103 299 103 c 256,21,22
EndSplineSet
EndChar

StartChar: iota
Encoding: 953 953 389
Width: 600
GlyphClass: 2
Flags: W
AnchorPoint: "Anchor-3" 282 549 basechar 0
AnchorPoint: "Anchor-0" 384 0 basechar 0
LayerCount: 2
Fore
SplineSet
385 -10 m 0,0,1
 333 -10 333 -10 291 6 c 128,-1,2
 249 22 249 22 224.5 62 c 128,-1,3
 200 102 200 102 200 173 c 2,4,-1
 200 549 l 1,5,-1
 358 549 l 1,6,-1
 358 176 l 2,7,8
 358 144 358 144 376 129.5 c 128,-1,9
 394 115 394 115 421 115 c 0,10,11
 446 115 446 115 469.5 120 c 128,-1,12
 493 125 493 125 517 133 c 1,13,-1
 517 16 l 1,14,15
 493 5 493 5 459.5 -2.5 c 128,-1,16
 426 -10 426 -10 385 -10 c 0,0,1
EndSplineSet
EndChar

StartChar: lambda
Encoding: 955 955 391
Width: 600
GlyphClass: 2
Flags: W
AnchorPoint: "Anchor-3" 301 766 basechar 0
AnchorPoint: "Anchor-0" 299 0 basechar 0
LayerCount: 2
Fore
SplineSet
499 -10 m 0,0,1
 439 -10 439 -10 409 24.5 c 128,-1,2
 379 59 379 59 364 108 c 2,3,-1
 328 233 l 2,4,5
 319 264 319 264 310.5 294 c 128,-1,6
 302 324 302 324 299 345 c 1,7,-1
 295 345 l 1,8,9
 289 317 289 317 279.5 286.5 c 128,-1,10
 270 256 270 256 263 236 c 2,11,-1
 173 0 l 1,12,-1
 14 0 l 1,13,-1
 232 517 l 1,14,-1
 217 556 l 2,15,16
 198 608 198 608 175 622.5 c 128,-1,17
 152 637 152 637 119 637 c 0,18,19
 102 637 102 637 87.5 635 c 128,-1,20
 73 633 73 633 62 630 c 1,21,-1
 62 758 l 1,22,23
 76 761 76 761 101.5 763.5 c 128,-1,24
 127 766 127 766 147 766 c 0,25,26
 235 766 235 766 280 721.5 c 128,-1,27
 325 677 325 677 353 590 c 2,28,-1
 472 213 l 2,29,30
 486 170 486 170 499.5 149 c 128,-1,31
 513 128 513 128 527 121 c 128,-1,32
 541 114 541 114 556 114 c 0,33,34
 569 114 569 114 591 119 c 1,35,-1
 591 5 l 1,36,37
 579 -1 579 -1 549.5 -5.5 c 128,-1,38
 520 -10 520 -10 499 -10 c 0,0,1
EndSplineSet
EndChar

StartChar: uni03BC
Encoding: 956 956 392
Width: 600
GlyphClass: 2
Flags: W
AnchorPoint: "Anchor-4" 580 549 basechar 0
AnchorPoint: "Anchor-3" 300 549 basechar 0
AnchorPoint: "Anchor-2" 540 10 basechar 0
AnchorPoint: "Anchor-0" 300 -240 basechar 0
LayerCount: 2
Fore
SplineSet
230 -10 m 0,0,1
 216 -10 216 -10 204 -9 c 1,2,-1
 204 -240 l 1,3,-1
 45 -240 l 1,4,-1
 45 549 l 1,5,-1
 204 549 l 1,6,-1
 204 236 l 2,7,8
 204 180 204 180 222.5 149.5 c 128,-1,9
 241 119 241 119 288 119 c 0,10,11
 330 119 330 119 352.5 140 c 128,-1,12
 375 161 375 161 383 198 c 128,-1,13
 391 235 391 235 391 283 c 2,14,-1
 391 549 l 1,15,-1
 550 549 l 1,16,-1
 550 0 l 1,17,-1
 430 0 l 1,18,-1
 407 70 l 1,19,-1
 398 70 l 1,20,21
 347 -10 347 -10 230 -10 c 0,0,1
EndSplineSet
EndChar

StartChar: nu
Encoding: 957 957 393
Width: 600
GlyphClass: 2
Flags: W
AnchorPoint: "Anchor-3" 302 549 basechar 0
AnchorPoint: "Anchor-0" 306 0 basechar 0
LayerCount: 2
Fore
SplineSet
214 0 m 1,0,-1
 34 549 l 1,1,-1
 196 549 l 1,2,-1
 282 243 l 2,3,4
 288 222 288 222 294.5 191 c 128,-1,5
 301 160 301 160 306 140 c 1,6,-1
 310 140 l 1,7,8
 353 214 353 214 372 310 c 128,-1,9
 391 406 391 406 391 549 c 1,10,-1
 549 549 l 1,11,12
 549 442 549 442 531.5 349.5 c 128,-1,13
 514 257 514 257 472 171.5 c 128,-1,14
 430 86 430 86 355 0 c 1,15,-1
 214 0 l 1,0,-1
EndSplineSet
EndChar

StartChar: xi
Encoding: 958 958 394
Width: 600
GlyphClass: 2
Flags: W
AnchorPoint: "Anchor-3" 339 760 basechar 0
AnchorPoint: "Anchor-0" 337 -184 basechar 0
LayerCount: 2
Fore
SplineSet
311 -184 m 1,0,1
 341 -146 341 -146 362 -110 c 128,-1,2
 383 -74 383 -74 383 -48 c 0,3,4
 383 -24 383 -24 360.5 -15 c 128,-1,5
 338 -6 338 -6 292 5 c 0,6,7
 268 10 268 10 233.5 21 c 128,-1,8
 199 32 199 32 164.5 54 c 128,-1,9
 130 76 130 76 107 113 c 128,-1,10
 84 150 84 150 84 209 c 0,11,12
 84 281 84 281 122 325.5 c 128,-1,13
 160 370 160 370 222 395 c 1,14,-1
 222 400 l 1,15,16
 115 424 115 424 115 521 c 0,17,18
 115 573 115 573 147.5 603.5 c 128,-1,19
 180 634 180 634 246 650 c 1,20,21
 226 648 226 648 193.5 646 c 128,-1,22
 161 644 161 644 136 644 c 2,23,-1
 108 644 l 1,24,-1
 108 760 l 1,25,-1
 511 760 l 1,26,-1
 511 648 l 1,27,-1
 462 648 l 2,28,29
 412 648 412 648 368.5 636 c 128,-1,30
 325 624 325 624 298 598 c 128,-1,31
 271 572 271 572 271 529 c 0,32,33
 271 492 271 492 299.5 471.5 c 128,-1,34
 328 451 328 451 403 451 c 2,35,-1
 483 451 l 1,36,-1
 483 339 l 1,37,-1
 402 339 l 2,38,39
 316 339 316 339 280.5 309 c 128,-1,40
 245 279 245 279 245 224 c 0,41,42
 245 187 245 187 260 167.5 c 128,-1,43
 275 148 275 148 305.5 137.5 c 128,-1,44
 336 127 336 127 382 116 c 0,45,46
 425 106 425 106 460 91 c 128,-1,47
 495 76 495 76 516 51 c 128,-1,48
 537 26 537 26 537 -17 c 256,49,50
 537 -60 537 -60 516.5 -103.5 c 128,-1,51
 496 -147 496 -147 470 -184 c 1,52,-1
 311 -184 l 1,0,1
EndSplineSet
EndChar

StartChar: pi
Encoding: 960 960 396
Width: 600
GlyphClass: 2
Flags: W
AnchorPoint: "Anchor-3" 294 549 basechar 0
AnchorPoint: "Anchor-0" 294 0 basechar 0
LayerCount: 2
Fore
SplineSet
477 -10 m 0,0,1
 415 -10 415 -10 376.5 30.5 c 128,-1,2
 338 71 338 71 338 155 c 2,3,-1
 338 430 l 1,4,-1
 247 430 l 1,5,-1
 247 0 l 1,6,-1
 101 0 l 1,7,-1
 101 430 l 1,8,-1
 3 430 l 1,9,-1
 3 497 l 1,10,-1
 93 549 l 1,11,-1
 592 549 l 1,12,-1
 592 430 l 1,13,-1
 483 430 l 1,14,-1
 483 165 l 2,15,16
 483 139 483 139 496.5 126.5 c 128,-1,17
 510 114 510 114 531 114 c 0,18,19
 546 114 546 114 563.5 119 c 128,-1,20
 581 124 581 124 596 131 c 1,21,-1
 596 19 l 1,22,23
 577 7 577 7 544.5 -1.5 c 128,-1,24
 512 -10 512 -10 477 -10 c 0,0,1
EndSplineSet
EndChar

StartChar: rho
Encoding: 961 961 397
Width: 600
GlyphClass: 2
Flags: W
AnchorPoint: "Anchor-3" 309 549 basechar 0
AnchorPoint: "Anchor-0" 300 -240 basechar 0
LayerCount: 2
Fore
SplineSet
50 -240 m 1,0,-1
 50 274 l 2,1,2
 50 408 50 408 119 482.5 c 128,-1,3
 188 557 188 557 309 557 c 0,4,5
 384 557 384 557 441.5 524 c 128,-1,6
 499 491 499 491 532 427.5 c 128,-1,7
 565 364 565 364 565 271 c 0,8,9
 565 139 565 139 505.5 64.5 c 128,-1,10
 446 -10 446 -10 344 -10 c 0,11,12
 306 -10 306 -10 271 0 c 128,-1,13
 236 10 236 10 210 27 c 1,14,-1
 200 27 l 1,15,16
 205 -1 205 -1 207 -32.5 c 128,-1,17
 209 -64 209 -64 209 -104 c 2,18,-1
 209 -240 l 1,19,-1
 50 -240 l 1,0,-1
310 115 m 0,20,21
 359 115 359 115 381 152 c 128,-1,22
 403 189 403 189 403 274 c 256,23,24
 403 359 403 359 380.5 396.5 c 128,-1,25
 358 434 358 434 309 434 c 0,26,27
 259 434 259 434 234 398 c 128,-1,28
 209 362 209 362 209 286 c 2,29,-1
 209 156 l 1,30,31
 228 136 228 136 255 125.5 c 128,-1,32
 282 115 282 115 310 115 c 0,20,21
EndSplineSet
EndChar

StartChar: sigma1
Encoding: 962 962 398
Width: 600
GlyphClass: 2
Flags: W
AnchorPoint: "Anchor-3" 345 549 basechar 0
AnchorPoint: "Anchor-0" 333 -186 basechar 0
LayerCount: 2
Fore
SplineSet
298 -184 m 1,0,1
 329 -144 329 -144 349.5 -103 c 128,-1,2
 370 -62 370 -62 370 -40 c 0,3,4
 370 -20 370 -20 349.5 -9.5 c 128,-1,5
 329 1 329 1 273 14 c 0,6,7
 210 28 210 28 163 55.5 c 128,-1,8
 116 83 116 83 90.5 133.5 c 128,-1,9
 65 184 65 184 65 268 c 0,10,11
 65 370 65 370 99.5 434 c 128,-1,12
 134 498 134 498 197 527.5 c 128,-1,13
 260 557 260 557 345 557 c 0,14,15
 392 557 392 557 437.5 547.5 c 128,-1,16
 483 538 483 538 524 517 c 1,17,-1
 479 398 l 1,18,19
 409 431 409 431 349 431 c 0,20,21
 283 431 283 431 254.5 387.5 c 128,-1,22
 226 344 226 344 226 267 c 0,23,24
 226 219 226 219 241.5 191.5 c 128,-1,25
 257 164 257 164 289 149 c 128,-1,26
 321 134 321 134 371 123 c 0,27,28
 457 104 457 104 490.5 70 c 128,-1,29
 524 36 524 36 524 -13 c 0,30,31
 524 -57 524 -57 503.5 -102 c 128,-1,32
 483 -147 483 -147 457 -184 c 1,33,-1
 298 -184 l 1,0,1
EndSplineSet
EndChar

StartChar: sigma
Encoding: 963 963 399
Width: 600
GlyphClass: 2
Flags: W
AnchorPoint: "Anchor-3" 290 549 basechar 0
AnchorPoint: "Anchor-0" 290 0 basechar 0
LayerCount: 2
Fore
SplineSet
289 -10 m 0,0,1
 173 -10 173 -10 104 59.5 c 128,-1,2
 35 129 35 129 35 268 c 0,3,4
 35 411 35 411 110.5 480 c 128,-1,5
 186 549 186 549 329 549 c 2,6,-1
 583 549 l 1,7,-1
 583 432 l 1,8,-1
 461 432 l 1,9,10
 498 399 498 399 518.5 352 c 128,-1,11
 539 305 539 305 539 247 c 0,12,13
 539 130 539 130 474.5 60 c 128,-1,14
 410 -10 410 -10 289 -10 c 0,0,1
287 117 m 0,15,16
 335 117 335 117 356 154.5 c 128,-1,17
 377 192 377 192 377 260 c 0,18,19
 377 315 377 315 366.5 355.5 c 128,-1,20
 356 396 356 396 337 432 c 1,21,-1
 317 432 l 2,22,23
 256 432 256 432 226.5 395.5 c 128,-1,24
 197 359 197 359 197 271 c 0,25,26
 197 200 197 200 217.5 158.5 c 128,-1,27
 238 117 238 117 287 117 c 0,15,16
EndSplineSet
EndChar

StartChar: tau
Encoding: 964 964 400
Width: 600
GlyphClass: 2
Flags: W
AnchorPoint: "Anchor-3" 315 549 basechar 0
AnchorPoint: "Anchor-0" 353 0 basechar 0
LayerCount: 2
Fore
SplineSet
377 -10 m 0,0,1
 325 -10 325 -10 284 6 c 128,-1,2
 243 22 243 22 219.5 62 c 128,-1,3
 196 102 196 102 196 173 c 2,4,-1
 196 431 l 1,5,-1
 55 431 l 1,6,-1
 55 496 l 1,7,-1
 143 549 l 1,8,-1
 540 549 l 1,9,-1
 540 431 l 1,10,-1
 354 431 l 1,11,-1
 354 177 l 2,12,13
 354 146 354 146 371 130.5 c 128,-1,14
 388 115 388 115 416 115 c 0,15,16
 441 115 441 115 464 120.5 c 128,-1,17
 487 126 487 126 510 133 c 1,18,-1
 510 16 l 1,19,20
 486 6 486 6 452 -2 c 128,-1,21
 418 -10 418 -10 377 -10 c 0,0,1
EndSplineSet
EndChar

StartChar: upsilon
Encoding: 965 965 401
Width: 600
GlyphClass: 2
Flags: W
AnchorPoint: "Anchor-3" 300 549 basechar 0
AnchorPoint: "Anchor-0" 297 0 basechar 0
LayerCount: 2
Fore
SplineSet
295 -9 m 0,0,1
 200 -9 200 -9 146.5 25.5 c 128,-1,2
 93 60 93 60 71.5 118 c 128,-1,3
 50 176 50 176 50 249 c 2,4,-1
 50 549 l 1,5,-1
 208 549 l 1,6,-1
 208 244 l 2,7,8
 208 176 208 176 230 146.5 c 128,-1,9
 252 117 252 117 299 117 c 0,10,11
 354 117 354 117 381 158 c 128,-1,12
 408 199 408 199 408 300 c 0,13,14
 408 364 408 364 399 423 c 128,-1,15
 390 482 390 482 373 549 c 1,16,-1
 532 549 l 1,17,18
 548 484 548 484 557 425 c 128,-1,19
 566 366 566 366 566 301 c 0,20,21
 566 140 566 140 497.5 65.5 c 128,-1,22
 429 -9 429 -9 295 -9 c 0,0,1
EndSplineSet
EndChar

StartChar: phi
Encoding: 966 966 402
Width: 600
GlyphClass: 2
Flags: W
AnchorPoint: "Anchor-3" 296 549 basechar 0
AnchorPoint: "Anchor-0" 296 -240 basechar 0
LayerCount: 2
Fore
SplineSet
233 -240 m 1,0,-1
 233 -6 l 1,1,2
 139 3 139 3 87 74.5 c 128,-1,3
 35 146 35 146 35 271 c 0,4,5
 35 429 35 429 128 557 c 1,6,-1
 227 497 l 1,7,8
 202 450 202 450 186 391 c 128,-1,9
 170 332 170 332 168 264 c 0,10,11
 168 196 168 196 185 156 c 128,-1,12
 202 116 202 116 233 106 c 1,13,-1
 233 348 l 2,14,15
 233 453 233 453 273 504 c 128,-1,16
 313 555 313 555 385 555 c 0,17,18
 445 555 445 555 485 522 c 128,-1,19
 525 489 525 489 545 430.5 c 128,-1,20
 565 372 565 372 565 294 c 0,21,22
 565 164 565 164 511 85 c 128,-1,23
 457 6 457 6 359 -6 c 1,24,-1
 359 -240 l 1,25,-1
 233 -240 l 1,0,-1
359 106 m 1,26,27
 394 114 394 114 413 159 c 128,-1,28
 432 204 432 204 432 305 c 0,29,30
 432 367 432 367 422.5 405 c 128,-1,31
 413 443 413 443 389 443 c 0,32,33
 372 443 372 443 365.5 419.5 c 128,-1,34
 359 396 359 396 359 354 c 2,35,-1
 359 106 l 1,26,27
EndSplineSet
EndChar

StartChar: chi
Encoding: 967 967 403
Width: 600
GlyphClass: 2
Flags: W
AnchorPoint: "Anchor-4" 580 549 basechar 0
AnchorPoint: "Anchor-3" 313 549 basechar 0
AnchorPoint: "Anchor-0" 313 -246 basechar 0
LayerCount: 2
Fore
SplineSet
498 -246 m 0,0,1
 429 -246 429 -246 395 -212.5 c 128,-1,2
 361 -179 361 -179 339 -104 c 2,3,-1
 298 42 l 1,4,-1
 176 -240 l 1,5,-1
 15 -240 l 1,6,-1
 233 195 l 1,7,-1
 181 362 l 2,8,9
 169 401 169 401 154 413.5 c 128,-1,10
 139 426 139 426 118 426 c 0,11,12
 108 426 108 426 95.5 424 c 128,-1,13
 83 422 83 422 66 416 c 1,14,-1
 66 539 l 1,15,16
 88 546 88 546 109.5 550.5 c 128,-1,17
 131 555 131 555 161 555 c 0,18,19
 202 555 202 555 229 542 c 128,-1,20
 256 529 256 529 274.5 498 c 128,-1,21
 293 467 293 467 309 413 c 2,22,-1
 333 329 l 1,23,-1
 427 549 l 1,24,-1
 584 549 l 1,25,-1
 396 175 l 1,26,-1
 462 -56 l 2,27,28
 472 -88 472 -88 490 -101.5 c 128,-1,29
 508 -115 508 -115 537 -115 c 0,30,31
 547 -115 547 -115 559.5 -113.5 c 128,-1,32
 572 -112 572 -112 584 -108 c 1,33,-1
 584 -227 l 1,34,35
 569 -234 569 -234 549.5 -240 c 128,-1,36
 530 -246 530 -246 498 -246 c 0,0,1
EndSplineSet
EndChar

StartChar: psi
Encoding: 968 968 404
Width: 600
GlyphClass: 2
Flags: W
AnchorPoint: "Anchor-3" 302 759 basechar 0
AnchorPoint: "Anchor-0" 302 -240 basechar 0
LayerCount: 2
Fore
SplineSet
241 -240 m 1,0,-1
 241 -9 l 1,1,2
 145 -4 145 -4 97.5 57 c 128,-1,3
 50 118 50 118 50 251 c 2,4,-1
 50 549 l 1,5,-1
 179 549 l 1,6,-1
 179 258 l 2,7,8
 179 185 179 185 193 149.5 c 128,-1,9
 207 114 207 114 241 109 c 1,10,-1
 241 759 l 1,11,-1
 365 759 l 1,12,-1
 365 109 l 1,13,14
 402 116 402 116 418 155.5 c 128,-1,15
 434 195 434 195 434 285 c 0,16,17
 434 347 434 347 426 413 c 128,-1,18
 418 479 418 479 402 549 c 1,19,-1
 528 549 l 1,20,21
 548 470 548 470 556.5 407 c 128,-1,22
 565 344 565 344 565 282 c 0,23,24
 565 146 565 146 515 72 c 128,-1,25
 465 -2 465 -2 365 -9 c 1,26,-1
 365 -240 l 1,27,-1
 241 -240 l 1,0,-1
EndSplineSet
EndChar

StartChar: omega
Encoding: 969 969 405
Width: 600
GlyphClass: 2
Flags: W
AnchorPoint: "Anchor-3" 300 549 basechar 0
AnchorPoint: "Anchor-0" 300 0 basechar 0
LayerCount: 2
Fore
SplineSet
190 -10 m 0,0,1
 115 -10 115 -10 75 62 c 128,-1,2
 35 134 35 134 35 274 c 0,3,4
 35 346 35 346 46.5 411.5 c 128,-1,5
 58 477 58 477 80 549 c 1,6,-1
 209 549 l 1,7,8
 186 486 186 486 174.5 418 c 128,-1,9
 163 350 163 350 163 259 c 0,10,11
 163 188 163 188 172.5 152.5 c 128,-1,12
 182 117 182 117 204 117 c 0,13,14
 224 117 224 117 232 146.5 c 128,-1,15
 240 176 240 176 240 243 c 2,16,-1
 240 376 l 1,17,-1
 360 376 l 1,18,-1
 360 243 l 2,19,20
 360 174 360 174 368 145.5 c 128,-1,21
 376 117 376 117 395 117 c 0,22,23
 437 117 437 117 437 260 c 0,24,25
 437 339 437 339 426 410.5 c 128,-1,26
 415 482 415 482 390 549 c 1,27,-1
 520 549 l 1,28,29
 543 481 543 481 554 412.5 c 128,-1,30
 565 344 565 344 565 274 c 0,31,32
 565 133 565 133 524.5 61.5 c 128,-1,33
 484 -10 484 -10 410 -10 c 0,34,35
 323 -10 323 -10 302 95 c 1,36,-1
 298 95 l 1,37,38
 286 40 286 40 259 15 c 128,-1,39
 232 -10 232 -10 190 -10 c 0,0,1
EndSplineSet
EndChar

StartChar: afii10051
Encoding: 1026 1026 412
Width: 600
GlyphClass: 2
Flags: W
AnchorPoint: "Anchor-3" 195 714 basechar 0
AnchorPoint: "Anchor-0" 300 0 basechar 0
LayerCount: 2
Fore
SplineSet
367 -9 m 0,0,1
 344 -9 344 -9 328 -5.5 c 128,-1,2
 312 -2 312 -2 295 5 c 1,3,-1
 295 130 l 1,4,5
 306 123 306 123 318.5 119 c 128,-1,6
 331 115 331 115 350 115 c 0,7,8
 375 115 375 115 394.5 129.5 c 128,-1,9
 414 144 414 144 414 194 c 2,10,-1
 414 251 l 2,11,12
 414 295 414 295 388.5 313 c 128,-1,13
 363 331 363 331 306 331 c 2,14,-1
 246 331 l 1,15,-1
 246 0 l 1,16,-1
 100 0 l 1,17,-1
 100 587 l 1,18,-1
 0 587 l 1,19,-1
 0 714 l 1,20,-1
 405 714 l 1,21,-1
 405 587 l 1,22,-1
 246 587 l 1,23,-1
 246 457 l 1,24,-1
 319 457 l 2,25,26
 434 457 434 457 494.5 405.5 c 128,-1,27
 555 354 555 354 555 260 c 2,28,-1
 555 186 l 2,29,30
 555 93 555 93 504.5 42 c 128,-1,31
 454 -9 454 -9 367 -9 c 0,0,1
EndSplineSet
EndChar

StartChar: afii10053
Encoding: 1028 1028 414
Width: 600
GlyphClass: 2
Flags: W
AnchorPoint: "Anchor-3" 364 714 basechar 0
AnchorPoint: "Anchor-0" 358 0 basechar 0
LayerCount: 2
Fore
SplineSet
358 -10 m 0,0,1
 198 -10 198 -10 111.5 85 c 128,-1,2
 25 180 25 180 25 349 c 0,3,4
 25 462 25 462 64.5 546.5 c 128,-1,5
 104 631 104 631 179.5 677.5 c 128,-1,6
 255 724 255 724 363 724 c 0,7,8
 414 724 414 724 466.5 712.5 c 128,-1,9
 519 701 519 701 564 678 c 1,10,-1
 525 560 l 1,11,12
 489 579 489 579 450 590 c 128,-1,13
 411 601 411 601 368 601 c 0,14,15
 303 601 303 601 264 577 c 128,-1,16
 225 553 225 553 205.5 513.5 c 128,-1,17
 186 474 186 474 177 427 c 1,18,-1
 465 427 l 1,19,-1
 465 306 l 1,20,-1
 176 306 l 1,21,22
 180 222 180 222 229 168.5 c 128,-1,23
 278 115 278 115 374 115 c 0,24,25
 420 115 420 115 462 126.5 c 128,-1,26
 504 138 504 138 542 155 c 1,27,-1
 542 27 l 1,28,29
 504 8 504 8 455 -1 c 128,-1,30
 406 -10 406 -10 358 -10 c 0,0,1
EndSplineSet
EndChar

StartChar: afii10058
Encoding: 1033 1033 419
Width: 600
GlyphClass: 2
Flags: W
AnchorPoint: "Anchor-3" 245 714 basechar 0
AnchorPoint: "Anchor-0" 300 0 basechar 0
LayerCount: 2
Fore
SplineSet
63 -9 m 0,0,1
 45 -9 45 -9 31.5 -6.5 c 128,-1,2
 18 -4 18 -4 8 0 c 1,3,-1
 8 113 l 1,4,5
 14 110 14 110 20 108 c 128,-1,6
 26 106 26 106 34 106 c 0,7,8
 52 106 52 106 61 127 c 128,-1,9
 70 148 70 148 77 203 c 0,10,11
 79 221 79 221 82.5 270.5 c 128,-1,12
 86 320 86 320 89.5 391.5 c 128,-1,13
 93 463 93 463 96 546.5 c 128,-1,14
 99 630 99 630 102 714 c 1,15,-1
 392 714 l 1,16,-1
 392 444 l 1,17,-1
 415 444 l 2,18,19
 509 444 509 444 552.5 387 c 128,-1,20
 596 330 596 330 596 227 c 0,21,22
 596 118 596 118 546.5 59 c 128,-1,23
 497 0 497 0 404 0 c 2,24,-1
 269 0 l 1,25,-1
 269 589 l 1,26,-1
 220 589 l 1,27,28
 216 486 216 486 211 394 c 128,-1,29
 206 302 206 302 201 234 c 128,-1,30
 196 166 196 166 192 134 c 0,31,32
 180 52 180 52 148 21.5 c 128,-1,33
 116 -9 116 -9 63 -9 c 0,0,1
392 120 m 1,34,-1
 414 120 l 2,35,36
 442 120 442 120 457 144.5 c 128,-1,37
 472 169 472 169 472 223 c 256,38,39
 472 277 472 277 457 300.5 c 128,-1,40
 442 324 442 324 414 324 c 2,41,-1
 392 324 l 1,42,-1
 392 120 l 1,34,-1
EndSplineSet
EndChar

StartChar: afii10059
Encoding: 1034 1034 420
Width: 600
GlyphClass: 2
Flags: W
AnchorPoint: "Anchor-3" 214 714 basechar 0
AnchorPoint: "Anchor-0" 300 0 basechar 0
LayerCount: 2
Fore
SplineSet
35 0 m 1,0,-1
 35 714 l 1,1,-1
 164 714 l 1,2,-1
 164 441 l 1,3,-1
 265 441 l 1,4,-1
 265 714 l 1,5,-1
 393 714 l 1,6,-1
 393 445 l 1,7,-1
 410 445 l 2,8,9
 502 445 502 445 551 390.5 c 128,-1,10
 600 336 600 336 600 227 c 256,11,12
 600 118 600 118 552 59 c 128,-1,13
 504 0 504 0 417 0 c 2,14,-1
 265 0 l 1,15,-1
 265 322 l 1,16,-1
 164 322 l 1,17,-1
 164 0 l 1,18,-1
 35 0 l 1,0,-1
393 119 m 1,19,-1
 411 119 l 2,20,21
 474 119 474 119 474 225 c 0,22,23
 474 325 474 325 410 325 c 2,24,-1
 393 325 l 1,25,-1
 393 119 l 1,19,-1
EndSplineSet
EndChar

StartChar: afii10060
Encoding: 1035 1035 421
Width: 600
GlyphClass: 2
Flags: W
AnchorPoint: "Anchor-3" 205 714 basechar 0
AnchorPoint: "Anchor-0" 328 0 basechar 0
LayerCount: 2
Fore
SplineSet
100 0 m 1,0,-1
 100 587 l 1,1,-1
 0 587 l 1,2,-1
 0 714 l 1,3,-1
 401 714 l 1,4,-1
 401 587 l 1,5,-1
 246 587 l 1,6,-1
 246 457 l 1,7,-1
 332 457 l 2,8,9
 418 457 418 457 466.5 433 c 128,-1,10
 515 409 515 409 535 365.5 c 128,-1,11
 555 322 555 322 555 263 c 2,12,-1
 555 0 l 1,13,-1
 408 0 l 1,14,-1
 408 250 l 2,15,16
 408 273 408 273 401.5 291.5 c 128,-1,17
 395 310 395 310 375.5 320.5 c 128,-1,18
 356 331 356 331 318 331 c 2,19,-1
 246 331 l 1,20,-1
 246 0 l 1,21,-1
 100 0 l 1,0,-1
EndSplineSet
EndChar

StartChar: afii10145
Encoding: 1039 1039 424
Width: 600
GlyphClass: 2
Flags: W
AnchorPoint: "Anchor-3" 300 714 basechar 0
AnchorPoint: "Anchor-0" 300 -212 basechar 0
LayerCount: 2
Fore
SplineSet
229 -212 m 1,0,-1
 229 0 l 1,1,-1
 43 0 l 1,2,-1
 43 714 l 1,3,-1
 202 714 l 1,4,-1
 202 133 l 1,5,-1
 398 133 l 1,6,-1
 398 714 l 1,7,-1
 557 714 l 1,8,-1
 557 0 l 1,9,-1
 371 0 l 1,10,-1
 371 -212 l 1,11,-1
 229 -212 l 1,0,-1
EndSplineSet
EndChar

StartChar: afii10018
Encoding: 1041 1041 426
Width: 600
GlyphClass: 2
Flags: W
AnchorPoint: "Anchor-3" 300 714 basechar 0
AnchorPoint: "Anchor-0" 300 0 basechar 0
LayerCount: 2
Fore
SplineSet
71 0 m 1,0,-1
 71 714 l 1,1,-1
 511 714 l 1,2,-1
 511 583 l 1,3,-1
 232 583 l 1,4,-1
 232 445 l 1,5,-1
 296 445 l 2,6,7
 388 445 388 445 447.5 417 c 128,-1,8
 507 389 507 389 536 340 c 128,-1,9
 565 291 565 291 565 228 c 0,10,11
 565 121 565 121 497 60.5 c 128,-1,12
 429 0 429 0 289 0 c 2,13,-1
 71 0 l 1,0,-1
231 130 m 1,14,-1
 285 130 l 2,15,16
 342 130 342 130 373 152 c 128,-1,17
 404 174 404 174 404 225 c 0,18,19
 404 277 404 277 370 296 c 128,-1,20
 336 315 336 315 278 315 c 2,21,-1
 231 315 l 1,22,-1
 231 130 l 1,14,-1
EndSplineSet
EndChar

StartChar: afii10021
Encoding: 1044 1044 429
Width: 600
GlyphClass: 2
Flags: W
AnchorPoint: "Anchor-3" 345 714 basechar 0
AnchorPoint: "Anchor-0" 300 -211 basechar 0
LayerCount: 2
Fore
SplineSet
8 -211 m 1,0,-1
 8 126 l 1,1,-1
 58 126 l 1,2,3
 104 246 104 246 134.5 389.5 c 128,-1,4
 165 533 165 533 176 714 c 1,5,-1
 514 714 l 1,6,-1
 514 126 l 1,7,-1
 582 126 l 1,8,-1
 582 -211 l 1,9,-1
 444 -211 l 1,10,-1
 444 0 l 1,11,-1
 146 0 l 1,12,-1
 146 -211 l 1,13,-1
 8 -211 l 1,0,-1
213 126 m 1,14,-1
 373 126 l 1,15,-1
 373 589 l 1,16,-1
 300 589 l 1,17,18
 292 476 292 476 269.5 354 c 128,-1,19
 247 232 247 232 213 126 c 1,14,-1
EndSplineSet
EndChar

StartChar: afii10024
Encoding: 1046 1046 431
Width: 600
GlyphClass: 2
Flags: W
AnchorPoint: "Anchor-3" 300 714 basechar 0
AnchorPoint: "Anchor-0" 300 0 basechar 0
LayerCount: 2
Fore
SplineSet
3 0 m 1,0,-1
 104 368 l 1,1,-1
 9 714 l 1,2,-1
 153 714 l 1,3,-1
 232 368 l 1,4,-1
 232 714 l 1,5,-1
 370 714 l 1,6,-1
 370 368 l 1,7,-1
 450 714 l 1,8,-1
 590 714 l 1,9,-1
 499 368 l 1,10,-1
 597 0 l 1,11,-1
 454 0 l 1,12,-1
 370 362 l 1,13,-1
 370 0 l 1,14,-1
 232 0 l 1,15,-1
 232 362 l 1,16,-1
 149 0 l 1,17,-1
 3 0 l 1,0,-1
EndSplineSet
EndChar

StartChar: afii10025
Encoding: 1047 1047 432
Width: 600
GlyphClass: 2
Flags: W
AnchorPoint: "Anchor-3" 295 714 basechar 0
AnchorPoint: "Anchor-0" 300 0 basechar 0
LayerCount: 2
Fore
SplineSet
267 -10 m 0,0,1
 209 -10 209 -10 154 1 c 128,-1,2
 99 12 99 12 56 31 c 1,3,-1
 56 170 l 1,4,5
 102 148 102 148 153 134.5 c 128,-1,6
 204 121 204 121 257 121 c 0,7,8
 331 121 331 121 366.5 144.5 c 128,-1,9
 402 168 402 168 402 213 c 0,10,11
 402 262 402 262 365 285 c 128,-1,12
 328 308 328 308 244 308 c 2,13,-1
 153 308 l 1,14,-1
 153 434 l 1,15,-1
 237 434 l 2,16,17
 296 434 296 434 327.5 445 c 128,-1,18
 359 456 359 456 371 475 c 128,-1,19
 383 494 383 494 383 520 c 0,20,21
 383 557 383 557 359 576 c 128,-1,22
 335 595 335 595 281 595 c 0,23,24
 234 595 234 595 192.5 579.5 c 128,-1,25
 151 564 151 564 116 539 c 1,26,-1
 52 647 l 1,27,28
 102 682 102 682 159.5 703 c 128,-1,29
 217 724 217 724 297 724 c 0,30,31
 422 724 422 724 481.5 673 c 128,-1,32
 541 622 541 622 541 543 c 0,33,34
 541 402 541 402 392 378 c 1,35,-1
 392 374 l 1,36,37
 482 364 482 364 522.5 321 c 128,-1,38
 563 278 563 278 563 203 c 0,39,40
 563 107 563 107 489.5 48.5 c 128,-1,41
 416 -10 416 -10 267 -10 c 0,0,1
EndSplineSet
EndChar

StartChar: afii10026
Encoding: 1048 1048 433
Width: 600
GlyphClass: 2
Flags: W
AnchorPoint: "Anchor-3" 295 714 basechar 0
AnchorPoint: "Anchor-0" 280 0 basechar 0
LayerCount: 2
Fore
SplineSet
43 0 m 1,0,-1
 43 714 l 1,1,-1
 182 714 l 1,2,-1
 182 392 l 2,3,4
 182 364 182 364 181 329.5 c 128,-1,5
 180 295 180 295 178 262.5 c 128,-1,6
 176 230 176 230 175 208 c 1,7,-1
 178 208 l 1,8,-1
 373 714 l 1,9,-1
 557 714 l 1,10,-1
 557 0 l 1,11,-1
 419 0 l 1,12,-1
 419 323 l 2,13,14
 419 352 419 352 420 387.5 c 128,-1,15
 421 423 421 423 423 456.5 c 128,-1,16
 425 490 425 490 427 513 c 1,17,-1
 423 513 l 1,18,-1
 227 0 l 1,19,-1
 43 0 l 1,0,-1
EndSplineSet
EndChar

StartChar: afii10028
Encoding: 1050 1050 435
Width: 600
GlyphClass: 2
Flags: W
AnchorPoint: "Anchor-3" 300 714 basechar 0
AnchorPoint: "Anchor-0" 295 0 basechar 0
LayerCount: 2
Fore
SplineSet
43 0 m 1,0,-1
 43 714 l 1,1,-1
 202 714 l 1,2,-1
 202 368 l 1,3,-1
 379 714 l 1,4,-1
 556 714 l 1,5,-1
 368 371 l 1,6,-1
 570 0 l 1,7,-1
 385 0 l 1,8,-1
 202 362 l 1,9,-1
 202 0 l 1,10,-1
 43 0 l 1,0,-1
EndSplineSet
EndChar

StartChar: afii10029
Encoding: 1051 1051 436
Width: 600
GlyphClass: 2
Flags: W
AnchorPoint: "Anchor-3" 380 714 basechar 0
AnchorPoint: "Anchor-0" 300 0 basechar 0
LayerCount: 2
Fore
SplineSet
88 -10 m 0,0,1
 47 -10 47 -10 17 1 c 1,2,-1
 17 125 l 1,3,4
 28 120 28 120 39 117.5 c 128,-1,5
 50 115 50 115 60 115 c 0,6,7
 86 115 86 115 102 141.5 c 128,-1,8
 118 168 118 168 129 243 c 0,9,10
 136 299 136 299 146 418 c 128,-1,11
 156 537 156 537 169 714 c 1,12,-1
 557 714 l 1,13,-1
 557 0 l 1,14,-1
 409 0 l 1,15,-1
 409 583 l 1,16,-1
 300 583 l 1,17,18
 294 494 294 494 288 414.5 c 128,-1,19
 282 335 282 335 275.5 271.5 c 128,-1,20
 269 208 269 208 261 166 c 0,21,22
 242 68 242 68 198 29 c 128,-1,23
 154 -10 154 -10 88 -10 c 0,0,1
EndSplineSet
EndChar

StartChar: afii10033
Encoding: 1055 1055 440
Width: 600
GlyphClass: 2
Flags: W
AnchorPoint: "Anchor-3" 300 714 basechar 0
AnchorPoint: "Anchor-0" 300 0 basechar 0
LayerCount: 2
Fore
SplineSet
43 0 m 1,0,-1
 43 714 l 1,1,-1
 557 714 l 1,2,-1
 557 0 l 1,3,-1
 398 0 l 1,4,-1
 398 581 l 1,5,-1
 202 581 l 1,6,-1
 202 0 l 1,7,-1
 43 0 l 1,0,-1
EndSplineSet
EndChar

StartChar: afii10037
Encoding: 1059 1059 444
Width: 600
GlyphClass: 2
Flags: W
AnchorPoint: "Anchor-3" 300 714 basechar 0
AnchorPoint: "Anchor-0" 200 0 basechar 0
LayerCount: 2
Fore
SplineSet
147 -10 m 0,0,1
 121 -10 121 -10 89 -6 c 128,-1,2
 57 -2 57 -2 30 5 c 1,3,-1
 30 142 l 1,4,5
 55 132 55 132 84.5 128 c 128,-1,6
 114 124 114 124 136 124 c 0,7,8
 181 124 181 124 201 143 c 128,-1,9
 221 162 221 162 234 200 c 1,10,-1
 18 714 l 1,11,-1
 185 714 l 1,12,-1
 283 430 l 2,13,14
 290 410 290 410 298 380.5 c 128,-1,15
 306 351 306 351 310 327 c 1,16,-1
 315 327 l 1,17,18
 319 351 319 351 326.5 380 c 128,-1,19
 334 409 334 409 340 430 c 2,20,-1
 420 714 l 1,21,-1
 582 714 l 1,22,-1
 407 209 l 2,23,24
 383 140 383 140 351.5 91 c 128,-1,25
 320 42 320 42 271 16 c 128,-1,26
 222 -10 222 -10 147 -10 c 0,0,1
EndSplineSet
EndChar

StartChar: afii10038
Encoding: 1060 1060 445
Width: 600
GlyphClass: 2
Flags: W
AnchorPoint: "Anchor-3" 300 714 basechar 0
AnchorPoint: "Anchor-0" 300 0 basechar 0
LayerCount: 2
Fore
SplineSet
235 -10 m 1,0,-1
 235 100 l 1,1,2
 156 102 156 102 107.5 139 c 128,-1,3
 59 176 59 176 37 237.5 c 128,-1,4
 15 299 15 299 15 372 c 0,5,6
 15 440 15 440 36 499.5 c 128,-1,7
 57 559 57 559 105 596.5 c 128,-1,8
 153 634 153 634 235 636 c 1,9,-1
 235 724 l 1,10,-1
 365 724 l 1,11,-1
 365 636 l 1,12,13
 444 634 444 634 492 597 c 128,-1,14
 540 560 540 560 562.5 500.5 c 128,-1,15
 585 441 585 441 585 372 c 0,16,17
 585 302 585 302 563.5 240.5 c 128,-1,18
 542 179 542 179 493.5 140.5 c 128,-1,19
 445 102 445 102 365 100 c 1,20,-1
 365 -10 l 1,21,-1
 235 -10 l 1,0,-1
235 219 m 1,22,-1
 235 516 l 1,23,24
 190 514 190 514 172 476 c 128,-1,25
 154 438 154 438 154 372 c 0,26,27
 154 223 154 223 235 219 c 1,22,-1
365 219 m 1,28,29
 407 221 407 221 426.5 260.5 c 128,-1,30
 446 300 446 300 446 371 c 0,31,32
 446 436 446 436 427 475 c 128,-1,33
 408 514 408 514 365 516 c 1,34,-1
 365 219 l 1,28,29
EndSplineSet
EndChar

StartChar: afii10040
Encoding: 1062 1062 447
Width: 600
GlyphClass: 2
Flags: W
AnchorPoint: "Anchor-3" 300 714 basechar 0
AnchorPoint: "Anchor-0" 300 -211 basechar 0
LayerCount: 2
Fore
SplineSet
43 0 m 1,0,-1
 43 714 l 1,1,-1
 202 714 l 1,2,-1
 202 133 l 1,3,-1
 398 133 l 1,4,-1
 398 714 l 1,5,-1
 557 714 l 1,6,-1
 557 128 l 1,7,-1
 600 128 l 1,8,-1
 600 -211 l 1,9,-1
 445 -211 l 1,10,-1
 445 0 l 1,11,-1
 43 0 l 1,0,-1
EndSplineSet
EndChar

StartChar: afii10041
Encoding: 1063 1063 448
Width: 600
GlyphClass: 2
Flags: W
AnchorPoint: "Anchor-3" 300 714 basechar 0
AnchorPoint: "Anchor-0" 300 0 basechar 0
LayerCount: 2
Fore
SplineSet
399 0 m 1,0,-1
 399 271 l 1,1,2
 353 249 353 249 315.5 239.5 c 128,-1,3
 278 230 278 230 231 230 c 0,4,5
 140 230 140 230 91.5 278.5 c 128,-1,6
 43 327 43 327 43 418 c 2,7,-1
 43 714 l 1,8,-1
 203 714 l 1,9,-1
 203 465 l 2,10,11
 203 412 203 412 222.5 387 c 128,-1,12
 242 362 242 362 285 362 c 0,13,14
 315 362 315 362 341.5 370 c 128,-1,15
 368 378 368 378 399 395 c 1,16,-1
 399 714 l 1,17,-1
 557 714 l 1,18,-1
 557 0 l 1,19,-1
 399 0 l 1,0,-1
EndSplineSet
EndChar

StartChar: afii10042
Encoding: 1064 1064 449
Width: 600
GlyphClass: 2
Flags: W
AnchorPoint: "Anchor-3" 300 714 basechar 0
AnchorPoint: "Anchor-0" 300 0 basechar 0
LayerCount: 2
Fore
SplineSet
35 0 m 1,0,-1
 35 714 l 1,1,-1
 169 714 l 1,2,-1
 169 121 l 1,3,-1
 233 121 l 1,4,-1
 233 714 l 1,5,-1
 368 714 l 1,6,-1
 368 121 l 1,7,-1
 431 121 l 1,8,-1
 431 714 l 1,9,-1
 565 714 l 1,10,-1
 565 0 l 1,11,-1
 35 0 l 1,0,-1
EndSplineSet
EndChar

StartChar: afii10043
Encoding: 1065 1065 450
Width: 600
GlyphClass: 2
Flags: W
AnchorPoint: "Anchor-3" 300 714 basechar 0
AnchorPoint: "Anchor-0" 300 -212 basechar 0
LayerCount: 2
Fore
SplineSet
35 0 m 1,0,-1
 35 714 l 1,1,-1
 169 714 l 1,2,-1
 169 121 l 1,3,-1
 233 121 l 1,4,-1
 233 714 l 1,5,-1
 368 714 l 1,6,-1
 368 121 l 1,7,-1
 431 121 l 1,8,-1
 431 714 l 1,9,-1
 565 714 l 1,10,-1
 565 121 l 1,11,-1
 594 121 l 1,12,-1
 594 -212 l 1,13,-1
 458 -212 l 1,14,-1
 458 0 l 1,15,-1
 35 0 l 1,0,-1
EndSplineSet
EndChar

StartChar: afii10044
Encoding: 1066 1066 451
Width: 600
GlyphClass: 2
Flags: W
AnchorPoint: "Anchor-3" 300 714 basechar 0
AnchorPoint: "Anchor-0" 300 0 basechar 0
LayerCount: 2
Fore
SplineSet
91 0 m 1,0,-1
 91 581 l 1,1,-1
 0 581 l 1,2,-1
 0 714 l 1,3,-1
 251 714 l 1,4,-1
 251 445 l 1,5,-1
 317 445 l 2,6,7
 410 445 410 445 469 417 c 128,-1,8
 528 389 528 389 556.5 340 c 128,-1,9
 585 291 585 291 585 228 c 0,10,11
 585 121 585 121 517 60.5 c 128,-1,12
 449 0 449 0 310 0 c 2,13,-1
 91 0 l 1,0,-1
251 130 m 1,14,-1
 306 130 l 2,15,16
 362 130 362 130 393 152 c 128,-1,17
 424 174 424 174 424 225 c 0,18,19
 424 277 424 277 390 296 c 128,-1,20
 356 315 356 315 299 315 c 2,21,-1
 251 315 l 1,22,-1
 251 130 l 1,14,-1
EndSplineSet
EndChar

StartChar: afii10045
Encoding: 1067 1067 452
Width: 600
GlyphClass: 2
Flags: W
AnchorPoint: "Anchor-3" 300 714 basechar 0
AnchorPoint: "Anchor-0" 300 0 basechar 0
LayerCount: 2
Fore
SplineSet
35 0 m 1,0,-1
 35 714 l 1,1,-1
 171 714 l 1,2,-1
 171 445 l 1,3,-1
 192 445 l 2,4,5
 291 445 291 445 343.5 390.5 c 128,-1,6
 396 336 396 336 396 227 c 256,7,8
 396 118 396 118 344.5 59 c 128,-1,9
 293 0 293 0 199 0 c 2,10,-1
 35 0 l 1,0,-1
424 0 m 1,11,-1
 424 714 l 1,12,-1
 564 714 l 1,13,-1
 564 0 l 1,14,-1
 424 0 l 1,11,-1
171 119 m 1,15,-1
 193 119 l 2,16,17
 262 119 262 119 262 225 c 0,18,19
 262 325 262 325 192 325 c 2,20,-1
 171 325 l 1,21,-1
 171 119 l 1,15,-1
EndSplineSet
EndChar

StartChar: afii10046
Encoding: 1068 1068 453
Width: 600
GlyphClass: 2
Flags: W
AnchorPoint: "Anchor-3" 300 714 basechar 0
AnchorPoint: "Anchor-0" 300 0 basechar 0
LayerCount: 2
Fore
SplineSet
71 0 m 1,0,-1
 71 714 l 1,1,-1
 231 714 l 1,2,-1
 231 445 l 1,3,-1
 297 445 l 2,4,5
 390 445 390 445 449 417 c 128,-1,6
 508 389 508 389 536.5 340 c 128,-1,7
 565 291 565 291 565 228 c 0,8,9
 565 121 565 121 497 60.5 c 128,-1,10
 429 0 429 0 290 0 c 2,11,-1
 71 0 l 1,0,-1
231 130 m 1,12,-1
 286 130 l 2,13,14
 342 130 342 130 373 152 c 128,-1,15
 404 174 404 174 404 225 c 0,16,17
 404 277 404 277 370 296 c 128,-1,18
 336 315 336 315 279 315 c 2,19,-1
 231 315 l 1,20,-1
 231 130 l 1,12,-1
EndSplineSet
EndChar

StartChar: afii10048
Encoding: 1070 1070 455
Width: 600
GlyphClass: 2
Flags: W
AnchorPoint: "Anchor-3" 300 714 basechar 0
AnchorPoint: "Anchor-0" 300 0 basechar 0
LayerCount: 2
Fore
SplineSet
34 0 m 1,0,-1
 34 714 l 1,1,-1
 161 714 l 1,2,-1
 161 431 l 1,3,-1
 216 431 l 1,4,5
 220 539 220 539 240.5 603.5 c 128,-1,6
 261 668 261 668 299 696.5 c 128,-1,7
 337 725 337 725 396 725 c 0,8,9
 461 725 461 725 500 689 c 128,-1,10
 539 653 539 653 556 572 c 128,-1,11
 573 491 573 491 573 356 c 0,12,13
 573 224 573 224 556.5 143.5 c 128,-1,14
 540 63 540 63 501 26.5 c 128,-1,15
 462 -10 462 -10 395 -10 c 0,16,17
 329 -10 329 -10 290.5 22.5 c 128,-1,18
 252 55 252 55 234.5 125.5 c 128,-1,19
 217 196 217 196 214 311 c 1,20,-1
 161 311 l 1,21,-1
 161 0 l 1,22,-1
 34 0 l 1,0,-1
393 114 m 0,23,24
 424 114 424 114 433.5 170.5 c 128,-1,25
 443 227 443 227 443 358 c 0,26,27
 443 488 443 488 434 545 c 128,-1,28
 425 602 425 602 393 602 c 0,29,30
 360 602 360 602 351.5 544 c 128,-1,31
 343 486 343 486 343 359 c 0,32,33
 343 226 343 226 352 170 c 128,-1,34
 361 114 361 114 393 114 c 0,23,24
EndSplineSet
EndChar

StartChar: afii10066
Encoding: 1073 1073 458
Width: 600
GlyphClass: 2
Flags: W
AnchorPoint: "Anchor-3" 300 766 basechar 0
AnchorPoint: "Anchor-0" 300 0 basechar 0
LayerCount: 2
Fore
SplineSet
299 -10 m 0,0,1
 178 -10 178 -10 106.5 77 c 128,-1,2
 35 164 35 164 35 328 c 0,3,4
 35 448 35 448 64.5 533 c 128,-1,5
 94 618 94 618 160 669 c 128,-1,6
 226 720 226 720 336 738 c 0,7,8
 386 746 386 746 438.5 752.5 c 128,-1,9
 491 759 491 759 547 766 c 1,10,-1
 565 631 l 1,11,12
 531 628 531 628 491.5 623 c 128,-1,13
 452 618 452 618 414 613 c 128,-1,14
 376 608 376 608 347 604 c 0,15,16
 294 596 294 596 262 578 c 128,-1,17
 230 560 230 560 214 524.5 c 128,-1,18
 198 489 198 489 195 428 c 1,19,-1
 202 428 l 1,20,21
 218 456 218 456 257 483 c 128,-1,22
 296 510 296 510 355 510 c 0,23,24
 447 510 447 510 504.5 451 c 128,-1,25
 562 392 562 392 562 272 c 0,26,27
 562 178 562 178 528.5 115.5 c 128,-1,28
 495 53 495 53 436 21.5 c 128,-1,29
 377 -10 377 -10 299 -10 c 0,0,1
308 114 m 0,30,31
 349 114 349 114 375 145.5 c 128,-1,32
 401 177 401 177 401 256 c 0,33,34
 401 319 401 319 382.5 357 c 128,-1,35
 364 395 364 395 317 395 c 0,36,37
 288 395 288 395 263 380 c 128,-1,38
 238 365 238 365 220 346 c 128,-1,39
 202 327 202 327 196 314 c 1,40,41
 196 264 196 264 206 218.5 c 128,-1,42
 216 173 216 173 240.5 143.5 c 128,-1,43
 265 114 265 114 308 114 c 0,30,31
EndSplineSet
Substitution2: "'locl' Localized Forms in Cyrillic lookup 19 subtable" afii10066.loclSRB
Substitution2: "'aalt' Access All Alternates lookup 0 subtable" afii10066.loclSRB
EndChar

StartChar: afii10067
Encoding: 1074 1074 459
Width: 600
GlyphClass: 2
Flags: W
AnchorPoint: "Anchor-3" 300 549 basechar 0
AnchorPoint: "Anchor-0" 300 0 basechar 0
LayerCount: 2
Fore
SplineSet
91 0 m 1,0,-1
 91 549 l 1,1,-1
 307 549 l 2,2,3
 404 549 404 549 461.5 516.5 c 128,-1,4
 519 484 519 484 519 407 c 0,5,6
 519 363 519 363 493.5 330 c 128,-1,7
 468 297 468 297 417 288 c 1,8,-1
 417 284 l 1,9,10
 472 277 472 277 504 245 c 128,-1,11
 536 213 536 213 536 161 c 0,12,13
 536 116 536 116 513.5 79.5 c 128,-1,14
 491 43 491 43 440.5 21.5 c 128,-1,15
 390 0 390 0 306 0 c 2,16,-1
 91 0 l 1,0,-1
228 337 m 1,17,-1
 288 337 l 2,18,19
 376 337 376 337 376 391 c 0,20,21
 376 440 376 440 302 440 c 2,22,-1
 228 440 l 1,23,-1
 228 337 l 1,17,-1
228 108 m 1,24,-1
 298 108 l 2,25,26
 340 108 340 108 364.5 123 c 128,-1,27
 389 138 389 138 389 172 c 0,28,29
 389 231 389 231 296 231 c 2,30,-1
 228 231 l 1,31,-1
 228 108 l 1,24,-1
EndSplineSet
EndChar

StartChar: afii10068
Encoding: 1075 1075 460
Width: 600
GlyphClass: 2
Flags: W
AnchorPoint: "Anchor-3" 336 549 basechar 0
AnchorPoint: "Anchor-0" 300 0 basechar 0
LayerCount: 2
Fore
SplineSet
137 0 m 1,0,-1
 137 549 l 1,1,-1
 521 549 l 1,2,-1
 521 430 l 1,3,-1
 294 430 l 1,4,-1
 294 0 l 1,5,-1
 137 0 l 1,0,-1
EndSplineSet
EndChar

StartChar: afii10069
Encoding: 1076 1076 461
Width: 600
GlyphClass: 2
Flags: W
AnchorPoint: "Anchor-3" 338 549 basechar 0
AnchorPoint: "Anchor-0" 300 -197 basechar 0
LayerCount: 2
Fore
SplineSet
30 -197 m 1,0,-1
 30 113 l 1,1,-1
 76 113 l 1,2,3
 116 196 116 196 140 312 c 128,-1,4
 164 428 164 428 172 549 c 1,5,-1
 499 549 l 1,6,-1
 499 113 l 1,7,-1
 570 113 l 1,8,-1
 570 -197 l 1,9,-1
 438 -197 l 1,10,-1
 438 0 l 1,11,-1
 163 0 l 1,12,-1
 163 -197 l 1,13,-1
 30 -197 l 1,0,-1
225 113 m 1,14,-1
 357 113 l 1,15,-1
 357 435 l 1,16,-1
 291 435 l 1,17,18
 284 349 284 349 269 270.5 c 128,-1,19
 254 192 254 192 225 113 c 1,14,-1
EndSplineSet
EndChar

StartChar: afii10072
Encoding: 1078 1078 463
Width: 600
GlyphClass: 2
Flags: W
AnchorPoint: "Anchor-3" 300 549 basechar 0
AnchorPoint: "Anchor-0" 300 0 basechar 0
LayerCount: 2
Fore
SplineSet
5 0 m 1,0,-1
 101 286 l 1,1,-1
 18 549 l 1,2,-1
 165 549 l 1,3,-1
 234 284 l 1,4,-1
 234 549 l 1,5,-1
 365 549 l 1,6,-1
 365 284 l 1,7,-1
 435 549 l 1,8,-1
 582 549 l 1,9,-1
 499 286 l 1,10,-1
 594 0 l 1,11,-1
 443 0 l 1,12,-1
 365 280 l 1,13,-1
 365 0 l 1,14,-1
 234 0 l 1,15,-1
 234 280 l 1,16,-1
 157 0 l 1,17,-1
 5 0 l 1,0,-1
EndSplineSet
EndChar

StartChar: afii10073
Encoding: 1079 1079 464
Width: 600
GlyphClass: 2
Flags: W
AnchorPoint: "Anchor-3" 300 549 basechar 0
AnchorPoint: "Anchor-0" 300 0 basechar 0
LayerCount: 2
Fore
SplineSet
263 -10 m 0,0,1
 204 -10 204 -10 155.5 -1.5 c 128,-1,2
 107 7 107 7 72 23 c 1,3,-1
 72 150 l 1,4,5
 105 136 105 136 150.5 123.5 c 128,-1,6
 196 111 196 111 253 111 c 0,7,8
 306 111 306 111 338.5 126 c 128,-1,9
 371 141 371 141 371 171 c 256,10,11
 371 201 371 201 340.5 216 c 128,-1,12
 310 231 310 231 241 231 c 2,13,-1
 182 231 l 1,14,-1
 182 339 l 1,15,-1
 235 339 l 2,16,17
 298 339 298 339 331.5 350.5 c 128,-1,18
 365 362 365 362 365 392 c 0,19,20
 365 442 365 442 276 442 c 0,21,22
 196 442 196 442 118 407 c 1,23,-1
 75 516 l 1,24,25
 169 557 169 557 282 557 c 0,26,27
 344 557 344 557 394.5 541.5 c 128,-1,28
 445 526 445 526 475 494 c 128,-1,29
 505 462 505 462 505 411 c 0,30,31
 505 363 505 363 477 333.5 c 128,-1,32
 449 304 449 304 403 291 c 1,33,-1
 403 286 l 1,34,35
 457 275 457 275 489.5 244.5 c 128,-1,36
 522 214 522 214 522 159 c 0,37,38
 522 111 522 111 495 72.5 c 128,-1,39
 468 34 468 34 411 12 c 128,-1,40
 354 -10 354 -10 263 -10 c 0,0,1
EndSplineSet
EndChar

StartChar: afii10074
Encoding: 1080 1080 465
Width: 600
GlyphClass: 2
Flags: W
AnchorPoint: "Anchor-3" 300 549 basechar 0
AnchorPoint: "Anchor-0" 311 0 basechar 0
LayerCount: 2
Fore
SplineSet
50 0 m 1,0,-1
 50 549 l 1,1,-1
 194 549 l 1,2,-1
 194 337 l 2,3,4
 194 314 194 314 192.5 284 c 128,-1,5
 191 254 191 254 188.5 225.5 c 128,-1,6
 186 197 186 197 184 176 c 1,7,-1
 376 549 l 1,8,-1
 550 549 l 1,9,-1
 550 0 l 1,10,-1
 407 0 l 1,11,-1
 407 214 l 2,12,13
 407 252 407 252 410 296.5 c 128,-1,14
 413 341 413 341 415 371 c 1,15,-1
 224 0 l 1,16,-1
 50 0 l 1,0,-1
EndSplineSet
EndChar

StartChar: afii10076
Encoding: 1082 1082 467
Width: 600
GlyphClass: 2
Flags: W
AnchorPoint: "Anchor-3" 315 549 basechar 0
AnchorPoint: "Anchor-0" 308 0 basechar 0
LayerCount: 2
Fore
SplineSet
51 0 m 1,0,-1
 51 549 l 1,1,-1
 208 549 l 1,2,-1
 208 282 l 1,3,-1
 397 549 l 1,4,-1
 571 549 l 1,5,-1
 375 284 l 1,6,-1
 590 0 l 1,7,-1
 410 0 l 1,8,-1
 208 278 l 1,9,-1
 208 0 l 1,10,-1
 51 0 l 1,0,-1
EndSplineSet
EndChar

StartChar: afii10077
Encoding: 1083 1083 468
Width: 600
GlyphClass: 2
Flags: W
AnchorPoint: "Anchor-3" 358 549 basechar 0
AnchorPoint: "Anchor-0" 353 0 basechar 0
LayerCount: 2
Fore
SplineSet
107 -10 m 0,0,1
 56 -10 56 -10 23 5 c 1,2,-1
 23 128 l 1,3,4
 42 119 42 119 69 119 c 0,5,6
 86 119 86 119 101 136.5 c 128,-1,7
 116 154 116 154 129 200 c 128,-1,8
 142 246 142 246 153 330.5 c 128,-1,9
 164 415 164 415 173 549 c 1,10,-1
 550 549 l 1,11,-1
 550 0 l 1,12,-1
 394 0 l 1,13,-1
 394 426 l 1,14,-1
 313 426 l 1,15,16
 300 268 300 268 277 172 c 128,-1,17
 254 76 254 76 214 33 c 128,-1,18
 174 -10 174 -10 107 -10 c 0,0,1
EndSplineSet
EndChar

StartChar: afii10078
Encoding: 1084 1084 469
Width: 600
GlyphClass: 2
Flags: W
AnchorPoint: "Anchor-3" 300 549 basechar 0
AnchorPoint: "Anchor-0" 300 0 basechar 0
LayerCount: 2
Fore
SplineSet
25 0 m 1,0,-1
 25 549 l 1,1,-1
 211 549 l 1,2,-1
 300 211 l 1,3,-1
 389 549 l 1,4,-1
 575 549 l 1,5,-1
 575 0 l 1,6,-1
 449 0 l 1,7,-1
 449 250 l 2,8,9
 449 282 449 282 451 319 c 128,-1,10
 453 356 453 356 457 395 c 1,11,-1
 453 395 l 1,12,-1
 348 0 l 1,13,-1
 251 0 l 1,14,-1
 145 395 l 1,15,-1
 141 395 l 1,16,17
 144 357 144 357 146 320.5 c 128,-1,18
 148 284 148 284 148 250 c 2,19,-1
 148 0 l 1,20,-1
 25 0 l 1,0,-1
EndSplineSet
EndChar

StartChar: afii10079
Encoding: 1085 1085 470
Width: 600
GlyphClass: 2
Flags: W
AnchorPoint: "Anchor-3" 300 549 basechar 0
AnchorPoint: "Anchor-0" 300 0 basechar 0
LayerCount: 2
Fore
SplineSet
50 0 m 1,0,-1
 50 549 l 1,1,-1
 208 549 l 1,2,-1
 208 340 l 1,3,-1
 392 340 l 1,4,-1
 392 549 l 1,5,-1
 550 549 l 1,6,-1
 550 0 l 1,7,-1
 392 0 l 1,8,-1
 392 222 l 1,9,-1
 208 222 l 1,10,-1
 208 0 l 1,11,-1
 50 0 l 1,0,-1
EndSplineSet
EndChar

StartChar: afii10081
Encoding: 1087 1087 472
Width: 600
GlyphClass: 2
Flags: W
AnchorPoint: "Anchor-3" 303 549 basechar 0
AnchorPoint: "Anchor-0" 303 0 basechar 0
LayerCount: 2
Fore
SplineSet
50 0 m 1,0,-1
 50 549 l 1,1,-1
 550 549 l 1,2,-1
 550 0 l 1,3,-1
 392 0 l 1,4,-1
 392 431 l 1,5,-1
 208 431 l 1,6,-1
 208 0 l 1,7,-1
 50 0 l 1,0,-1
EndSplineSet
EndChar

